<svg width="146" height="147" viewBox="0 0 146 147" fill="none" xmlns="http://www.w3.org/2000/svg">
<g filter="url(#filter0_i_21_4108)">
<path d="M36.3963 147L72.7693 126L109.142 147L145.515 126V84L109.142 63V21L72.7693 1.90735e-05L36.3963 21V63L0.0231934 84V126L36.3963 147Z" fill="#57902C"/>
</g>
<g filter="url(#filter1_i_21_4108)">
<mask id="path-2-inside-1_21_4108" fill="white">
<path d="M35.9109 21V63L72.284 84L108.657 63V21L72.284 1.90735e-05L35.9109 21Z"/>
</mask>
<path d="M35.9109 21V63L72.284 84L108.657 63V21L72.284 1.90735e-05L35.9109 21Z" stroke="black" stroke-opacity="0.5" stroke-width="14" mask="url(#path-2-inside-1_21_4108)"/>
</g>
<mask id="path-3-outside-2_21_4108" maskUnits="userSpaceOnUse" x="61.0232" y="31.48" width="22" height="45" fill="black">
<rect fill="white" x="61.0232" y="31.48" width="22" height="45"/>
<path fill-rule="evenodd" clip-rule="evenodd" d="M74.5954 40.4899C85.117 49.2526 84.364 57.695 72.9507 73.48C72.8235 70.1409 71.2834 68.2597 68.924 65.3778C68.3169 64.6363 67.6556 63.8286 66.9502 62.9127C60.665 53.306 60.4976 47.7007 70.4569 38.562C70.469 38.5463 70.4814 38.5306 70.4942 38.5149C70.5073 38.5089 70.5239 38.4979 70.5438 38.4824C70.5905 38.4397 70.6374 38.397 70.6845 38.3542C70.9289 38.1117 71.3518 37.6273 71.8516 37.0549C72.5903 36.2086 73.4971 35.17 74.2439 34.4359C78.0853 32.4263 79.1351 32.1931 77.7731 34.4359C76.0193 36.8329 75.0957 38.4325 74.5954 40.4899Z"/>
</mask>
<path fill-rule="evenodd" clip-rule="evenodd" d="M74.5954 40.4899C85.117 49.2526 84.364 57.695 72.9507 73.48C72.8235 70.1409 71.2834 68.2597 68.924 65.3778C68.3169 64.6363 67.6556 63.8286 66.9502 62.9127C60.665 53.306 60.4976 47.7007 70.4569 38.562C70.469 38.5463 70.4814 38.5306 70.4942 38.5149C70.5073 38.5089 70.5239 38.4979 70.5438 38.4824C70.5905 38.4397 70.6374 38.397 70.6845 38.3542C70.9289 38.1117 71.3518 37.6273 71.8516 37.0549C72.5903 36.2086 73.4971 35.17 74.2439 34.4359C78.0853 32.4263 79.1351 32.1931 77.7731 34.4359C76.0193 36.8329 75.0957 38.4325 74.5954 40.4899Z" fill="#3FA938"/>
<path d="M72.9507 73.48L71.9914 73.5166L72.0974 76.2987L73.7287 74.0425L72.9507 73.48ZM74.5954 40.4899L73.6625 40.263L73.5211 40.8446L73.981 41.2276L74.5954 40.4899ZM68.924 65.3778L68.1812 65.9859L68.1812 65.9859L68.924 65.3778ZM66.9502 62.9127L66.1469 63.4383L66.1671 63.4692L66.1897 63.4985L66.9502 62.9127ZM70.4569 38.562L71.106 39.2694L71.1677 39.2127L71.2187 39.1463L70.4569 38.562ZM70.4942 38.5149L70.0889 37.6447L69.8905 37.7371L69.7518 37.9064L70.4942 38.5149ZM70.5438 38.4824L71.1335 39.2399L71.1635 39.2166L71.1916 39.1909L70.5438 38.4824ZM70.6845 38.3542L71.3302 39.0645L71.3457 39.0505L71.3605 39.0358L70.6845 38.3542ZM71.8516 37.0549L72.5748 37.6862L72.5748 37.6862L71.8516 37.0549ZM74.2439 34.4359L73.7989 33.5852L73.6725 33.6513L73.5709 33.7513L74.2439 34.4359ZM77.7731 34.4359L78.5479 35.0027L78.5722 34.9694L78.5937 34.9342L77.7731 34.4359ZM73.7287 74.0425C79.4453 66.1362 82.6401 59.8838 82.957 54.407C83.2809 48.8098 80.6 44.2414 75.2097 39.7522L73.981 41.2276C79.1124 45.5012 81.3158 49.5352 81.0402 54.2961C80.7578 59.1775 77.8694 65.0388 72.1728 72.9175L73.7287 74.0425ZM68.1812 65.9859C70.5604 68.892 71.878 70.5405 71.9914 73.5166L73.91 73.4435C73.769 69.7414 72.0064 67.6275 69.6668 64.7697L68.1812 65.9859ZM66.1897 63.4985C66.9049 64.4272 67.5747 65.2452 68.1812 65.9859L69.6668 64.7697C69.0591 64.0274 68.4063 63.23 67.7108 62.3269L66.1897 63.4985ZM69.8079 37.8547C64.7854 42.4633 62.1152 46.3522 61.6578 50.4555C61.2007 54.5555 62.985 58.6054 66.1469 63.4383L67.7536 62.3871C64.6302 57.6132 63.1882 54.0572 63.5659 50.6682C63.9434 47.2825 66.1691 43.7994 71.106 39.2694L69.8079 37.8547ZM71.2187 39.1463C71.2243 39.1389 71.2303 39.1313 71.2367 39.1235L69.7518 37.9064C69.7325 37.9299 69.7136 37.9537 69.6952 37.9778L71.2187 39.1463ZM70.8995 39.3852C71.0109 39.3333 71.0948 39.2701 71.1335 39.2399L69.9541 37.7249C69.9587 37.7213 69.9708 37.712 69.9892 37.7C70.0058 37.689 70.0403 37.6673 70.0889 37.6447L70.8995 39.3852ZM70.0388 37.6438C69.991 37.6872 69.9434 37.7306 69.896 37.7739L71.1916 39.1909C71.2376 39.1489 71.2838 39.1068 71.3302 39.0645L70.0388 37.6438ZM71.3605 39.0358C71.6363 38.7623 72.0891 38.2425 72.5748 37.6862L71.1284 36.4235C70.6145 37.0121 70.2216 37.4611 70.0085 37.6726L71.3605 39.0358ZM72.5748 37.6862C73.3213 36.8311 74.2018 35.8234 74.9169 35.1205L73.5709 33.7513C72.7924 34.5165 71.8594 35.5861 71.1284 36.4235L72.5748 37.6862ZM74.6889 35.2865C75.6448 34.7864 76.4063 34.4079 76.9914 34.1525C77.6186 33.8788 77.9188 33.8046 78.0086 33.8C78.0556 33.7976 77.8239 33.8267 77.6002 33.6102C77.3504 33.3684 77.3831 33.0937 77.384 33.0869C77.3856 33.0742 77.3769 33.137 77.2981 33.3078C77.225 33.4667 77.1125 33.6741 76.9526 33.9376L78.5937 34.9342C78.7742 34.6369 78.9269 34.361 79.042 34.1112C79.1515 33.8734 79.2542 33.6021 79.2889 33.3273C79.3228 33.0584 79.3104 32.5934 78.9355 32.2306C78.5867 31.8931 78.1501 31.8703 77.9109 31.8825C77.4283 31.9071 76.831 32.1277 76.2234 32.3928C75.5739 32.6763 74.7636 33.0805 73.7989 33.5852L74.6889 35.2865ZM76.9984 33.869C75.22 36.2995 74.2078 38.0213 73.6625 40.263L75.5282 40.7168C75.9837 38.8437 76.8186 37.3662 78.5479 35.0027L76.9984 33.869Z" fill="black" mask="url(#path-3-outside-2_21_4108)"/>
<g filter="url(#filter2_d_21_4108)">
<path d="M76.5287 47.9959L76.5287 50.0186L72.2844 53.7345C71.9662 54.0224 71.6953 54.2857 71.4719 54.5243C71.2484 54.7667 71.0779 55.0092 70.9605 55.2516C70.8431 55.4978 70.7844 55.7648 70.7844 56.0527C70.7844 56.3747 70.8544 56.6493 70.9946 56.8766C71.1347 57.1076 71.3279 57.2857 71.5741 57.4107C71.8203 57.5357 72.1025 57.5982 72.4207 57.5982C72.7427 57.5982 73.0249 57.5319 73.2673 57.3993C73.5097 57.2705 73.6991 57.083 73.8355 56.8368C73.9681 56.5906 74.0344 56.2913 74.0344 55.9391L76.6991 55.9391C76.6991 56.7307 76.5211 57.4145 76.165 57.9902C75.809 58.566 75.309 59.0092 74.665 59.3198C74.0173 59.6342 73.2654 59.7913 72.4094 59.7913C71.5268 59.7913 70.7597 59.6436 70.1082 59.3482C69.4567 59.0527 68.9529 58.6398 68.5969 58.1095C68.237 57.583 68.0571 56.9713 68.0571 56.2743C68.0571 55.8311 68.1461 55.3917 68.3241 54.9561C68.5022 54.5205 68.8222 54.0395 69.2844 53.5129C69.7427 52.9864 70.3942 52.3557 71.2389 51.6209L72.631 50.3368L72.631 50.2629L67.915 50.2629L67.915 47.9959L76.5287 47.9959Z" fill="#F7F3F4"/>
</g>
<mask id="path-6-outside-3_21_4108" maskUnits="userSpaceOnUse" x="58.5154" y="86.79" width="28" height="31" fill="black">
<rect fill="white" x="58.5154" y="86.79" width="28" height="31"/>
<path d="M70.6084 116.79L60.2354 110.458L74.7989 104.677L85.5154 112.11L70.6084 116.79Z"/>
<path d="M74.7989 104.677L60.2354 110.458L60.2354 95.0417L74.7989 88.7099L85.5154 97.244L85.5154 112.11L74.7989 104.677Z"/>
</mask>
<path d="M70.6084 116.79L60.2354 110.458L74.7989 104.677L85.5154 112.11L70.6084 116.79Z" fill="#5AB12F"/>
<path d="M74.7989 104.677L60.2354 110.458L60.2354 95.0417L74.7989 88.7099L85.5154 97.244L85.5154 112.11L74.7989 104.677Z" fill="#3FA938"/>
<path d="M74.7989 104.677L75.0496 104.315L74.8558 104.181L74.6365 104.268L74.7989 104.677ZM60.3977 110.867L74.9612 105.086L74.6365 104.268L60.0731 110.049L60.3977 110.867ZM74.5481 105.039L85.2646 112.472L85.7661 111.748L75.0496 104.315L74.5481 105.039ZM70.6084 116.79L70.1499 117.541L70.4908 117.749L70.872 117.63L70.6084 116.79ZM60.2354 110.458L59.3554 110.458L59.3554 110.952L59.7769 111.209L60.2354 110.458ZM85.5154 112.11L85.779 112.95L86.3954 112.756L86.3954 112.11L85.5154 112.11ZM60.2354 95.0417L59.8845 94.2347L59.3554 94.4647L59.3554 95.0417L60.2354 95.0417ZM74.7989 88.7099L75.3471 88.0215L74.9332 87.692L74.448 87.9029L74.7989 88.7099ZM85.5154 97.244L86.3954 97.244L86.3954 96.8199L86.0636 96.5556L85.5154 97.244ZM71.0669 116.039L60.6939 109.707L59.7769 111.209L70.1499 117.541L71.0669 116.039ZM85.2518 111.27L70.3448 115.95L70.872 117.63L85.779 112.95L85.2518 111.27ZM61.1154 110.458L61.1154 95.0417L59.3554 95.0417L59.3554 110.458L61.1154 110.458ZM60.5863 95.8487L75.1497 89.517L74.448 87.9029L59.8845 94.2347L60.5863 95.8487ZM74.2507 89.3983L84.9672 97.9324L86.0636 96.5556L75.3471 88.0215L74.2507 89.3983ZM84.6354 97.244L84.6354 112.11L86.3954 112.11L86.3954 97.244L84.6354 97.244Z" fill="black" mask="url(#path-6-outside-3_21_4108)"/>
<defs>
<filter id="filter0_i_21_4108" x="0.0231934" y="-5.99998" width="145.492" height="153" filterUnits="userSpaceOnUse" color-interpolation-filters="sRGB">
<feFlood flood-opacity="0" result="BackgroundImageFix"/>
<feBlend mode="normal" in="SourceGraphic" in2="BackgroundImageFix" result="shape"/>
<feColorMatrix in="SourceAlpha" type="matrix" values="0 0 0 0 0 0 0 0 0 0 0 0 0 0 0 0 0 0 127 0" result="hardAlpha"/>
<feOffset dy="-6"/>
<feGaussianBlur stdDeviation="4.9"/>
<feComposite in2="hardAlpha" operator="arithmetic" k2="-1" k3="1"/>
<feColorMatrix type="matrix" values="0 0 0 0 0 0 0 0 0 0 0 0 0 0 0 0 0 0 0.5 0"/>
<feBlend mode="normal" in2="shape" result="effect1_innerShadow_21_4108"/>
</filter>
<filter id="filter1_i_21_4108" x="35.9109" y="-0.999981" width="72.7461" height="85" filterUnits="userSpaceOnUse" color-interpolation-filters="sRGB">
<feFlood flood-opacity="0" result="BackgroundImageFix"/>
<feBlend mode="normal" in="SourceGraphic" in2="BackgroundImageFix" result="shape"/>
<feColorMatrix in="SourceAlpha" type="matrix" values="0 0 0 0 0 0 0 0 0 0 0 0 0 0 0 0 0 0 127 0" result="hardAlpha"/>
<feOffset dy="-1"/>
<feGaussianBlur stdDeviation="1.5"/>
<feComposite in2="hardAlpha" operator="arithmetic" k2="-1" k3="1"/>
<feColorMatrix type="matrix" values="0 0 0 0 0 0 0 0 0 0 0 0 0 0 0 0 0 0 0.25 0"/>
<feBlend mode="normal" in2="shape" result="effect1_innerShadow_21_4108"/>
</filter>
<filter id="filter2_d_21_4108" x="67.595" y="47.9959" width="9.42418" height="12.9955" filterUnits="userSpaceOnUse" color-interpolation-filters="sRGB">
<feFlood flood-opacity="0" result="BackgroundImageFix"/>
<feColorMatrix in="SourceAlpha" type="matrix" values="0 0 0 0 0 0 0 0 0 0 0 0 0 0 0 0 0 0 127 0" result="hardAlpha"/>
<feOffset dy="0.88"/>
<feGaussianBlur stdDeviation="0.16"/>
<feComposite in2="hardAlpha" operator="out"/>
<feColorMatrix type="matrix" values="0 0 0 0 0 0 0 0 0 0 0 0 0 0 0 0 0 0 0.25 0"/>
<feBlend mode="normal" in2="BackgroundImageFix" result="effect1_dropShadow_21_4108"/>
<feBlend mode="normal" in="SourceGraphic" in2="effect1_dropShadow_21_4108" result="shape"/>
</filter>
</defs>
</svg>
