<svg width="132" height="168" viewBox="0 0 132 168" fill="none" xmlns="http://www.w3.org/2000/svg">
<path d="M69.0493 12.8712L62.75 8.44605V16.1443V30.6596H8H4V34.6596V70.6617V74.6617H8H62.75V89.1771V97.0022L69.0927 92.4193L120.343 55.3886L124.893 52.1005L120.299 48.8733L69.0493 12.8712Z" fill="black" stroke="#FAEAD3" stroke-width="8"/>
<mask id="path-2-outside-1_143_82" maskUnits="userSpaceOnUse" x="23.2998" y="103.244" width="81" height="56" fill="black">
<rect fill="white" x="23.2998" y="103.244" width="81" height="56"/>
<path d="M40.4334 145.463V117.182H48.3045V145.463H40.4334ZM30.2186 135.268V127.377H58.4998V135.268H30.2186ZM81.2537 151.791C78.2069 151.791 75.505 151.27 73.1483 150.229C70.8045 149.174 68.9556 147.722 67.6014 145.873C66.2472 144.024 65.5571 141.895 65.5311 139.486H75.2577C75.2967 140.359 75.5767 141.134 76.0975 141.811C76.6183 142.475 77.328 142.996 78.2264 143.373C79.1248 143.751 80.147 143.94 81.2928 143.94C82.4386 143.94 83.4478 143.738 84.3202 143.334C85.2056 142.917 85.8957 142.351 86.3905 141.635C86.8853 140.906 87.1261 140.072 87.1131 139.135C87.1261 138.197 86.8592 137.364 86.3123 136.635C85.7655 135.906 84.9907 135.339 83.9881 134.936C82.9985 134.532 81.8267 134.33 80.4725 134.33H76.5858V127.455H80.4725C81.6574 127.455 82.6991 127.26 83.5975 126.869C84.509 126.479 85.2186 125.932 85.7264 125.229C86.2342 124.512 86.4816 123.692 86.4686 122.768C86.4816 121.869 86.2668 121.082 85.8241 120.404C85.3944 119.714 84.7889 119.18 84.0077 118.803C83.2394 118.425 82.3475 118.236 81.3319 118.236C80.2642 118.236 79.2941 118.425 78.4217 118.803C77.5623 119.18 76.8787 119.714 76.3709 120.404C75.8631 121.095 75.5962 121.895 75.5702 122.807H66.3319C66.3579 120.424 67.022 118.328 68.3241 116.518C69.6261 114.695 71.397 113.269 73.6366 112.24C75.8892 111.212 78.4543 110.697 81.3319 110.697C84.1965 110.697 86.716 111.199 88.8905 112.201C91.0649 113.204 92.7577 114.571 93.9686 116.303C95.1795 118.022 95.785 119.968 95.785 122.143C95.798 124.395 95.0623 126.251 93.578 127.709C92.1066 129.167 90.2121 130.066 87.8944 130.404V130.717C90.9933 131.082 93.3306 132.084 94.9061 133.725C96.4946 135.365 97.2824 137.416 97.2694 139.877C97.2694 142.195 96.5858 144.252 95.2186 146.049C93.8644 147.833 91.9764 149.239 89.5545 150.268C87.1457 151.283 84.3787 151.791 81.2537 151.791Z"/>
</mask>
<path d="M40.4334 145.463V117.182H48.3045V145.463H40.4334ZM30.2186 135.268V127.377H58.4998V135.268H30.2186ZM81.2537 151.791C78.2069 151.791 75.505 151.27 73.1483 150.229C70.8045 149.174 68.9556 147.722 67.6014 145.873C66.2472 144.024 65.5571 141.895 65.5311 139.486H75.2577C75.2967 140.359 75.5767 141.134 76.0975 141.811C76.6183 142.475 77.328 142.996 78.2264 143.373C79.1248 143.751 80.147 143.94 81.2928 143.94C82.4386 143.94 83.4478 143.738 84.3202 143.334C85.2056 142.917 85.8957 142.351 86.3905 141.635C86.8853 140.906 87.1261 140.072 87.1131 139.135C87.1261 138.197 86.8592 137.364 86.3123 136.635C85.7655 135.906 84.9907 135.339 83.9881 134.936C82.9985 134.532 81.8267 134.33 80.4725 134.33H76.5858V127.455H80.4725C81.6574 127.455 82.6991 127.26 83.5975 126.869C84.509 126.479 85.2186 125.932 85.7264 125.229C86.2342 124.512 86.4816 123.692 86.4686 122.768C86.4816 121.869 86.2668 121.082 85.8241 120.404C85.3944 119.714 84.7889 119.18 84.0077 118.803C83.2394 118.425 82.3475 118.236 81.3319 118.236C80.2642 118.236 79.2941 118.425 78.4217 118.803C77.5623 119.18 76.8787 119.714 76.3709 120.404C75.8631 121.095 75.5962 121.895 75.5702 122.807H66.3319C66.3579 120.424 67.022 118.328 68.3241 116.518C69.6261 114.695 71.397 113.269 73.6366 112.24C75.8892 111.212 78.4543 110.697 81.3319 110.697C84.1965 110.697 86.716 111.199 88.8905 112.201C91.0649 113.204 92.7577 114.571 93.9686 116.303C95.1795 118.022 95.785 119.968 95.785 122.143C95.798 124.395 95.0623 126.251 93.578 127.709C92.1066 129.167 90.2121 130.066 87.8944 130.404V130.717C90.9933 131.082 93.3306 132.084 94.9061 133.725C96.4946 135.365 97.2824 137.416 97.2694 139.877C97.2694 142.195 96.5858 144.252 95.2186 146.049C93.8644 147.833 91.9764 149.239 89.5545 150.268C87.1457 151.283 84.3787 151.791 81.2537 151.791Z" fill="black"/>
<path d="M40.4334 145.463H33.8334V152.063H40.4334V145.463ZM40.4334 117.182V110.582H33.8334V117.182H40.4334ZM48.3045 117.182H54.9045V110.582H48.3045V117.182ZM48.3045 145.463V152.063H54.9045V145.463H48.3045ZM30.2186 135.268H23.6186V141.868H30.2186V135.268ZM30.2186 127.377V120.777H23.6186V127.377H30.2186ZM58.4998 127.377H65.0998V120.777H58.4998V127.377ZM58.4998 135.268V141.868H65.0998V135.268H58.4998ZM47.0334 145.463V117.182H33.8334V145.463H47.0334ZM40.4334 123.782H48.3045V110.582H40.4334V123.782ZM41.7045 117.182V145.463H54.9045V117.182H41.7045ZM48.3045 138.863H40.4334V152.063H48.3045V138.863ZM36.8186 135.268V127.377H23.6186V135.268H36.8186ZM30.2186 133.977H58.4998V120.777H30.2186V133.977ZM51.8998 127.377V135.268H65.0998V127.377H51.8998ZM58.4998 128.668H30.2186V141.868H58.4998V128.668ZM73.1483 150.229L70.4399 156.247L70.46 156.256L70.4801 156.265L73.1483 150.229ZM67.6014 145.873L62.2767 149.773L67.6014 145.873ZM65.5311 139.486V132.886H58.8594L58.9315 139.558L65.5311 139.486ZM75.2577 139.486L81.851 139.191L81.5687 132.886H75.2577V139.486ZM76.0975 141.811L70.8662 145.835L70.8851 145.859L70.9043 145.884L76.0975 141.811ZM78.2264 143.373L75.6692 149.458V149.458L78.2264 143.373ZM84.3202 143.334L87.0916 149.324L87.111 149.315L87.1304 149.306L84.3202 143.334ZM86.3905 141.635L91.8205 145.387L91.8362 145.364L91.8518 145.341L86.3905 141.635ZM87.1131 139.135L80.5138 139.043L80.5125 139.135L80.5138 139.227L87.1131 139.135ZM86.3123 136.635L81.0323 140.595V140.595L86.3123 136.635ZM83.9881 134.936L81.4954 141.047L81.5093 141.053L81.5232 141.058L83.9881 134.936ZM76.5858 134.33H69.9858V140.93H76.5858V134.33ZM76.5858 127.455V120.855H69.9858V127.455H76.5858ZM83.5975 126.869L80.9976 120.803L80.9818 120.81L80.9659 120.817L83.5975 126.869ZM85.7264 125.229L91.0769 129.093L91.0937 129.07L91.1102 129.046L85.7264 125.229ZM86.4686 122.768L79.8693 122.672L79.8679 122.766L79.8692 122.861L86.4686 122.768ZM85.8241 120.404L80.2213 123.893L80.26 123.955L80.3001 124.016L85.8241 120.404ZM84.0077 118.803L81.0963 124.726L81.1159 124.736L81.1355 124.745L84.0077 118.803ZM78.4217 118.803L75.8 112.746L75.7834 112.753L75.7667 112.76L78.4217 118.803ZM76.3709 120.404L81.6868 124.316L81.6868 124.316L76.3709 120.404ZM75.5702 122.807V129.407H81.9843L82.1675 122.995L75.5702 122.807ZM66.3319 122.807L59.7323 122.735L59.6593 129.407H66.3319V122.807ZM68.3241 116.518L73.6816 120.372L73.6882 120.363L73.6947 120.354L68.3241 116.518ZM73.6366 112.24L70.895 106.237L70.8884 106.24L70.8818 106.243L73.6366 112.24ZM88.8905 112.201L86.127 118.195V118.195L88.8905 112.201ZM93.9686 116.303L88.5598 120.085L88.5665 120.095L88.5732 120.104L93.9686 116.303ZM95.785 122.143H89.185V122.162L89.1851 122.181L95.785 122.143ZM93.578 127.709L88.9525 123.001L88.9422 123.011L88.9318 123.022L93.578 127.709ZM87.8944 130.404L86.9404 123.874L81.2944 124.698V130.404H87.8944ZM87.8944 130.717H81.2944V136.586L87.1232 137.272L87.8944 130.717ZM94.9061 133.725L90.1457 138.296L90.1551 138.306L90.1645 138.316L94.9061 133.725ZM97.2694 139.877L90.6695 139.842L90.6694 139.86V139.877H97.2694ZM95.2186 146.049L89.9661 142.053L89.9617 142.058L95.2186 146.049ZM89.5545 150.268L92.1186 156.349L92.1267 156.346L92.1347 156.342L89.5545 150.268ZM81.2537 145.191C78.9604 145.191 77.1936 144.801 75.8164 144.192L70.4801 156.265C73.8165 157.74 77.4534 158.391 81.2537 158.391V145.191ZM75.8567 144.21C74.4246 143.566 73.5271 142.794 72.9261 141.973L62.2767 149.773C64.384 152.65 67.1844 154.782 70.4399 156.247L75.8567 144.21ZM72.9261 141.973C72.4293 141.295 72.1427 140.521 72.1307 139.415L58.9315 139.558C58.9716 143.27 60.0652 146.753 62.2767 149.773L72.9261 141.973ZM65.5311 146.086H75.2577V132.886H65.5311V146.086ZM68.6643 139.782C68.7625 141.975 69.5 144.059 70.8662 145.835L81.3288 137.787C81.4681 137.968 81.6042 138.202 81.7041 138.479C81.8036 138.754 81.8426 139.002 81.851 139.191L68.6643 139.782ZM70.9043 145.884C72.2191 147.56 73.897 148.713 75.6692 149.458L80.7836 137.289C80.7618 137.28 80.8207 137.302 80.9255 137.379C81.0339 137.458 81.1649 137.577 81.2907 137.738L70.9043 145.884ZM75.6692 149.458C77.5065 150.23 79.4208 150.54 81.2928 150.54V137.34C80.8731 137.34 80.7431 137.272 80.7836 137.289L75.6692 149.458ZM81.2928 150.54C83.2144 150.54 85.1998 150.199 87.0916 149.324L81.5487 137.344C81.6161 137.313 81.6453 137.31 81.6147 137.316C81.5811 137.323 81.4794 137.34 81.2928 137.34V150.54ZM87.1304 149.306C88.936 148.456 90.5844 147.176 91.8205 145.387L80.9604 137.883C81.0714 137.723 81.1968 137.592 81.3146 137.495C81.429 137.401 81.5062 137.364 81.5099 137.362L87.1304 149.306ZM91.8518 145.341C93.1559 143.419 93.743 141.242 93.7125 139.043L80.5138 139.227C80.512 139.097 80.5275 138.887 80.6018 138.63C80.6772 138.37 80.7931 138.129 80.9291 137.929L91.8518 145.341ZM93.7125 139.227C93.7451 136.875 93.0416 134.607 91.5923 132.675L81.0323 140.595C80.8831 140.396 80.7374 140.133 80.6373 139.82C80.5378 139.51 80.5111 139.237 80.5138 139.043L93.7125 139.227ZM91.5923 132.675C90.1976 130.815 88.3642 129.583 86.453 128.813L81.5232 141.058C81.5794 141.081 81.532 141.069 81.4259 140.991C81.3146 140.91 81.1706 140.779 81.0323 140.595L91.5923 132.675ZM86.4808 128.824C84.5194 128.024 82.4621 127.73 80.4725 127.73V140.93C81.1913 140.93 81.4777 141.04 81.4954 141.047L86.4808 128.824ZM80.4725 127.73H76.5858V140.93H80.4725V127.73ZM83.1858 134.33V127.455H69.9858V134.33H83.1858ZM76.5858 134.055H80.4725V120.855H76.5858V134.055ZM80.4725 134.055C82.3773 134.055 84.3455 133.741 86.2291 132.922L80.9659 120.817C81.0526 120.779 80.9375 120.855 80.4725 120.855V134.055ZM86.1974 132.936C88.0477 132.143 89.773 130.898 91.0769 129.093L80.3759 121.364C80.5067 121.183 80.6521 121.04 80.7846 120.938C80.8478 120.89 80.9011 120.856 80.9391 120.834C80.9769 120.812 80.998 120.803 80.9976 120.803L86.1974 132.936ZM91.1102 129.046C92.4722 127.125 93.0996 124.919 93.0679 122.675L79.8692 122.861C79.867 122.7 79.8874 122.458 79.9739 122.171C80.0615 121.88 80.1937 121.621 80.3426 121.411L91.1102 129.046ZM93.0679 122.863C93.0978 120.801 92.5893 118.691 91.3481 116.793L80.3001 124.016C80.1405 123.772 80.0221 123.505 79.9498 123.24C79.879 122.98 79.8677 122.78 79.8693 122.672L93.0679 122.863ZM91.4268 116.916C90.2923 115.094 88.7059 113.743 86.8798 112.861L81.1355 124.745C81.0261 124.692 80.8626 124.596 80.6828 124.437C80.5005 124.276 80.3433 124.089 80.2213 123.893L91.4268 116.916ZM86.919 112.88C85.091 111.981 83.1702 111.636 81.3319 111.636V124.836C81.4316 124.836 81.4467 124.846 81.3957 124.835C81.3413 124.823 81.2337 124.794 81.0963 124.726L86.919 112.88ZM81.3319 111.636C79.4735 111.636 77.5963 111.968 75.8 112.746L81.0434 124.86C81.0256 124.868 81.0284 124.864 81.0645 124.856C81.1023 124.849 81.1877 124.836 81.3319 124.836V111.636ZM75.7667 112.76C73.9531 113.557 72.3122 114.784 71.055 116.493L81.6868 124.316C81.5793 124.462 81.4539 124.589 81.3268 124.688C81.2024 124.785 81.1083 124.831 81.0767 124.845L75.7667 112.76ZM71.055 116.493C69.6989 118.336 69.0346 120.455 68.9728 122.618L82.1675 122.995C82.1635 123.134 82.1378 123.35 82.0512 123.61C81.9634 123.873 81.8351 124.115 81.6868 124.316L71.055 116.493ZM75.5702 116.207H66.3319V129.407H75.5702V116.207ZM72.9315 122.879C72.9437 121.756 73.2287 121.002 73.6816 120.372L62.9665 112.663C60.8152 115.654 59.7721 119.092 59.7323 122.735L72.9315 122.879ZM73.6947 120.354C74.2626 119.559 75.0897 118.836 76.3913 118.238L70.8818 106.243C67.7043 107.702 64.9897 109.831 62.9534 112.682L73.6947 120.354ZM76.3781 118.244C77.6416 117.667 79.248 117.297 81.3319 117.297V104.097C77.6605 104.097 74.1367 104.756 70.895 106.237L76.3781 118.244ZM81.3319 117.297C83.4269 117.297 84.9723 117.662 86.127 118.195L91.654 106.208C88.4597 104.735 84.966 104.097 81.3319 104.097V117.297ZM86.127 118.195C87.3835 118.774 88.1045 119.434 88.5598 120.085L99.3774 112.521C97.4108 109.708 94.7464 107.634 91.654 106.208L86.127 118.195ZM88.5732 120.104C88.9722 120.67 89.185 121.28 89.185 122.143H102.385C102.385 118.657 101.387 115.373 99.364 112.502L88.5732 120.104ZM89.1851 122.181C89.1874 122.57 89.1262 122.744 89.1077 122.791C89.0934 122.827 89.0668 122.889 88.9525 123.001L98.2034 132.417C101.072 129.599 102.407 125.978 102.385 122.105L89.1851 122.181ZM88.9318 123.022C88.5913 123.359 88.0527 123.711 86.9404 123.874L88.8483 136.935C92.3714 136.421 95.6219 134.976 98.2241 132.397L88.9318 123.022ZM81.2944 130.404V130.717H94.4944V130.404H81.2944ZM87.1232 137.272C89.2646 137.524 89.9648 138.108 90.1457 138.296L99.6665 129.153C96.6964 126.06 92.7221 124.639 88.6655 124.162L87.1232 137.272ZM90.1645 138.316C90.4538 138.615 90.6741 138.959 90.6695 139.842L103.869 139.912C103.891 135.873 102.535 132.116 99.6477 129.134L90.1645 138.316ZM90.6694 139.877C90.6694 140.792 90.4345 141.437 89.9661 142.053L100.471 150.045C102.737 147.067 103.869 143.597 103.869 139.877H90.6694ZM89.9617 142.058C89.4159 142.777 88.524 143.535 86.9744 144.193L92.1347 156.342C95.4288 154.943 98.3129 152.888 100.475 150.04L89.9617 142.058ZM86.9904 144.186C85.5353 144.8 83.6667 145.191 81.2537 145.191V158.391C85.0908 158.391 88.756 157.767 92.1186 156.349L86.9904 144.186Z" fill="#FAEAD3" mask="url(#path-2-outside-1_143_82)"/>
</svg>
