<svg width="88" height="206" viewBox="0 0 88 206" fill="none" xmlns="http://www.w3.org/2000/svg">
<path d="M60.0618 2.64429H42.6665C37.9721 2.64429 34.1665 6.44987 34.1665 11.1443V14.1443C34.1665 18.8387 37.9721 22.6443 42.6665 22.6443H60.0618C60.8566 22.6443 61.6277 22.9148 62.2483 23.4112L71.1221 30.5104C74.6751 33.3528 79.8492 32.8302 82.7621 29.3347C85.7585 25.739 85.2176 20.3836 81.5627 17.4597L65.3717 4.5069C63.8646 3.30117 61.9919 2.64429 60.0618 2.64429Z" fill="black" stroke="#FAEAD3" stroke-width="5"/>
<path d="M52.6665 5.14429V2.64429H50.1665H35.1665H34.7608L34.3759 2.77258L25.3759 5.77258L23.6665 6.34239V8.14429V17.1443V18.9462L25.3759 19.516L32.6665 21.9462V197.144C32.6665 200.182 35.1289 202.644 38.1665 202.644H47.1665C50.2041 202.644 52.6665 200.182 52.6665 197.144V5.14429Z" fill="black" stroke="#FAEAD3" stroke-width="5"/>
<path d="M9.6665 2.64429H7.1665V5.14429V20.1443V22.6443H9.6665H17.1665H17.7567L18.2845 22.3804L24.2845 19.3804L25.6665 18.6894V17.1443V8.14429V6.5992L24.2845 5.90822L18.2845 2.90822L17.7567 2.64429H17.1665H9.6665Z" fill="black" stroke="#FAEAD3" stroke-width="5"/>
<path d="M29.1665 18.1443L26.1665 17.1443V8.14429L29.1665 7.14429V18.1443Z" fill="black"/>
<rect x="11.1665" y="8.14429" width="15" height="9" fill="black"/>
<path d="M35.1665 5.14429H56.6665V20.1443H35.1665V5.14429Z" fill="black"/>
<mask id="path-7-outside-1_143_78" maskUnits="userSpaceOnUse" x="5.6665" y="88.1443" width="69" height="54" fill="black">
<rect fill="white" x="5.6665" y="88.1443" width="69" height="54"/>
<path d="M23.3924 129.363V101.082H31.2635V129.363H23.3924ZM13.1776 119.168V111.277H41.4588V119.168H13.1776ZM67.6551 95.1443V135.144H58.0067V104.168H57.7723L48.827 109.636V101.277L58.6903 95.1443H67.6551Z"/>
</mask>
<path d="M23.3924 129.363V101.082H31.2635V129.363H23.3924ZM13.1776 119.168V111.277H41.4588V119.168H13.1776ZM67.6551 95.1443V135.144H58.0067V104.168H57.7723L48.827 109.636V101.277L58.6903 95.1443H67.6551Z" fill="black"/>
<path d="M23.3924 129.363H16.7924V135.963H23.3924V129.363ZM23.3924 101.082V94.4818H16.7924V101.082H23.3924ZM31.2635 101.082H37.8635V94.4818H31.2635V101.082ZM31.2635 129.363V135.963H37.8635V129.363H31.2635ZM13.1776 119.168H6.57757V125.768H13.1776V119.168ZM13.1776 111.277V104.677H6.57757V111.277H13.1776ZM41.4588 111.277H48.0588V104.677H41.4588V111.277ZM41.4588 119.168V125.768H48.0588V119.168H41.4588ZM29.9924 129.363V101.082H16.7924V129.363H29.9924ZM23.3924 107.682H31.2635V94.4818H23.3924V107.682ZM24.6635 101.082V129.363H37.8635V101.082H24.6635ZM31.2635 122.763H23.3924V135.963H31.2635V122.763ZM19.7776 119.168V111.277H6.57757V119.168H19.7776ZM13.1776 117.877H41.4588V104.677H13.1776V117.877ZM34.8588 111.277V119.168H48.0588V111.277H34.8588ZM41.4588 112.568H13.1776V125.768H41.4588V112.568ZM67.6551 95.1443H74.2551V88.5443H67.6551V95.1443ZM67.6551 135.144V141.744H74.2551V135.144H67.6551ZM58.0067 135.144H51.4067V141.744H58.0067V135.144ZM58.0067 104.168H64.6067V97.5677H58.0067V104.168ZM57.7723 104.168V97.5677H55.9147L54.3297 98.5367L57.7723 104.168ZM48.827 109.636H42.227V121.407L52.2696 115.268L48.827 109.636ZM48.827 101.277L45.342 95.6722L42.227 97.6091V101.277H48.827ZM58.6903 95.1443V88.5443H56.8057L55.2053 89.5394L58.6903 95.1443ZM61.0551 95.1443V135.144H74.2551V95.1443H61.0551ZM67.6551 128.544H58.0067V141.744H67.6551V128.544ZM64.6067 135.144V104.168H51.4067V135.144H64.6067ZM58.0067 97.5677H57.7723V110.768H58.0067V97.5677ZM54.3297 98.5367L45.3844 104.005L52.2696 115.268L61.2149 109.799L54.3297 98.5367ZM55.427 109.636V101.277H42.227V109.636H55.427ZM52.312 106.882L62.1753 100.749L55.2053 89.5394L45.342 95.6722L52.312 106.882ZM58.6903 101.744H67.6551V88.5443H58.6903V101.744Z" fill="#FAEAD3" mask="url(#path-7-outside-1_143_78)"/>
</svg>
