<svg width="135" height="199" viewBox="0 0 135 199" fill="none" xmlns="http://www.w3.org/2000/svg">
<path d="M88.344 73.6867L90.0602 73.1025L91.5274 74.1673L129.571 101.776L131.015 102.824V104.609V165.478V167.775L128.908 168.689L71.2998 193.689L69.3729 194.525L67.7286 193.218L25.3373 159.523L24.0151 158.472V156.783V98.0871V95.5812L26.3874 94.7737L88.344 73.6867Z" fill="black" stroke="#FAEAD3" stroke-width="7"/>
<path d="M56.6771 36.5062C58.899 39.7413 60.8975 44.1409 62.8282 49.7977H41.2374H32.7876L38.7625 55.7726L72.0958 89.1059L74.6239 91.634L77.0976 89.0527L109.042 55.7194L114.717 49.7977H106.515H84.2517C81.1908 37.7288 77.7512 27.5661 73.6281 19.906C69.2382 11.7504 63.7249 5.79415 56.4506 4.028C49.1266 2.24978 41.2326 5.00474 32.7956 11.3467C24.3213 17.7166 14.7292 28.1172 3.71091 42.87L8.55984 47.805C18.375 40.74 26.3105 35.8661 32.8185 32.9617C39.3586 30.043 44.089 29.2814 47.6557 29.9272C51.0623 30.544 53.9595 32.5493 56.6771 36.5062Z" fill="black" stroke="#FAEAD3" stroke-width="7"/>
<path d="M76.5151 81.5L49.5151 90.5L57.0151 100.5L89.0151 114.5L100.515 85L84.0151 73L76.5151 81.5Z" fill="black"/>
<path d="M54.0003 147.744V122.034H61.1558V147.744H54.0003ZM44.714 138.476V131.303H70.4243V138.476H44.714ZM91.1096 153.497C88.3397 153.497 85.8835 153.024 83.741 152.077C81.6103 151.118 79.9295 149.798 78.6984 148.117C77.4673 146.436 76.84 144.501 76.8163 142.311H85.6586C85.6941 143.104 85.9486 143.808 86.4221 144.424C86.8956 145.028 87.5407 145.501 88.3575 145.844C89.1743 146.188 90.1035 146.359 91.1451 146.359C92.1868 146.359 93.1042 146.176 93.8973 145.809C94.7022 145.43 95.3296 144.915 95.7794 144.264C96.2292 143.601 96.4482 142.844 96.4363 141.991C96.4482 141.139 96.2055 140.382 95.7083 139.719C95.2112 139.056 94.5069 138.541 93.5954 138.174C92.6958 137.807 91.6305 137.624 90.3994 137.624H86.866V131.374H90.3994C91.4766 131.374 92.4235 131.196 93.2403 130.841C94.0689 130.486 94.714 129.989 95.1757 129.349C95.6373 128.698 95.8622 127.953 95.8504 127.112C95.8622 126.295 95.6669 125.579 95.2645 124.964C94.8738 124.336 94.3234 123.851 93.6132 123.508C92.9148 123.165 92.1039 122.993 91.1807 122.993C90.21 122.993 89.3281 123.165 88.5351 123.508C87.7538 123.851 87.1324 124.336 86.6707 124.964C86.2091 125.591 85.9664 126.319 85.9427 127.148H77.5443C77.568 124.982 78.1717 123.076 79.3554 121.43C80.5391 119.773 82.1489 118.477 84.1849 117.542C86.2327 116.607 88.5646 116.139 91.1807 116.139C93.7848 116.139 96.0753 116.595 98.0521 117.506C100.029 118.418 101.568 119.661 102.669 121.235C103.769 122.798 104.32 124.567 104.32 126.544C104.332 128.592 103.663 130.279 102.313 131.604C100.976 132.93 99.2536 133.747 97.1466 134.055V134.339C99.9638 134.67 102.089 135.582 103.521 137.073C104.965 138.565 105.681 140.429 105.669 142.666C105.669 144.773 105.048 146.643 103.805 148.277C102.574 149.899 100.857 151.177 98.6558 152.112C96.4659 153.036 93.9505 153.497 91.1096 153.497Z" fill="#F7F3F4"/>
</svg>
