<svg width="85" height="240" viewBox="0 0 85 240" fill="none" xmlns="http://www.w3.org/2000/svg">
<path d="M35 60.1443H32.5V62.6443V223.144V224.049L33.0794 224.745L40.5794 233.745L42.5 236.049L44.4206 233.745L51.9206 224.745L52.5 224.049V223.144V62.6443V60.1443H50H35Z" fill="black" stroke="#FAEAD3" stroke-width="5"/>
<path d="M37.5 62.6443V60.1443H35H8C4.96243 60.1443 2.5 62.6067 2.5 65.6443V71.6443C2.5 74.6819 4.96244 77.1443 8 77.1443H35H37.5V74.6443V62.6443Z" fill="black" stroke="#FAEAD3" stroke-width="5"/>
<path d="M50 60.1443H47.5V62.6443V74.6443V77.1443H50H77C80.0376 77.1443 82.5 74.6819 82.5 71.6443V65.6443C82.5 62.6067 80.0376 60.1443 77 60.1443H50Z" fill="black" stroke="#FAEAD3" stroke-width="5"/>
<rect x="35.5" y="12.2509" width="14" height="53" fill="black" stroke="#FAEAD3" stroke-width="5"/>
<rect x="28.4645" y="14.7509" width="20" height="20" rx="5.5" transform="rotate(-45 28.4645 14.7509)" fill="black" stroke="#FAEAD3" stroke-width="5"/>
<path d="M32 62.6443H38H47H55V74.6443H32V62.6443Z" fill="black"/>
<path d="M35 73.1443H50V82.1443H35V73.1443Z" fill="black"/>
<path d="M38 18.1443V62.6443H47V18.1443H38Z" fill="black"/>
<rect x="35" y="218.144" width="15" height="5" fill="black"/>
<mask id="path-8-outside-1_143_80" maskUnits="userSpaceOnUse" x="7" y="114.144" width="69" height="54" fill="black">
<rect fill="white" x="7" y="114.144" width="69" height="54"/>
<path d="M24.7259 155.363V127.082H32.597V155.363H24.7259ZM14.5111 145.168V137.277H42.7923V145.168H14.5111ZM68.9886 121.144V161.144H59.3402V130.168H59.1058L50.1605 135.636V127.277L60.0238 121.144H68.9886Z"/>
</mask>
<path d="M24.7259 155.363V127.082H32.597V155.363H24.7259ZM14.5111 145.168V137.277H42.7923V145.168H14.5111ZM68.9886 121.144V161.144H59.3402V130.168H59.1058L50.1605 135.636V127.277L60.0238 121.144H68.9886Z" fill="black"/>
<path d="M24.7259 155.363H18.1259V161.963H24.7259V155.363ZM24.7259 127.082V120.482H18.1259V127.082H24.7259ZM32.597 127.082H39.197V120.482H32.597V127.082ZM32.597 155.363V161.963H39.197V155.363H32.597ZM14.5111 145.168H7.91107V151.768H14.5111V145.168ZM14.5111 137.277V130.677H7.91107V137.277H14.5111ZM42.7923 137.277H49.3923V130.677H42.7923V137.277ZM42.7923 145.168V151.768H49.3923V145.168H42.7923ZM31.3259 155.363V127.082H18.1259V155.363H31.3259ZM24.7259 133.682H32.597V120.482H24.7259V133.682ZM25.997 127.082V155.363H39.197V127.082H25.997ZM32.597 148.763H24.7259V161.963H32.597V148.763ZM21.1111 145.168V137.277H7.91107V145.168H21.1111ZM14.5111 143.877H42.7923V130.677H14.5111V143.877ZM36.1923 137.277V145.168H49.3923V137.277H36.1923ZM42.7923 138.568H14.5111V151.768H42.7923V138.568ZM68.9886 121.144H75.5886V114.544H68.9886V121.144ZM68.9886 161.144V167.744H75.5886V161.144H68.9886ZM59.3402 161.144H52.7402V167.744H59.3402V161.144ZM59.3402 130.168H65.9402V123.568H59.3402V130.168ZM59.1058 130.168V123.568H57.2482L55.6632 124.537L59.1058 130.168ZM50.1605 135.636H43.5605V147.407L53.6031 141.268L50.1605 135.636ZM50.1605 127.277L46.6755 121.672L43.5605 123.609V127.277H50.1605ZM60.0238 121.144V114.544H58.1392L56.5388 115.539L60.0238 121.144ZM62.3886 121.144V161.144H75.5886V121.144H62.3886ZM68.9886 154.544H59.3402V167.744H68.9886V154.544ZM65.9402 161.144V130.168H52.7402V161.144H65.9402ZM59.3402 123.568H59.1058V136.768H59.3402V123.568ZM55.6632 124.537L46.7179 130.005L53.6031 141.268L62.5484 135.799L55.6632 124.537ZM56.7605 135.636V127.277H43.5605V135.636H56.7605ZM53.6455 132.882L63.5088 126.749L56.5388 115.539L46.6755 121.672L53.6455 132.882ZM60.0238 127.744H68.9886V114.544H60.0238V127.744Z" fill="#FAEAD3" mask="url(#path-8-outside-1_143_80)"/>
</svg>
