<svg width="380" height="380" viewBox="0 0 380 380" fill="none" xmlns="http://www.w3.org/2000/svg">
<rect width="380" height="380" rx="25" fill="#9C915A"/>
<rect x="38" y="42" width="305" height="305" rx="20" fill="#9F984E" stroke="#9D9B88" stroke-width="10"/>
<path d="M126 276L124.501 277.124L125.159 278.878L126.659 282.878L127.267 284.5H129H227.5H228.75L229.5 283.5L233.893 277.642L239.188 272.348L245.083 267.435L245.1 267.421L250.583 262.935L250.873 262.698L251.08 262.387L254.08 257.887L254.166 257.757L254.236 257.618L256.236 253.618L256.699 252.692L256.372 251.709L255.372 248.709L255.005 247.609L253.928 247.179L251.428 246.179L250.711 245.892L249.958 246.06L245.458 247.06L245.332 247.088L245.209 247.128L234.801 250.598L217.019 255.043L199.646 257.525L199.634 257.527L186.186 259.519L177.076 260.478L172.201 259.666L171.5 258.964V258.333L172.354 257.195L177.161 252.869L177.172 252.858L186.161 244.869L186.191 244.842L186.219 244.815L195.719 235.815L195.792 235.746L195.858 235.672L204.858 225.672L213.858 215.672L213.925 215.598L213.986 215.519L220.486 207.019L220.504 206.995L220.522 206.97L228.522 195.97L228.57 195.904L228.614 195.835L234.614 186.335L234.665 186.254L234.709 186.17L239.209 177.67L239.245 177.603L239.276 177.535L244.276 166.535L244.314 166.451L244.346 166.364L247.846 156.864L247.904 156.706L247.94 156.542L249.94 147.542L250 147.274V147V139.5V139.417L249.994 139.334L249.494 131.834L249.469 131.456L249.333 131.103L246.833 124.603L246.802 124.521L246.765 124.443L243.265 116.943L243.156 116.708L243 116.5L237 108.5L236.777 108.203L236.478 107.984L228.978 102.484L228.786 102.343L228.57 102.241L219.07 97.7407L218.916 97.6675L218.753 97.616L209.253 94.616L209.075 94.5597L208.89 94.5306L199.39 93.0306L199.261 93.0103L199.131 93.0035L189.631 92.5035L189.511 92.4971L189.391 92.5024L177.891 93.0024L177.689 93.0112L177.49 93.0525L165.49 95.5525L165.275 95.5973L165.072 95.6788L155.072 99.6788L154.924 99.7377L154.786 99.8146L145.786 104.815L145.612 104.911L145.455 105.034L138.455 110.534L138.338 110.627L138.232 110.732L132.232 116.732L132.127 116.838L132.034 116.955L126.534 123.955L126.451 124.061L126.38 124.175L123.88 128.175L123.396 128.949L123.525 129.854L124.025 133.354L124.183 134.46L125.113 135.08L129.613 138.08L130.119 138.418L130.724 138.485L135.224 138.985L136.017 139.073L136.714 138.685L141.214 136.185L142.197 135.64L142.44 134.542L143.334 130.52L147.337 124.738L151.535 121.473L155.927 118.057L162.104 114.256L169.816 111.364L178.885 108.5H189.078L199.851 112.247L209.249 118.826L215.271 126.7L219.021 137.483L219.493 146.924L218.529 155.599L217.067 162.424L213.61 175.757L209.721 186.451L203.369 197.69L196.504 207.988L187.614 218.359L180.177 226.787L171.732 235.232L163.772 243.192L152.318 253.65L152.314 253.654L141.353 263.618L131.944 271.542L126 276Z" fill="black" stroke="#C6C69C" stroke-width="5"/>
</svg>
