<svg width="380" height="380" viewBox="0 0 380 380" fill="none" xmlns="http://www.w3.org/2000/svg">
<rect width="380" height="380" rx="25" fill="#9C915A"/>
<rect x="38" y="42" width="305" height="305" rx="20" fill="#9F984E" stroke="#9D9B88" stroke-width="10"/>
<path d="M149.772 113.193L149.709 113.254L149.65 113.318L141.039 122.79C140.022 123.909 139.099 125.11 138.28 126.38L131.056 137.576C129.846 139.453 128.868 141.47 128.145 143.583L122.635 159.691L122.597 159.799L122.57 159.911L119.274 173.508C118.76 175.629 118.5 177.804 118.5 179.987V206.828C118.5 208.782 118.708 210.73 119.121 212.64L121.565 212.111L119.121 212.64L122.556 228.528L122.583 228.65L122.621 228.768L126.81 241.756C127.403 243.593 128.187 245.362 129.15 247.035L135.684 258.382L137.784 257.173L135.684 258.382C136.888 260.474 138.363 262.399 140.07 264.106L147.749 271.784C149.199 273.234 150.806 274.518 152.542 275.61L160.136 280.392C162.708 282.011 165.531 283.193 168.49 283.889L178.603 286.269C180.667 286.755 182.781 287 184.902 287H194.753C198.203 287 201.623 286.351 204.833 285.086L214.336 281.342C216.223 280.599 218.021 279.65 219.698 278.512L228.49 272.546C230.616 271.103 232.53 269.369 234.175 267.395L240.308 260.035C241.488 258.62 242.522 257.09 243.395 255.468L249.201 244.685L249.275 244.548L249.331 244.402L254.616 230.751C255.14 229.398 255.556 228.005 255.86 226.586L258.445 214.524L258.464 214.434L258.476 214.344L260.542 199.47C260.859 197.187 260.888 194.872 260.628 192.582L258.484 173.718L258.477 173.659L258.468 173.6L255.468 155.1L255.456 155.025L255.439 154.951L251.754 138.574C251.16 135.932 250.178 133.392 248.841 131.036L242.189 119.316C240.721 116.73 238.844 114.399 236.63 112.414L228.158 104.819C225.98 102.866 223.504 101.273 220.823 100.1L212.615 96.5089C209.623 95.1999 206.421 94.4343 203.161 94.248L193.074 93.6716C190.932 93.5492 188.783 93.6778 186.67 94.055L178.323 95.5457C176.303 95.9063 174.331 96.4916 172.442 97.2908L166.251 99.9102C163.178 101.21 160.368 103.058 157.957 105.364L149.772 113.193ZM163.643 121.024C165.234 119.354 167.072 117.938 169.093 116.827L170.078 116.285C173.4 114.458 177.13 113.5 180.921 113.5H185.66C190.254 113.5 194.737 114.906 198.509 117.53L201.18 119.388C202.611 120.383 203.921 121.541 205.084 122.839L214.181 132.985C215.351 134.291 216.365 135.729 217.202 137.27L224.331 150.402L226.528 149.21L224.331 150.402C224.913 151.475 225.407 152.593 225.808 153.745L232.41 172.727C232.846 173.981 233.171 175.271 233.38 176.583L236.221 194.441C236.407 195.61 236.5 196.792 236.5 197.976V214.756C236.5 216.397 236.32 218.034 235.964 219.637L232.271 236.257C231.846 238.169 231.173 240.018 230.269 241.756L227.329 247.41C226.11 249.754 224.488 251.864 222.538 253.646L219.772 256.171C216.566 259.098 212.582 261.035 208.3 261.749L202.284 262.752C199.492 263.217 196.637 263.151 193.87 262.558L189.094 261.535C186.376 260.952 183.788 259.871 181.464 258.345L172.526 252.48C170.644 251.245 168.958 249.734 167.524 247.999L162.78 242.255C161.376 240.556 160.229 238.66 159.377 236.627L154.346 224.63L149.503 209.66C149.129 208.504 148.849 207.32 148.666 206.119L145.756 186.994C145.586 185.873 145.5 184.742 145.5 183.609V166.171C145.5 164.871 145.613 163.573 145.837 162.292L148.385 147.733C148.73 145.761 149.337 143.843 150.189 142.031L155.038 131.729C156.066 129.544 157.438 127.54 159.103 125.792L163.643 121.024Z" fill="black" stroke="#C6C69C" stroke-width="5"/>
</svg>
