<svg width="380" height="380" viewBox="0 0 380 380" fill="none" xmlns="http://www.w3.org/2000/svg">
<rect width="380" height="380" rx="25" fill="#9C915A"/>
<rect x="38" y="42" width="305" height="305" rx="20" fill="#9F984E" stroke="#9D9B88" stroke-width="10"/>
<path d="M132.538 126.308L133 126.5H133.5H142H143.386L144.12 125.325L146.62 121.325L148.902 117.674L153.817 113.653L161.255 110.399L170.748 108.5H184.715L197.172 111.375L207.233 116.165L214.87 121.556L217.5 129.885V136.41L213.965 143.479L206.966 150.012L198.056 155.639L188.752 157.5H176.5H174V160V172.5V175H176.5H182.351L194.172 176.419L203.483 182.005L211.638 189.681L217.855 197.811L222.67 207.923L226.534 219.995L227.491 231L226.526 242.098L223.646 254.094L217.958 264.523L210.873 272.08L200.878 278.743L189.89 282.565L180.628 284.028L170.322 285.5H160.5H151.248L144.272 284.105L139.185 281.792L136.087 279.857L135.372 277.709L135.115 276.938L134.453 276.466L130.953 273.966L130.301 273.5H129.5H126H125.142L124.465 274.027L119.965 277.527L119.842 277.622L119.732 277.732L118.232 279.232L117.5 279.964V281V283V284.202L118.438 284.952L120.938 286.952L120.969 286.977L121 287L127 291.5L127.18 291.635L127.382 291.736L134.382 295.236L134.562 295.326L134.754 295.386L142.754 297.886L142.891 297.929L143.032 297.956L153.532 299.956L153.764 300H154H166.5H179H179.108L179.217 299.991L190.717 298.991L190.823 298.981L190.928 298.963L202.428 296.963L202.531 296.945L202.631 296.919L214.131 293.919L214.23 293.893L214.326 293.86L224.326 290.36L224.527 290.289L224.714 290.185L233.714 285.185L233.751 285.165L233.786 285.144L241.286 280.644L241.585 280.464L241.824 280.21L249.324 272.21L249.52 272.001L249.664 271.753L255.164 262.253L255.248 262.107L255.312 261.952L258.812 253.452L258.904 253.228L258.951 252.99L260.951 242.99L260.975 242.87L260.988 242.749L261.988 232.749L262 232.625V232.5V221V220.887L261.99 220.774L260.99 209.774L260.955 209.387L260.804 209.03L256.804 199.53L256.784 199.482L256.762 199.436L252.762 190.936L252.647 190.69L252.482 190.476L247.482 183.976L247.383 183.847L247.268 183.732L242.268 178.732L242.126 178.591L241.964 178.473L232.964 171.973L232.799 171.855L232.618 171.764L225.109 168.009L224 166.623V166.036L225.093 164.943L229.387 162.08L238.387 156.08L238.629 155.919L238.828 155.706L245.828 148.206L246.008 148.013L246.144 147.786L250.644 140.286L250.86 139.926L250.946 139.515L252.946 130.015L253.055 129.5L252.946 128.985L250.946 119.485L250.826 118.911L250.462 118.451L242.962 108.951L242.666 108.576L242.253 108.336L232.753 102.836L232.573 102.732L232.378 102.659L220.378 98.1592L220.196 98.0911L220.007 98.0518L205.507 95.0518L205.383 95.0263L205.257 95.0133L190.757 93.5133L190.629 93.5H190.5H175.5H175.387L175.274 93.5103L158.774 95.0103L158.631 95.0233L158.49 95.0525L146.49 97.5525L146.314 97.5892L146.146 97.6505L135.146 101.651L134.93 101.729L134.732 101.845L126.232 106.845L125.958 107.007L125.732 107.232L120.732 112.232L120 112.964V114V118V119.302L121.066 120.048L126.066 123.548L126.288 123.703L126.538 123.808L132.538 126.308Z" fill="black" stroke="#C6C69C" stroke-width="5"/>
</svg>
