<svg width="380" height="380" viewBox="0 0 380 380" fill="none" xmlns="http://www.w3.org/2000/svg">
<rect width="380" height="380" rx="25" fill="#9C915A"/>
<rect x="38" y="42" width="305" height="305" rx="20" fill="#9F984E" stroke="#9D9B88" stroke-width="10"/>
<path d="M173.369 141.661L173.43 141.592L173.486 141.519L179.885 133.15L183.503 129.532C183.844 129.191 184.306 129 184.788 129C185.59 129 186.298 129.526 186.528 130.295L186.835 131.319C186.937 131.656 186.982 132.007 186.971 132.358L185.502 177.886L183.004 220.353L183.004 220.365L183.003 220.377L181.005 260.837L179.603 278.13C179.518 279.175 179.605 280.226 179.859 281.243L180.151 282.411C180.583 284.14 181.684 285.626 183.212 286.543L184.498 284.399L183.212 286.543C184.256 287.169 185.451 287.5 186.668 287.5H204.924C206.995 287.5 208.955 286.558 210.249 284.94C210.977 284.031 211.459 282.95 211.651 281.801L211.795 280.935C211.945 280.035 211.974 279.118 211.88 278.21L210.495 264.821L209.499 239.928L209.498 239.9L208.499 205.428L208.498 205.398L208.497 205.369L207.5 186.434V166.5V147.122L209.488 126.743L209.49 126.725L209.491 126.708L210.865 110.226C210.961 109.071 210.957 107.91 210.852 106.757L208.362 106.983L210.852 106.757L210.756 105.702C210.547 103.4 209.82 101.175 208.631 99.1924L208.33 98.6902C207.358 97.0714 206.04 95.6885 204.469 94.6414L203.082 96.7215L204.469 94.6414L204.263 94.504C202.303 93.1973 200 92.5 197.644 92.5C195.062 92.5 192.55 93.3374 190.485 94.8865L190.021 95.2345C189.191 95.857 188.434 96.572 187.766 97.3656L180.588 105.89L180.482 106.015L180.394 106.152L172.454 118.559L165.332 127.776C164.547 128.791 163.677 129.738 162.732 130.605L159.117 133.918C158.712 134.289 158.269 134.615 157.796 134.892L154.195 136.992C152.526 137.966 151.5 139.752 151.5 141.684C151.5 143.235 152.163 144.712 153.323 145.743L154.776 147.035C156.563 148.623 158.87 149.5 161.26 149.5H161.35C163.224 149.5 165.059 148.974 166.648 147.981L167.489 147.455C168.577 146.775 169.563 145.943 170.415 144.984L173.369 141.661Z" fill="black" stroke="#C6C69C" stroke-width="5"/>
</svg>
