<svg width="450" height="450" viewBox="0 0 450 450" fill="none" xmlns="http://www.w3.org/2000/svg">
<path d="M4.33012 232.5C1.65063 227.859 1.65064 222.141 4.33013 217.5L108.17 37.6443C110.849 33.0033 115.801 30.1443 121.16 30.1443H328.84C334.199 30.1443 339.151 33.0033 341.83 37.6443L445.67 217.5C448.349 222.141 448.349 227.859 445.67 232.5L341.83 412.356C339.151 416.997 334.199 419.856 328.84 419.856H121.16C115.801 419.856 110.849 416.997 108.17 412.356L4.33012 232.5Z" fill="#D4D377" stroke="black" stroke-width="3"/>
<path d="M143.9 47.4874L214.026 47.838C215.763 47.8467 217.166 49.2568 217.166 50.9933C217.166 52.0776 216.596 53.0929 215.683 53.7185C209.731 57.7965 206.132 62.3875 204.864 67.2988C203.593 72.2186 204.68 77.3811 207.941 82.5515C209.447 84.9394 212.661 87.5276 215.378 89.4689C217.738 91.155 219.231 93.8064 219.231 96.6778V122.403C219.231 127.05 215.463 130.818 210.816 130.818H143.858C139.211 130.818 135.443 127.05 135.443 122.403V55.9025C135.443 51.2385 139.236 47.4641 143.9 47.4874Z" fill="#868686" fill-opacity="0.6" stroke="black" stroke-width="0.885806"/>
<path d="M143.9 138.357L214.026 138.707C215.763 138.716 217.166 140.126 217.166 141.862C217.166 142.947 216.596 143.962 215.683 144.588C209.731 148.666 206.132 153.257 204.864 158.168C203.593 163.088 204.68 168.25 207.941 173.421C209.447 175.809 212.661 178.397 215.378 180.338C217.738 182.024 219.231 184.675 219.231 187.547V213.272C219.231 217.92 215.463 221.687 210.816 221.687H143.858C139.211 221.687 135.443 217.92 135.443 213.272V146.772C135.443 142.108 139.236 138.333 143.9 138.357Z" fill="#868686" fill-opacity="0.6" stroke="black" stroke-width="0.885806"/>
<path d="M143.9 228.814L214.026 229.164C215.763 229.173 217.166 230.583 217.166 232.319C217.166 233.404 216.596 234.419 215.683 235.045C209.731 239.123 206.132 243.714 204.864 248.625C203.593 253.545 204.68 258.707 207.941 263.878C209.447 266.266 212.661 268.854 215.378 270.795C217.738 272.481 219.231 275.133 219.231 278.004V303.729C219.231 308.377 215.463 312.144 210.816 312.144H143.858C139.211 312.144 135.443 308.377 135.443 303.729V237.229C135.443 232.565 139.236 228.79 143.9 228.814Z" fill="#868686" fill-opacity="0.6" stroke="black" stroke-width="0.885806"/>
<path d="M143.9 319.27L214.026 319.621C215.763 319.629 217.166 321.04 217.166 322.776C217.166 323.86 216.596 324.876 215.683 325.501C209.731 329.579 206.132 334.17 204.864 339.081C203.593 344.001 204.68 349.164 207.941 354.334C209.447 356.722 212.661 359.31 215.378 361.252C217.738 362.938 219.231 365.589 219.231 368.461V394.186C219.231 398.833 215.463 402.601 210.816 402.601H143.858C139.211 402.601 135.443 398.833 135.443 394.186V327.685C135.443 323.021 139.236 319.247 143.9 319.27Z" fill="#868686" fill-opacity="0.6" stroke="black" stroke-width="0.885806"/>
<path d="M306.601 47.4874L236.475 47.838C234.738 47.8467 233.335 49.2568 233.335 50.9933C233.335 52.0776 233.905 53.0929 234.818 53.7185C240.77 57.7965 244.369 62.3875 245.637 67.2988C246.908 72.2186 245.821 77.3811 242.56 82.5515C241.054 84.9394 237.84 87.5276 235.123 89.4689C232.763 91.155 231.27 93.8064 231.27 96.6778V122.403C231.27 127.05 235.038 130.818 239.685 130.818H306.643C311.29 130.818 315.058 127.05 315.058 122.403V55.9025C315.058 51.2385 311.265 47.4641 306.601 47.4874Z" fill="white" fill-opacity="0.5" stroke="black" stroke-width="0.885806"/>
<path d="M306.6 138.357L236.474 138.708C234.737 138.716 233.334 140.126 233.334 141.863C233.334 142.947 233.904 143.963 234.817 144.588C240.769 148.666 244.368 153.257 245.636 158.168C246.907 163.088 245.82 168.251 242.559 173.421C241.053 175.809 237.839 178.397 235.122 180.339C232.762 182.025 231.269 184.676 231.269 187.547V213.272C231.269 217.92 235.037 221.688 239.684 221.688H306.642C311.289 221.688 315.057 217.92 315.057 213.272V146.772C315.057 142.108 311.264 138.334 306.6 138.357Z" fill="white" fill-opacity="0.5" stroke="black" stroke-width="0.885806"/>
<path d="M306.818 228.487L236.691 228.838C234.955 228.847 233.552 230.257 233.552 231.993C233.552 233.078 234.121 234.093 235.034 234.718C240.987 238.796 244.585 243.387 245.854 248.299C247.125 253.219 246.038 258.381 242.777 263.551C241.271 265.939 238.057 268.528 235.339 270.469C232.98 272.155 231.487 274.806 231.487 277.678V303.403C231.487 308.05 235.254 311.818 239.902 311.818H306.86C311.507 311.818 315.275 308.05 315.275 303.403V236.902C315.275 232.238 311.482 228.464 306.818 228.487Z" fill="white" fill-opacity="0.5" stroke="black" stroke-width="0.885806"/>
<path d="M306.602 319.27L236.476 319.62C234.739 319.629 233.336 321.039 233.336 322.775C233.336 323.86 233.906 324.875 234.819 325.501C240.771 329.579 244.37 334.17 245.638 339.081C246.909 344.001 245.822 349.163 242.561 354.334C241.055 356.722 237.841 359.31 235.124 361.251C232.764 362.937 231.271 365.589 231.271 368.46V394.185C231.271 398.833 235.039 402.6 239.686 402.6H306.644C311.291 402.6 315.059 398.833 315.059 394.185V327.685C315.059 323.021 311.266 319.246 306.602 319.27Z" fill="white" fill-opacity="0.5" stroke="black" stroke-width="0.885806"/>
<path d="M241.054 343.655C241.054 352.474 233.905 359.623 225.086 359.623C216.267 359.623 209.118 352.474 209.118 343.655C209.118 334.836 216.267 327.687 225.086 327.687C233.905 327.687 241.054 334.836 241.054 343.655Z" fill="black" fill-opacity="0.5" stroke="black" stroke-width="1.10726"/>
<path d="M220.556 335.919V352.024H216.663V335.919H220.556ZM226.892 335.919V352.024H222.999V335.919H226.892ZM233.228 335.919V352.024H229.336V335.919H233.228Z" fill="#F7F3F4"/>
<path d="M241.054 252.785C241.054 261.604 233.905 268.754 225.086 268.754C216.267 268.754 209.118 261.604 209.118 252.785C209.118 243.966 216.267 236.817 225.086 236.817C233.905 236.817 241.054 243.966 241.054 252.785Z" fill="black" fill-opacity="0.5" stroke="black" stroke-width="1.10726"/>
<path d="M223.724 245.049V261.155H219.831V245.049H223.724ZM230.06 245.049V261.155H226.168V245.049H230.06Z" fill="#F7F3F4"/>
<path d="M241.054 162.328C241.054 171.147 233.905 178.296 225.086 178.296C216.267 178.296 209.118 171.147 209.118 162.328C209.118 153.509 216.267 146.36 225.086 146.36C233.905 146.36 241.054 153.509 241.054 162.328Z" fill="black" fill-opacity="0.5" stroke="black" stroke-width="1.10726"/>
<path d="M226.892 154.592V170.698H222.999V154.592H226.892Z" fill="#F7F3F4"/>
<path d="M241.054 71.4592C241.054 80.2782 233.905 87.4274 225.086 87.4274C216.267 87.4274 209.118 80.2782 209.118 71.4592C209.118 62.6403 216.267 55.4911 225.086 55.4911C233.905 55.4911 241.054 62.6403 241.054 71.4592Z" fill="black" fill-opacity="0.5" stroke="black" stroke-width="1.10726"/>
<path d="M353 149V267H335H331.29L333.329 270.099L363.329 315.699L365 318.239L366.671 315.699L396.671 270.099L398.71 267H395H377V149V147H375H355H353V149Z" fill="black" stroke="#FAEAD3" stroke-width="4"/>
</svg>
