<svg width="450" height="450" viewBox="0 0 450 450" fill="none" xmlns="http://www.w3.org/2000/svg">
<path d="M4.33012 232.5C1.65063 227.859 1.65064 222.141 4.33013 217.5L108.17 37.6443C110.849 33.0033 115.801 30.1443 121.16 30.1443H328.84C334.199 30.1443 339.151 33.0033 341.83 37.6443L445.67 217.5C448.349 222.141 448.349 227.859 445.67 232.5L341.83 412.356C339.151 416.997 334.199 419.856 328.84 419.856H121.16C115.801 419.856 110.849 416.997 108.17 412.356L4.33012 232.5Z" fill="#D4D377" stroke="black" stroke-width="3"/>
<path d="M50 263C50 258.14 51.2133 253.442 53.4763 249C64.0721 228.2 97.6797 213 137.5 213C177.32 213 210.928 228.2 221.524 249C223.787 253.442 225 258.14 225 263C225 290.614 185.825 313 137.5 313C89.1751 313 50 290.614 50 263Z" fill="#D9D9D9"/>
<path d="M50 263C50 258.14 51.2133 253.442 53.4763 249C64.0721 228.2 97.6797 213 137.5 213C177.32 213 210.928 228.2 221.524 249C223.787 253.442 225 258.14 225 263C225 290.614 185.825 313 137.5 313C89.1751 313 50 290.614 50 263Z" fill="#9E9E9E"/>
<path d="M50 235C50 207.386 89.1751 185 137.5 185C185.825 185 225 207.386 225 235C225 239.86 223.787 244.558 221.524 249C210.928 269.8 177.32 285 137.5 285C97.6797 285 64.0721 269.8 53.4763 249C51.2133 244.558 50 239.86 50 235Z" fill="#D9D9D9"/>
<path d="M50 235C50 207.386 89.1751 185 137.5 185C185.825 185 225 207.386 225 235C225 239.86 223.787 244.558 221.524 249C210.928 269.8 177.32 285 137.5 285C97.6797 285 64.0721 269.8 53.4763 249C51.2133 244.558 50 239.86 50 235Z" fill="#D9D9D9"/>
<path d="M50 263C50 258.14 51.2133 253.442 53.4763 249C51.2133 244.558 50 239.86 50 235V263Z" fill="#9E9E9E"/>
<path d="M221.524 249C223.787 253.442 225 258.14 225 263V249V235C225 239.86 223.787 244.558 221.524 249Z" fill="#9E9E9E"/>
<path d="M74.997 181.061L78.4605 184.586C90.2745 176.082 99.9061 170.156 107.871 166.602C115.859 163.037 121.908 161.977 126.672 162.84C131.321 163.682 135.153 166.432 138.596 171.445C141.679 175.934 144.363 182.119 146.932 190.057H118.667H112.631L116.899 194.325L156.899 234.325L158.705 236.131L160.472 234.287L198.805 194.287L202.858 190.057H197H168.959C165.217 175.061 161.034 162.574 156.039 153.293C150.857 143.666 144.553 137.036 136.521 135.086C128.454 133.127 119.51 136.094 109.558 143.575C99.5794 151.076 88.1824 163.407 74.997 181.061Z" fill="black" stroke="#FAEAD3" stroke-width="5"/>
<path d="M358.5 189.5L390.857 209.214L345.429 227.214L312 204.071L358.5 189.5Z" fill="#B9511E"/>
<path d="M345.429 227.214L390.857 209.214V257.214L345.429 276.928L312 250.357V204.071L345.429 227.214Z" fill="#8B3100"/>
<mask id="path-6-outside-1_365_1299" maskUnits="userSpaceOnUse" x="240" y="200.5" width="63" height="63" fill="black">
<rect fill="white" x="240" y="200.5" width="63" height="63"/>
<path d="M264.34 257.878V206.457H278.651V257.878H264.34ZM245.768 239.341V225.03H297.188V239.341H245.768Z"/>
</mask>
<path d="M264.34 257.878V206.457H278.651V257.878H264.34ZM245.768 239.341V225.03H297.188V239.341H245.768Z" fill="black"/>
<path d="M264.34 257.878H259.34V262.878H264.34V257.878ZM264.34 206.457V201.457H259.34V206.457H264.34ZM278.651 206.457H283.651V201.457H278.651V206.457ZM278.651 257.878V262.878H283.651V257.878H278.651ZM245.768 239.341H240.768V244.341H245.768V239.341ZM245.768 225.03V220.03H240.768V225.03H245.768ZM297.188 225.03H302.188V220.03H297.188V225.03ZM297.188 239.341V244.341H302.188V239.341H297.188ZM269.34 257.878V206.457H259.34V257.878H269.34ZM264.34 211.457H278.651V201.457H264.34V211.457ZM273.651 206.457V257.878H283.651V206.457H273.651ZM278.651 252.878H264.34V262.878H278.651V252.878ZM250.768 239.341V225.03H240.768V239.341H250.768ZM245.768 230.03H297.188V220.03H245.768V230.03ZM292.188 225.03V239.341H302.188V225.03H292.188ZM297.188 234.341H245.768V244.341H297.188V234.341Z" fill="#FAEAD3" mask="url(#path-6-outside-1_365_1299)"/>
</svg>
