<svg width="452" height="450" viewBox="0 0 452 450" fill="none" xmlns="http://www.w3.org/2000/svg">
<path d="M107.871 36.8943L4.03109 216.75C1.08365 221.855 1.08365 228.145 4.03109 233.25L107.871 413.106C110.818 418.211 116.265 421.356 122.16 421.356H329.84C335.735 421.356 341.182 418.211 344.129 413.106L447.969 233.25C450.916 228.145 450.916 221.855 447.969 216.75L344.129 36.8943C341.182 31.7892 335.735 28.6443 329.84 28.6443H122.16C116.265 28.6443 110.818 31.7892 107.871 36.8943Z" fill="#D4D377" stroke="black" stroke-width="3"/>
<path d="M301.715 71L323.286 84.1429L293 96.1429L270.715 80.7143L301.715 71Z" fill="#E2ECE9"/>
<path d="M293 96.1429L323.286 84.1429V116.143L293 129.286L270.715 111.571V80.7144L293 96.1429Z" fill="#D5D5D5"/>
<path d="M254.144 71L275.715 84.1429L245.429 96.1429L223.143 80.7143L254.144 71Z" fill="#E2ECE9"/>
<path d="M245.429 96.1429L275.715 84.1429V116.143L245.429 129.286L223.143 111.571V80.7144L245.429 96.1429Z" fill="#D5D5D5"/>
<path d="M206.571 71L228.143 84.1429L197.857 96.1429L175.571 80.7143L206.571 71Z" fill="#5AB12F"/>
<path d="M197.857 96.1429L228.143 84.1429V116.143L197.857 129.286L175.571 111.571V80.7144L197.857 96.1429Z" fill="#3FA938"/>
<path d="M159 71L180.571 84.1429L150.286 96.1429L128 80.7143L159 71Z" fill="#5AB12F"/>
<path d="M150.286 96.1429L180.571 84.1429V116.143L150.286 129.286L128 111.571V80.7144L150.286 96.1429Z" fill="#3FA938"/>
<path d="M248.826 165.295L251.266 159.113L245.171 161.764C237.201 165.23 231.289 166.871 225.549 166.89C219.821 166.909 213.977 165.313 206.149 161.779L199.971 158.99L202.46 165.295L223.085 217.545L225.643 224.025L228.201 217.545L248.826 165.295Z" fill="black" stroke="#FAEAD3" stroke-width="5.5"/>
<path d="M173.143 269.574L173.143 284.616L204.104 302.386H247.45L278.143 284.616V269.574L247.45 251.536H204.104L173.143 269.574Z" fill="#BFAFA6"/>
<path d="M204.104 302.386L173.143 284.616L173.143 360.574L204.104 378.343V302.386Z" fill="#857A73"/>
<path d="M247.45 302.386H204.104V378.343H247.45V302.386Z" fill="#7B716B"/>
<path d="M278.143 284.616L247.45 302.386V378.343L278.143 360.574V284.616Z" fill="#857A73"/>
</svg>
