<svg width="450" height="450" viewBox="0 0 450 450" fill="none" xmlns="http://www.w3.org/2000/svg">
<path d="M4.33012 232.5C1.65063 227.859 1.65064 222.141 4.33013 217.5L108.17 37.6443C110.849 33.0033 115.801 30.1443 121.16 30.1443H328.84C334.199 30.1443 339.151 33.0033 341.83 37.6443L445.67 217.5C448.349 222.141 448.349 227.859 445.67 232.5L341.83 412.356C339.151 416.997 334.199 419.856 328.84 419.856H121.16C115.801 419.856 110.849 416.997 108.17 412.356L4.33012 232.5Z" fill="#D4D377" stroke="black" stroke-width="3"/>
<path d="M173 71.0385L173 86.08L203.962 103.85H247.308L278 86.08V71.0385L247.308 53H203.962L173 71.0385Z" fill="#BFAFA6"/>
<path d="M203.962 103.85L173 86.08L173 162.039L203.962 179.808V103.85Z" fill="#857A73"/>
<path d="M247.308 103.85H203.962V179.808H247.308V103.85Z" fill="#7B716B"/>
<path d="M278 86.08L247.308 103.85V179.808L278 162.039V86.08Z" fill="#857A73"/>
<path d="M248.683 205.817L251.123 199.635L245.028 202.286C237.058 205.752 231.146 207.393 225.406 207.412C219.678 207.431 213.834 205.835 206.006 202.301L199.828 199.512L202.317 205.817L222.942 258.067L225.5 264.547L228.058 258.067L248.683 205.817Z" fill="black" stroke="#FAEAD3" stroke-width="5.5"/>
<rect x="103" y="282.058" width="75" height="75" fill="#D0DDFF"/>
<path d="M137.244 334.632H136.373L136.275 335.497C136.008 337.845 135.56 339.624 134.778 341.38C133.99 343.15 132.845 344.936 131.129 347.286L131.104 347.32L131.082 347.356C130.815 347.797 130.594 348.197 130.431 348.552C130.273 348.895 130.142 349.254 130.098 349.598C130.056 349.935 130.079 350.454 130.49 350.853C130.876 351.226 131.37 351.263 131.684 351.247C132.316 351.214 133.144 350.917 134.066 350.514C135.031 350.092 136.242 349.487 137.696 348.725L137.825 348.657L137.928 348.556C140.091 346.425 141.503 344.601 142.436 342.58C143.368 340.562 143.789 338.417 144.074 335.709L144.187 334.632H143.104H137.244Z" fill="#196D20" stroke="#6A6D63" stroke-width="1.95"/>
<path d="M141.301 343.415L141.934 343.858L142.51 343.344C150.615 336.104 154.874 330.166 155.718 324.008C156.565 317.839 153.947 311.726 149.07 304.257L149.05 304.226L149.027 304.196C147.952 302.798 146.943 301.564 146.026 300.442C145.824 300.194 145.626 299.952 145.433 299.715C144.359 298.395 143.437 297.235 142.673 296.098C141.167 293.858 140.282 291.727 140.17 288.771L140.062 285.94L138.405 288.237C128.944 301.347 124.139 311.35 124.549 320.046C124.964 328.841 130.68 335.978 141.301 343.415Z" fill="#196D20" stroke="#6A6D63" stroke-width="1.95"/>
<path d="M131.916 347.861C135.371 343.129 136.692 340.452 137.244 335.607H143.104C142.83 338.214 144.22 340.083 142.904 341.691C142.465 341.896 139.409 345.728 137.244 347.861C131.445 350.9 129.86 351.253 131.916 347.861Z" fill="#196D20"/>
<path d="M140.609 330.606C139.415 330.606 138.272 330.414 137.178 330.031C136.084 329.64 135.111 329.022 134.259 328.177C133.407 327.325 132.736 326.21 132.246 324.832C131.756 323.447 131.514 321.76 131.521 319.771C131.528 317.975 131.749 316.362 132.182 314.935C132.615 313.5 133.233 312.282 134.035 311.281C134.845 310.279 135.811 309.516 136.933 308.99C138.062 308.457 139.323 308.191 140.715 308.191C142.242 308.191 143.588 308.489 144.753 309.086C145.925 309.676 146.862 310.471 147.565 311.472C148.268 312.467 148.684 313.575 148.812 314.796H143.624C143.467 314.107 143.123 313.585 142.59 313.23C142.065 312.868 141.44 312.687 140.715 312.687C139.38 312.687 138.382 313.266 137.722 314.423C137.068 315.581 136.734 317.129 136.72 319.068H136.859C137.157 318.415 137.587 317.854 138.148 317.385C138.709 316.916 139.351 316.558 140.076 316.309C140.807 316.053 141.582 315.926 142.398 315.926C143.705 315.926 144.859 316.227 145.861 316.831C146.862 317.435 147.647 318.262 148.215 319.313C148.783 320.357 149.064 321.554 149.057 322.903C149.064 324.423 148.709 325.766 147.991 326.93C147.274 328.088 146.28 328.99 145.008 329.636C143.744 330.283 142.278 330.606 140.609 330.606ZM140.577 326.558C141.223 326.558 141.802 326.405 142.313 326.1C142.825 325.794 143.226 325.379 143.517 324.853C143.808 324.328 143.95 323.734 143.943 323.074C143.95 322.406 143.808 321.813 143.517 321.295C143.233 320.776 142.835 320.364 142.324 320.059C141.82 319.754 141.241 319.601 140.587 319.601C140.111 319.601 139.668 319.69 139.256 319.867C138.844 320.045 138.485 320.293 138.18 320.613C137.881 320.926 137.647 321.295 137.476 321.721C137.306 322.14 137.217 322.595 137.21 323.085C137.217 323.731 137.366 324.317 137.658 324.842C137.949 325.368 138.347 325.787 138.851 326.1C139.355 326.405 139.93 326.558 140.577 326.558Z" fill="#F7F3F4"/>
<rect x="188" y="282.058" width="75" height="75" fill="#DDBBEE"/>
<path d="M222.244 334.632H221.373L221.275 335.497C221.008 337.845 220.56 339.624 219.778 341.38C218.99 343.15 217.845 344.936 216.129 347.286L216.104 347.32L216.082 347.356C215.815 347.797 215.594 348.197 215.431 348.552C215.273 348.895 215.142 349.254 215.098 349.598C215.056 349.935 215.079 350.454 215.49 350.853C215.876 351.226 216.37 351.263 216.684 351.247C217.316 351.214 218.144 350.917 219.066 350.514C220.031 350.092 221.242 349.487 222.696 348.725L222.825 348.657L222.928 348.556C225.091 346.425 226.503 344.601 227.436 342.58C228.368 340.562 228.789 338.417 229.074 335.709L229.187 334.632H228.104H222.244Z" fill="#196D20" stroke="#6A6D63" stroke-width="1.95"/>
<path d="M226.301 343.415L226.934 343.858L227.51 343.344C235.615 336.104 239.874 330.166 240.718 324.008C241.565 317.839 238.947 311.726 234.07 304.257L234.05 304.226L234.027 304.196C232.952 302.798 231.943 301.564 231.026 300.442C230.824 300.194 230.626 299.952 230.433 299.715C229.359 298.395 228.437 297.235 227.673 296.098C226.167 293.858 225.282 291.727 225.17 288.771L225.062 285.94L223.405 288.237C213.944 301.347 209.139 311.35 209.549 320.046C209.964 328.841 215.68 335.978 226.301 343.415Z" fill="#196D20" stroke="#6A6D63" stroke-width="1.95"/>
<path d="M216.916 347.861C220.371 343.129 221.692 340.452 222.244 335.607H228.104C227.83 338.214 229.22 340.083 227.904 341.691C227.465 341.896 224.409 345.728 222.244 347.861C216.445 350.9 214.86 351.253 216.916 347.861Z" fill="#196D20"/>
<path d="M225.076 308.191C226.269 308.191 227.409 308.386 228.496 308.777C229.582 309.161 230.552 309.775 231.404 310.62C232.256 311.458 232.927 312.563 233.418 313.933C233.908 315.304 234.153 316.977 234.153 318.951C234.16 320.769 233.947 322.399 233.513 323.841C233.08 325.276 232.459 326.497 231.649 327.506C230.847 328.514 229.881 329.285 228.751 329.818C227.622 330.343 226.361 330.606 224.969 330.606C223.435 330.606 222.082 330.311 220.91 329.722C219.746 329.125 218.812 328.323 218.109 327.314C217.413 326.305 216.997 325.176 216.862 323.926H222.05C222.214 324.651 222.558 325.198 223.084 325.567C223.609 325.929 224.238 326.11 224.969 326.11C226.305 326.11 227.302 325.531 227.963 324.374C228.624 323.216 228.954 321.643 228.954 319.654H228.826C228.521 320.308 228.087 320.869 227.526 321.337C226.972 321.806 226.329 322.165 225.598 322.413C224.866 322.662 224.096 322.786 223.286 322.786C221.979 322.786 220.825 322.488 219.824 321.891C218.829 321.295 218.048 320.475 217.48 319.43C216.919 318.386 216.635 317.193 216.628 315.851C216.621 314.345 216.972 313.017 217.682 311.867C218.393 310.709 219.383 309.807 220.655 309.161C221.926 308.507 223.4 308.184 225.076 308.191ZM225.108 312.239C224.454 312.239 223.872 312.392 223.361 312.698C222.856 313.003 222.459 313.415 222.168 313.933C221.876 314.452 221.734 315.034 221.741 315.68C221.749 316.327 221.894 316.909 222.178 317.428C222.469 317.946 222.864 318.358 223.361 318.663C223.865 318.969 224.44 319.122 225.087 319.122C225.57 319.122 226.017 319.033 226.429 318.855C226.841 318.678 227.2 318.433 227.505 318.12C227.81 317.801 228.048 317.431 228.219 317.012C228.396 316.593 228.481 316.146 228.474 315.67C228.467 315.038 228.318 314.462 228.027 313.944C227.736 313.426 227.334 313.014 226.823 312.708C226.319 312.396 225.747 312.239 225.108 312.239Z" fill="#F7F3F4"/>
<rect x="273" y="282.058" width="75" height="75" fill="#FF9C75"/>
<path d="M307.244 334.632H306.373L306.275 335.497C306.008 337.845 305.56 339.624 304.778 341.38C303.99 343.15 302.845 344.936 301.129 347.286L301.104 347.32L301.082 347.356C300.815 347.797 300.594 348.197 300.431 348.552C300.273 348.895 300.142 349.254 300.098 349.598C300.056 349.935 300.079 350.454 300.49 350.853C300.876 351.226 301.37 351.263 301.684 351.247C302.316 351.214 303.144 350.917 304.066 350.514C305.031 350.092 306.242 349.487 307.696 348.725L307.825 348.657L307.928 348.556C310.091 346.425 311.503 344.601 312.436 342.58C313.368 340.562 313.789 338.417 314.074 335.709L314.187 334.632H313.104H307.244Z" fill="#196D20" stroke="#6A6D63" stroke-width="1.95"/>
<path d="M311.301 343.415L311.934 343.858L312.51 343.344C320.615 336.104 324.874 330.166 325.718 324.008C326.565 317.839 323.947 311.726 319.07 304.257L319.05 304.226L319.027 304.196C317.952 302.798 316.943 301.564 316.026 300.442C315.824 300.194 315.626 299.952 315.433 299.715C314.359 298.395 313.437 297.235 312.673 296.098C311.167 293.858 310.282 291.727 310.17 288.771L310.062 285.94L308.405 288.237C298.944 301.347 294.139 311.35 294.549 320.046C294.964 328.841 300.68 335.978 311.301 343.415Z" fill="#196D20" stroke="#6A6D63" stroke-width="1.95"/>
<path d="M301.916 347.861C305.371 343.129 306.692 340.452 307.244 335.607H313.104C312.83 338.214 314.22 340.083 312.904 341.691C312.465 341.896 309.409 345.728 307.244 347.861C301.445 350.9 299.86 351.253 301.916 347.861Z" fill="#196D20"/>
<path d="M305.841 309.467V328.558H301.237V313.773H301.125L296.855 316.383V312.394L301.563 309.467H305.841ZM310.062 328.558V325.239L317.025 319.143C317.547 318.67 317.992 318.238 318.358 317.847C318.725 317.449 319.005 317.051 319.197 316.654C319.39 316.25 319.486 315.812 319.486 315.339C319.486 314.811 319.371 314.361 319.141 313.988C318.911 313.609 318.594 313.317 318.19 313.112C317.786 312.906 317.324 312.804 316.801 312.804C316.273 312.804 315.81 312.913 315.413 313.13C315.015 313.341 314.704 313.649 314.48 314.053C314.263 314.457 314.154 314.948 314.154 315.526H309.782C309.782 314.227 310.074 313.105 310.658 312.161C311.243 311.216 312.063 310.489 313.119 309.979C314.182 309.464 315.416 309.206 316.82 309.206C318.268 309.206 319.527 309.448 320.595 309.933C321.664 310.418 322.491 311.095 323.075 311.965C323.665 312.829 323.961 313.832 323.961 314.976C323.961 315.703 323.815 316.424 323.522 317.138C323.23 317.853 322.705 318.642 321.947 319.506C321.195 320.37 320.126 321.405 318.74 322.61L316.457 324.717V324.838H324.194V328.558H310.062Z" fill="#F7F3F4"/>
</svg>
