<svg width="200" height="200" viewBox="0 0 200 200" fill="none" xmlns="http://www.w3.org/2000/svg">
<path d="M0.227816 0L0.226974 0.00638398C105.352 15.7521 156.837 72.3539 167.539 118.332C166.658 120.876 165.646 123.032 164.563 124.703C157.282 135.932 138.235 141.759 121.756 136.873C124.276 128.468 126.023 119.919 126.839 111.711C86.6405 115.191 37.3362 115.295 0 102.074C17.5713 142.643 41.826 172.073 69.4747 200C77.1792 199.079 84.5531 195.169 91.3034 189.202C127.189 203.957 170.498 188.115 186.788 163.376C206.546 133.37 217.979 28.2341 116.269 0.000425382H89.915C157.429 23.3557 172.337 71.3933 170.587 101.735C154.943 61.8863 112.61 20.0789 39.0429 0.000425382H0.228658L0.227816 0Z" fill="white"/>
</svg>
