<svg width="440" height="419" viewBox="0 0 440 419" fill="none" xmlns="http://www.w3.org/2000/svg">
<path d="M210.483 9.51057C213.463 0.269739 226.537 0.269709 229.517 9.51054L273.599 146.197C274.934 150.335 278.79 153.137 283.138 153.127L426.757 152.814C436.466 152.792 440.507 165.227 432.639 170.917L316.265 255.079C312.741 257.628 311.268 262.161 312.621 266.293L357.3 402.786C360.321 412.013 349.743 419.698 341.901 413.974L225.896 329.303C222.383 326.739 217.617 326.739 214.104 329.303L98.0992 413.974C90.2566 419.698 79.6793 412.013 82.6999 402.786L127.379 266.293C128.732 262.161 127.259 257.628 123.735 255.079L7.36108 170.917C-0.506534 165.227 3.53358 152.792 13.2431 152.814L156.862 153.127C161.21 153.137 165.066 150.335 166.401 146.197L210.483 9.51057Z" fill="#FFE81B" stroke="black" stroke-width="5"/>
</svg>
