<svg width="438" height="205" viewBox="0 0 438 205" fill="none" xmlns="http://www.w3.org/2000/svg">
<path d="M1.8999 20.8828C1.8999 10.3523 10.4645 1.83037 20.9949 1.88302L192.227 2.73918C196.471 2.7604 199.9 6.20661 199.9 10.4504C199.9 13.1012 198.508 15.581 196.279 17.108C181.878 26.9749 173.18 38.0768 170.114 49.945C167.043 61.8324 169.668 74.3108 177.554 86.8159C179.447 89.8179 182.44 92.9285 185.763 95.8624C189.097 98.8058 192.812 101.614 196.194 104.007C201.536 107.786 204.9 113.777 204.9 120.261V184.783C204.9 195.276 196.393 203.783 185.9 203.783H20.8999C10.4065 203.783 1.8999 195.276 1.8999 184.783V20.8828Z" fill="#868686" fill-opacity="0.6" stroke="black" stroke-width="2"/>
<path d="M27.2632 17.3068L22.6506 21.9195C21.7719 22.7981 21.7719 24.2228 22.6506 25.1014L23.4461 25.8969C24.3247 26.7756 25.7494 26.7756 26.628 25.8969L31.2407 21.2843C31.6019 20.923 32.0754 20.6955 32.5832 20.6391L36.8187 20.1685C38.0072 20.0364 38.8716 18.9778 38.7633 17.7869C38.6519 16.5618 37.5562 15.6671 36.3336 15.8029L28.6057 16.6616C28.0979 16.718 27.6245 16.9456 27.2632 17.3068Z" fill="black"/>
<path d="M20.6616 23.9082L24.6391 19.9307L75.5508 70.8424C75.9901 71.2818 75.9901 71.9941 75.5508 72.4334L73.1643 74.8199C72.725 75.2592 72.0126 75.2592 71.5733 74.8199L20.6616 23.9082Z" fill="black"/>
<path d="M19.0704 27.0902L20.6614 23.9082L24.6389 27.8857L21.4569 29.4767L19.0704 27.0902Z" fill="black"/>
<rect x="15.0933" y="31.0677" width="5.625" height="3.375" transform="rotate(-45 15.0933 31.0677)" fill="black"/>
<path d="M18.2752 27.8857L15.8887 28.6812L19.8661 32.6587L20.6616 30.2722L18.2752 27.8857Z" fill="black"/>
<path d="M13.8999 30.6699L15.8886 28.6812L19.8661 32.6587L17.8774 34.6474L13.8999 30.6699Z" fill="black"/>
<path d="M71.2499 102.782L89.5854 113.954L63.8426 124.154L44.8997 111.04L71.2499 102.782Z" fill="#B9511E"/>
<path d="M63.8426 124.154L89.5854 113.954V141.154L63.8426 152.325L44.8997 137.268V111.04L63.8426 124.154Z" fill="#8B3100"/>
<path d="M110.54 108.328L101.165 143.157H95.2419L104.617 108.328H110.54Z" fill="black"/>
<path d="M145.25 102.782L163.585 113.954L137.843 124.154L118.9 111.04L145.25 102.782Z" fill="#A8A7A5"/>
<path d="M137.843 124.154L163.585 113.954V141.154L137.843 152.325L118.9 137.268V111.04L137.843 124.154Z" fill="#828181"/>
<mask id="path-13-inside-1_218_250" fill="white">
<path fill-rule="evenodd" clip-rule="evenodd" d="M417.8 0.882946C428.885 0.827523 437.9 9.79793 437.9 20.8827V184.782C437.9 195.828 428.946 204.782 417.9 204.782H252.9C241.854 204.782 232.9 195.828 232.9 184.782V120.261C232.9 113.423 236.446 107.14 242.028 103.191C248.759 98.4286 256.764 92.0477 260.4 86.2824C275.954 61.6188 270.51 37.4963 241.955 17.9328C239.476 16.234 237.9 13.456 237.9 10.4503C237.9 5.65619 241.774 1.76308 246.568 1.73911L417.8 0.882946ZM336.9 198.782C367.276 198.782 391.9 174.158 391.9 143.782C391.9 113.407 367.276 88.7824 336.9 88.7824C306.524 88.7824 281.9 113.407 281.9 143.782C281.9 174.158 306.524 198.782 336.9 198.782Z"/>
</mask>
<path fill-rule="evenodd" clip-rule="evenodd" d="M417.8 0.882946C428.885 0.827523 437.9 9.79793 437.9 20.8827V184.782C437.9 195.828 428.946 204.782 417.9 204.782H252.9C241.854 204.782 232.9 195.828 232.9 184.782V120.261C232.9 113.423 236.446 107.14 242.028 103.191C248.759 98.4286 256.764 92.0477 260.4 86.2824C275.954 61.6188 270.51 37.4963 241.955 17.9328C239.476 16.234 237.9 13.456 237.9 10.4503C237.9 5.65619 241.774 1.76308 246.568 1.73911L417.8 0.882946ZM336.9 198.782C367.276 198.782 391.9 174.158 391.9 143.782C391.9 113.407 367.276 88.7824 336.9 88.7824C306.524 88.7824 281.9 113.407 281.9 143.782C281.9 174.158 306.524 198.782 336.9 198.782Z" fill="white" fill-opacity="0.5"/>
<path d="M417.8 0.882946L417.81 2.88292L417.8 0.882946ZM242.028 103.191L240.873 101.558L242.028 103.191ZM260.4 86.2824L258.708 85.2156L260.4 86.2824ZM241.955 17.9328L240.825 19.5827L241.955 17.9328ZM246.568 1.73911L246.578 3.73908L246.568 1.73911ZM435.9 20.8827C435.9 10.9064 427.786 2.83304 417.81 2.88292L417.79 -1.11703C429.983 -1.17799 439.9 8.68946 439.9 20.8827H435.9ZM435.9 184.782V20.8827H439.9V184.782H435.9ZM417.9 202.782C427.841 202.782 435.9 194.724 435.9 184.782H439.9C439.9 196.933 430.05 206.782 417.9 206.782V202.782ZM252.9 202.782H417.9V206.782H252.9V202.782ZM234.9 184.782C234.9 194.724 242.959 202.782 252.9 202.782V206.782C240.75 206.782 230.9 196.933 230.9 184.782H234.9ZM234.9 120.261V184.782H230.9V120.261H234.9ZM243.183 104.823C238.082 108.433 234.9 114.13 234.9 120.261H230.9C230.9 112.716 234.81 105.847 240.873 101.558L243.183 104.823ZM262.092 87.3493C260.123 90.4705 257.047 93.6551 253.698 96.612C250.328 99.5875 246.581 102.419 243.183 104.823L240.873 101.558C244.205 99.2002 247.827 96.4601 251.051 93.6135C254.296 90.7481 257.041 87.8597 258.708 85.2156L262.092 87.3493ZM243.086 16.2829C257.611 26.235 266.509 37.5174 269.654 49.6948C272.81 61.9106 270.087 74.6708 262.092 87.3493L258.708 85.2156C266.266 73.2304 268.598 61.5975 265.782 50.6953C262.955 39.7547 254.853 29.1941 240.825 19.5827L243.086 16.2829ZM239.9 10.4503C239.9 12.7463 241.108 14.9278 243.086 16.2829L240.825 19.5827C237.844 17.5402 235.9 14.1658 235.9 10.4503H239.9ZM246.578 3.73908C242.884 3.75755 239.9 6.75686 239.9 10.4503H235.9C235.9 4.55553 240.663 -0.231394 246.558 -0.260868L246.578 3.73908ZM417.81 2.88292L246.578 3.73908L246.558 -0.260868L417.79 -1.11703L417.81 2.88292ZM393.9 143.782C393.9 175.263 368.38 200.782 336.9 200.782V196.782C366.171 196.782 389.9 173.054 389.9 143.782H393.9ZM336.9 86.7824C368.38 86.7824 393.9 112.302 393.9 143.782H389.9C389.9 114.511 366.171 90.7824 336.9 90.7824V86.7824ZM279.9 143.782C279.9 112.302 305.42 86.7824 336.9 86.7824V90.7824C307.629 90.7824 283.9 114.511 283.9 143.782H279.9ZM336.9 200.782C305.42 200.782 279.9 175.263 279.9 143.782H283.9C283.9 173.054 307.629 196.782 336.9 196.782V200.782Z" fill="black" mask="url(#path-13-inside-1_218_250)"/>
<path d="M317.344 24.209L317.046 23.7825H316.525H300.275H299.754L299.456 24.209L288.081 40.459L287.679 41.0325L288.081 41.6059L299.456 57.8559L299.754 58.2825H300.275H316.525H317.046L317.344 57.8559L328.719 41.6059L329.121 41.0325L328.719 40.459L317.344 24.209Z" fill="black" stroke="#FAEAD3" stroke-width="2"/>
<path d="M374.344 24.209L374.046 23.7825H373.525H357.275H356.754L356.456 24.209L345.081 40.459L344.679 41.0325L345.081 41.6059L356.456 57.8559L356.754 58.2825H357.275H373.525H374.046L374.344 57.8559L385.719 41.6059L386.121 41.0325L385.719 40.459L374.344 24.209Z" fill="black" stroke="#FAEAD3" stroke-width="2"/>
<path d="M346.344 41.209L346.046 40.7825H345.525H329.275H328.754L328.456 41.209L317.081 57.459L316.679 58.0325L317.081 58.6059L328.456 74.8559L328.754 75.2825H329.275H345.525H346.046L346.344 74.8559L357.719 58.6059L358.121 58.0325L357.719 57.459L346.344 41.209Z" fill="black" stroke="#FAEAD3" stroke-width="2"/>
<path d="M346.344 6.20901L346.046 5.78247H345.525H329.275H328.754L328.456 6.20901L317.081 22.459L316.679 23.0325L317.081 23.6059L328.456 39.8559L328.754 40.2825H329.275H345.525H346.046L346.344 39.8559L357.719 23.6059L358.121 23.0325L357.719 22.459L346.344 6.20901Z" fill="black" stroke="#FAEAD3" stroke-width="2"/>
<rect x="309.9" y="100.782" width="25" height="25" fill="white" fill-opacity="0.6"/>
<rect x="339.9" y="100.782" width="25" height="25" fill="white" fill-opacity="0.6"/>
<rect x="309.9" y="130.782" width="25" height="25" fill="white" fill-opacity="0.6"/>
<rect x="339.9" y="130.782" width="25" height="25" fill="white" fill-opacity="0.6"/>
<rect x="309.9" y="160.782" width="25" height="25" fill="white" fill-opacity="0.6"/>
<rect x="339.9" y="160.782" width="25" height="25" fill="white" fill-opacity="0.6"/>
<rect x="330.383" y="165.233" width="4" height="20" transform="rotate(42.9503 330.383 165.233)" fill="black"/>
<rect x="310.9" y="174.421" width="4" height="8" transform="rotate(-47.0497 310.9 174.421)" fill="black"/>
<rect x="360.383" y="164.233" width="4" height="20" transform="rotate(42.9503 360.383 164.233)" fill="black"/>
<rect x="340.9" y="173.421" width="4" height="8" transform="rotate(-47.0497 340.9 173.421)" fill="black"/>
<circle cx="219" cy="60" r="38.75" fill="black" fill-opacity="0.5" stroke="black" stroke-width="2.5"/>
<path d="M215.901 42.6364V79H207.112V42.6364H215.901ZM230.208 42.6364V79H221.419V42.6364H230.208Z" fill="#F7F3F4"/>
</svg>
