<svg width="438" height="205" viewBox="0 0 438 205" fill="none" xmlns="http://www.w3.org/2000/svg">
<path d="M1.8999 20.8827C1.8999 10.3522 10.4645 1.83031 20.9949 1.88296L192.227 2.73912C196.471 2.76034 199.9 6.20655 199.9 10.4503C199.9 13.1012 198.508 15.5809 196.279 17.1079C181.878 26.9748 173.18 38.0767 170.114 49.945C167.043 61.8324 169.668 74.3107 177.554 86.8159C179.447 89.8178 182.44 92.9284 185.763 95.8624C189.097 98.8057 192.812 101.614 196.194 104.007C201.536 107.786 204.9 113.777 204.9 120.261V184.782C204.9 195.276 196.393 203.782 185.9 203.782H20.8999C10.4065 203.782 1.8999 195.276 1.8999 184.782V20.8827Z" fill="#868686" fill-opacity="0.6" stroke="black" stroke-width="2"/>
<path d="M27.2632 17.3068L22.6506 21.9194C21.7719 22.7981 21.7719 24.2227 22.6506 25.1014L23.4461 25.8969C24.3247 26.7756 25.7494 26.7756 26.628 25.8969L31.2407 21.2843C31.6019 20.923 32.0754 20.6954 32.5832 20.639L36.8187 20.1684C38.0072 20.0364 38.8716 18.9777 38.7633 17.7868C38.6519 16.5618 37.5562 15.667 36.3336 15.8029L28.6057 16.6615C28.0979 16.718 27.6245 16.9455 27.2632 17.3068Z" fill="black"/>
<path d="M20.6616 23.9082L24.6391 19.9307L75.5508 70.8424C75.9901 71.2817 75.9901 71.994 75.5508 72.4334L73.1643 74.8198C72.725 75.2592 72.0126 75.2592 71.5733 74.8198L20.6616 23.9082Z" fill="black"/>
<path d="M19.0704 27.0901L20.6614 23.9081L24.6389 27.8856L21.4569 29.4766L19.0704 27.0901Z" fill="black"/>
<rect x="15.0933" y="31.0676" width="5.625" height="3.375" transform="rotate(-45 15.0933 31.0676)" fill="black"/>
<path d="M18.2752 27.8856L15.8887 28.6811L19.8661 32.6586L20.6616 30.2721L18.2752 27.8856Z" fill="black"/>
<path d="M13.8999 30.6699L15.8886 28.6811L19.8661 32.6586L17.8774 34.6473L13.8999 30.6699Z" fill="black"/>
<path d="M107.25 102.782L125.585 113.954L99.8426 124.154L80.8997 111.04L107.25 102.782Z" fill="#5AB12F"/>
<path d="M99.8426 124.154L125.585 113.954V141.154L99.8426 152.325L80.8997 137.268V111.04L99.8426 124.154Z" fill="#3FA938"/>
<path d="M436.898 20.8827C436.898 10.3522 428.333 1.83031 417.803 1.88296L246.571 2.73912C242.327 2.76034 238.898 6.20655 238.898 10.4503C238.898 13.1012 240.29 15.5809 242.518 17.1079C256.92 26.9748 265.618 38.0767 268.684 49.945C271.755 61.8324 269.13 74.3107 261.244 86.8159C259.351 89.8178 256.358 92.9284 253.034 95.8624C249.701 98.8057 245.985 101.614 242.604 104.007C237.262 107.786 233.898 113.777 233.898 120.261V184.782C233.898 195.276 242.405 203.782 252.898 203.782H417.898C428.391 203.782 436.898 195.276 436.898 184.782V20.8827Z" fill="white" fill-opacity="0.5" stroke="black" stroke-width="2"/>
<path d="M281.567 149.782L266.898 158.72L287.493 166.88L302.647 156.388L281.567 149.782Z" fill="#A8A7A5"/>
<path d="M287.493 166.88L266.898 158.72V180.48L287.493 189.417L302.647 177.371V156.388L287.493 166.88Z" fill="#828181"/>
<path d="M281.567 90.7825L266.898 99.7196L287.493 107.88L302.647 97.3882L281.567 90.7825Z" fill="#5AB12F"/>
<path d="M287.493 107.88L266.898 99.7197V121.48L287.493 130.417L302.647 118.371V97.3882L287.493 107.88Z" fill="#3FA938"/>
<path d="M310.896 177.83L309.78 180.301L312.302 179.306L333.202 171.056L335.794 170.032L333.202 169.009L312.302 160.759L309.829 159.783L310.89 162.221C312.276 165.409 312.933 167.774 312.94 170.07C312.948 172.361 312.309 174.699 310.896 177.83Z" fill="black" stroke="#FAEAD3" stroke-width="2.2"/>
<path d="M310.895 118.83L309.78 121.301L312.302 120.306L333.202 112.056L335.794 111.032L333.202 110.009L312.302 101.759L309.829 100.783L310.889 103.221C312.276 106.409 312.932 108.774 312.94 111.07C312.947 113.361 312.309 115.699 310.895 118.83Z" fill="black" stroke="#FAEAD3" stroke-width="2.2"/>
<path d="M360.671 77.133L360.296 76.9164L359.921 77.133L345.729 85.3267L345.354 85.5432V85.9762V102.364V102.797L345.729 103.013L359.546 110.99L359.546 126.945L359.546 127.378L359.921 127.594L374.113 135.788L374.488 136.005L374.863 135.788L389.055 127.594L389.43 127.378V126.945V110.99L403.247 103.013L403.622 102.797V102.364V85.9762V85.5432L403.247 85.3267L389.055 77.133L388.68 76.9164L388.305 77.1329L374.488 85.1102L360.671 77.133Z" fill="#93561C" stroke="#2E1903" stroke-width="1.5"/>
<path d="M361.583 139.133L361.208 138.916L360.833 139.133L346.641 147.327L346.266 147.543V147.976V164.364V164.797L346.641 165.013L360.458 172.99L360.458 188.945L360.458 189.378L360.833 189.594L375.025 197.788L375.4 198.005L375.775 197.788L389.967 189.594L390.342 189.378V188.945V172.99L404.159 165.013L404.534 164.797V164.364V147.976V147.543L404.159 147.327L389.967 139.133L389.592 138.916L389.217 139.133L375.4 147.11L361.583 139.133Z" fill="#70AF22" stroke="#2E1903" stroke-width="1.5"/>
<path d="M320.608 9.98573L320.148 9.72015L319.688 9.98573L304.749 18.6107L304.289 18.8763V19.4075V36.6575V37.1886L304.749 37.4542L319.688 46.0792L320.148 46.3448L320.608 46.0792L335.547 37.4542L336.007 37.1886V36.6575V19.4075V18.8763L335.547 18.6107L320.608 9.98573Z" fill="black" stroke="#FAEAD3" stroke-width="1.84"/>
<path d="M336.608 37.9857L336.148 37.7201L335.688 37.9857L320.749 46.6107L320.289 46.8763V47.4075V64.6575V65.1886L320.749 65.4542L335.688 74.0792L336.148 74.3448L336.608 74.0792L351.547 65.4542L352.007 65.1886V64.6575V47.4075V46.8763L351.547 46.6107L336.608 37.9857Z" fill="black" stroke="#FAEAD3" stroke-width="1.84"/>
<path d="M352.608 9.98573L352.148 9.72015L351.688 9.98573L336.749 18.6107L336.289 18.8763V19.4075V36.6575V37.1886L336.749 37.4542L351.688 46.0792L352.148 46.3448L352.608 46.0792L367.547 37.4542L368.007 37.1886V36.6575V19.4075V18.8763L367.547 18.6107L352.608 9.98573Z" fill="black" stroke="#FAEAD3" stroke-width="1.84"/>
<circle cx="219" cy="60" r="38.75" fill="black" fill-opacity="0.5" stroke="black" stroke-width="2.5"/>
<path d="M223.055 42.6364V79H214.265V42.6364H223.055Z" fill="#F7F3F4"/>
</svg>
