<svg width="439" height="205" viewBox="0 0 439 205" fill="none" xmlns="http://www.w3.org/2000/svg">
<path d="M1.8999 20.8827C1.8999 10.3522 10.4645 1.83031 20.9949 1.88296L192.227 2.73912C196.471 2.76034 199.9 6.20655 199.9 10.4503C199.9 13.1012 198.508 15.5809 196.279 17.1079C181.878 26.9748 173.18 38.0767 170.114 49.945C167.043 61.8324 169.668 74.3107 177.554 86.8159C179.447 89.8178 182.44 92.9284 185.763 95.8624C189.097 98.8057 192.812 101.614 196.194 104.007C201.536 107.786 204.9 113.777 204.9 120.261V184.782C204.9 195.276 196.393 203.782 185.9 203.782H20.8999C10.4065 203.782 1.8999 195.276 1.8999 184.782V20.8827Z" fill="#868686" fill-opacity="0.6" stroke="black" stroke-width="2"/>
<path d="M27.2627 17.3068L22.6501 21.9194C21.7714 22.7981 21.7714 24.2227 22.6501 25.1014L23.4456 25.8969C24.3242 26.7756 25.7489 26.7756 26.6275 25.8969L31.2402 21.2843C31.6014 20.923 32.0749 20.6954 32.5827 20.639L36.8182 20.1684C38.0067 20.0364 38.8711 18.9777 38.7628 17.7868C38.6515 16.5618 37.5557 15.667 36.3331 15.8029L28.6052 16.6615C28.0974 16.718 27.624 16.9455 27.2627 17.3068Z" fill="black"/>
<path d="M20.6616 23.9081L24.6391 19.9307L75.5508 70.8424C75.9901 71.2817 75.9901 71.994 75.5508 72.4333L73.1643 74.8198C72.725 75.2592 72.0126 75.2592 71.5733 74.8198L20.6616 23.9081Z" fill="black"/>
<path d="M19.0704 27.0901L20.6614 23.9082L24.6389 27.8856L21.4569 29.4766L19.0704 27.0901Z" fill="black"/>
<rect x="15.0933" y="31.0676" width="5.625" height="3.375" transform="rotate(-45 15.0933 31.0676)" fill="black"/>
<path d="M18.2752 27.8856L15.8887 28.6811L19.8661 32.6586L20.6616 30.2721L18.2752 27.8856Z" fill="black"/>
<path d="M13.8999 30.6699L15.8886 28.6811L19.8661 32.6586L17.8774 34.6473L13.8999 30.6699Z" fill="black"/>
<path d="M95.9885 132.371L94.9743 134.618L97.2671 133.713L116.267 126.213L118.623 125.282L116.267 124.352L97.2671 116.852L95.0188 115.965L95.9829 118.181C97.2435 121.08 97.84 123.229 97.8469 125.317C97.8538 127.399 97.2735 129.525 95.9885 132.371Z" fill="black" stroke="#FAEAD3" stroke-width="2"/>
<path d="M71.2956 102.782L86.8809 112.278L64.9994 120.948L48.898 109.801L71.2956 102.782Z" fill="#B9511E"/>
<path d="M64.9994 120.948L86.8809 112.278V135.398L64.9994 144.894L48.898 132.095V109.801L64.9994 120.948Z" fill="#8B3100"/>
<path d="M130.673 151.76L130.648 151.795L130.625 151.832C130.351 152.284 130.125 152.695 129.957 153.059C129.796 153.411 129.661 153.779 129.616 154.131C129.572 154.478 129.597 155.01 130.018 155.419C130.413 155.802 130.92 155.839 131.242 155.823C131.891 155.789 132.74 155.484 133.686 155.071C134.675 154.638 135.917 154.018 137.409 153.236L137.541 153.167L137.646 153.063C139.865 150.878 141.314 149.007 142.271 146.933C143.226 144.864 143.658 142.664 143.95 139.887L144.066 138.782H142.955H136.945H136.052L135.951 139.669C135.677 142.077 135.218 143.902 134.416 145.703C133.607 147.519 132.433 149.35 130.673 151.76Z" fill="#196D20" stroke="#6A6D63" stroke-width="2"/>
<path d="M139.946 91.7445L139.836 88.8418L138.136 91.1973C128.432 104.644 123.504 114.903 123.925 123.822C124.35 132.842 130.213 140.162 141.106 147.79L141.755 148.245L142.346 147.717C150.659 140.291 155.027 134.201 155.893 127.885C156.761 121.559 154.076 115.288 149.074 107.628L149.053 107.596L149.03 107.566C147.928 106.132 146.893 104.866 145.952 103.715C145.745 103.461 145.542 103.213 145.344 102.969C144.242 101.616 143.297 100.426 142.513 99.2596C140.969 96.9624 140.061 94.7769 139.946 91.7445Z" fill="#196D20" stroke="#6A6D63" stroke-width="2"/>
<path d="M131.48 152.35C135.025 147.497 136.379 144.751 136.945 139.782H142.955C142.674 142.456 144.1 144.372 142.75 146.022C142.3 146.232 139.165 150.163 136.945 152.35C130.997 155.468 129.372 155.829 131.48 152.35Z" fill="#196D20"/>
<path d="M129.309 136.382V131.262L140.052 121.857C140.858 121.128 141.543 120.461 142.109 119.857C142.675 119.244 143.106 118.63 143.403 118.017C143.7 117.393 143.849 116.717 143.849 115.989C143.849 115.174 143.672 114.479 143.317 113.903C142.962 113.318 142.473 112.868 141.85 112.551C141.227 112.235 140.512 112.077 139.707 112.077C138.892 112.077 138.178 112.244 137.564 112.58C136.95 112.906 136.471 113.381 136.126 114.004C135.79 114.627 135.623 115.385 135.623 116.276H128.877C128.877 114.272 129.328 112.542 130.229 111.084C131.13 109.627 132.396 108.505 134.026 107.719C135.666 106.923 137.569 106.525 139.736 106.525C141.97 106.525 143.911 106.899 145.561 107.647C147.21 108.395 148.485 109.44 149.386 110.782C150.297 112.115 150.752 113.664 150.752 115.428C150.752 116.55 150.527 117.662 150.077 118.764C149.626 119.867 148.816 121.085 147.646 122.417C146.486 123.75 144.837 125.347 142.698 127.207L139.175 130.457V130.644H151.112V136.382H129.309Z" fill="#F7F3F4"/>
<path d="M97.5981 141.873V160.782H93.6002V145.668H93.4894L89.1592 148.383V144.837L93.8403 141.873H97.5981ZM108.888 146.601L111.491 151.559L114.16 146.601H118.195L114.086 153.692L118.305 160.782H114.289L111.491 155.88L108.74 160.782H104.678L108.888 153.692L104.825 146.601H108.888Z" fill="black"/>
<path d="M436.901 20.8827C436.901 10.3522 428.336 1.83031 417.806 1.88296L246.574 2.73912C242.33 2.76034 238.901 6.20655 238.901 10.4503C238.901 13.1012 240.293 15.5809 242.521 17.1079C256.923 26.9748 265.621 38.0767 268.687 49.945C271.758 61.8324 269.133 74.3107 261.247 86.8159C259.354 89.8178 256.36 92.9284 253.037 95.8624C249.704 98.8057 245.988 101.614 242.607 104.007C237.265 107.786 233.901 113.777 233.901 120.261V184.782C233.901 195.276 242.407 203.782 252.901 203.782H417.901C428.394 203.782 436.901 195.276 436.901 184.782V20.8827Z" fill="white" fill-opacity="0.5" stroke="black" stroke-width="2"/>
<path d="M287.168 105.782L276.9 112.038L291.316 117.75L301.924 110.406L287.168 105.782Z" fill="#A8A7A5"/>
<path d="M291.316 117.75L276.9 112.038V127.27L291.316 133.526L301.924 125.094V110.406L291.316 117.75Z" fill="#828181"/>
<path d="M259.168 105.782L248.9 112.038L263.316 117.75L273.924 110.406L259.168 105.782Z" fill="#B9511E"/>
<path d="M263.316 117.75L248.9 112.038V127.27L263.316 133.526L273.924 125.094V110.406L263.316 117.75Z" fill="#8B3100"/>
<path d="M274.168 117.782L263.9 124.038L278.316 129.75L288.924 122.406L274.168 117.782Z" fill="#5AB12F"/>
<path d="M278.316 129.75L263.9 124.038V139.27L278.316 145.526L288.924 137.094V122.406L278.316 129.75Z" fill="#3FA938"/>
<path d="M313.897 133.83L312.782 136.301L315.304 135.306L336.204 127.056L338.796 126.032L336.204 125.009L315.304 116.759L312.831 115.783L313.891 118.221C315.278 121.409 315.934 123.774 315.942 126.07C315.949 128.361 315.311 130.699 313.897 133.83Z" fill="black" stroke="#FAEAD3" stroke-width="2.2"/>
<path d="M392.863 104.39L392.847 103.885L392.402 103.647L377.956 95.9104L377.511 95.6722L377.082 95.9383L363.159 104.581L362.73 104.847L362.746 105.351L363.269 121.73L363.285 122.235L363.73 122.473L378.177 130.21L378.621 130.448L379.05 130.182L392.973 121.539L393.402 121.273L393.386 120.769L392.863 104.39Z" fill="#93561C" stroke="#2E1903" stroke-width="1.748"/>
<path d="M422.864 103.422L422.848 102.917L422.403 102.679L407.957 94.9422L407.512 94.704L407.083 94.9701L393.16 103.613L392.731 103.879L392.747 104.383L393.27 120.762L393.286 121.267L393.731 121.505L408.177 129.241L408.622 129.48L409.051 129.214L422.974 120.571L423.403 120.305L423.387 119.801L422.864 103.422Z" fill="#93561C" stroke="#2E1903" stroke-width="1.748"/>
<path d="M378.28 131.332L378.264 130.828L377.819 130.59L363.373 122.853L362.928 122.615L362.499 122.881L348.576 131.523L348.147 131.789L348.163 132.294L348.686 148.673L348.702 149.177L349.147 149.416L363.593 157.152L364.038 157.391L364.467 157.124L378.39 148.482L378.819 148.216L378.803 147.712L378.28 131.332Z" fill="#93561C" stroke="#2E1903" stroke-width="1.748"/>
<path d="M408.895 130.218L408.879 129.713L408.434 129.475L393.988 121.738L393.543 121.5L393.115 121.766L379.191 130.408L378.763 130.675L378.779 131.179L379.302 147.558L379.318 148.062L379.763 148.301L394.209 156.037L394.654 156.276L395.082 156.01L409.006 147.367L409.434 147.101L409.418 146.597L408.895 130.218Z" fill="#93561C" stroke="#2E1903" stroke-width="1.748"/>
<path d="M364.363 128.172L364.061 118.944L387.288 118.65L396.028 123.818L387.259 141.949L377.329 148.112L364.363 128.172Z" fill="#93561C"/>
<path d="M392.577 122.429L392.43 118.4L389.984 121.096L392.577 122.429Z" fill="#93561C"/>
<path d="M378.88 146.82L382.425 148.739L380.58 145.765L378.88 146.82Z" fill="#93561C"/>
<path d="M364.486 122.681L361.937 124.263L364.53 125.597L364.486 122.681Z" fill="#93561C"/>
<path d="M389.87 106.69L394.543 103.79L409.085 128.166L404.837 130.803L392.313 122.004L389.87 106.69Z" fill="#93561C"/>
<path d="M393.086 105.046L391.599 104.204L391.727 105.89L393.086 105.046Z" fill="#93561C"/>
<path d="M407.929 128.2L408.032 130.49L406.23 129.255L407.929 128.2Z" fill="#93561C"/>
<path d="M306.611 6.98573L306.151 6.72015L305.691 6.98573L290.752 15.6107L290.292 15.8763V16.4075V33.6575V34.1886L290.752 34.4542L305.691 43.0792L306.151 43.3448L306.611 43.0792L321.55 34.4542L322.01 34.1886V33.6575V16.4075V15.8763L321.55 15.6107L306.611 6.98573Z" fill="black" stroke="#FAEAD3" stroke-width="1.84"/>
<path d="M322.611 34.9857L322.151 34.7201L321.691 34.9857L306.752 43.6107L306.292 43.8763V44.4075V61.6575V62.1886L306.752 62.4542L321.691 71.0792L322.151 71.3448L322.611 71.0792L337.55 62.4542L338.01 62.1886V61.6575V44.4075V43.8763L337.55 43.6107L322.611 34.9857Z" fill="black" stroke="#FAEAD3" stroke-width="1.84"/>
<path d="M354.611 34.9857L354.151 34.7201L353.691 34.9857L338.752 43.6107L338.292 43.8763V44.4075V61.6575V62.1886L338.752 62.4542L353.691 71.0792L354.151 71.3448L354.611 71.0792L369.55 62.4542L370.01 62.1886V61.6575V44.4075V43.8763L369.55 43.6107L354.611 34.9857Z" fill="black" stroke="#FAEAD3" stroke-width="1.84"/>
<path d="M338.611 6.98573L338.151 6.72015L337.691 6.98573L322.752 15.6107L322.292 15.8763V16.4075V33.6575V34.1886L322.752 34.4542L337.691 43.0792L338.151 43.3448L338.611 43.0792L353.55 34.4542L354.01 34.1886V33.6575V16.4075V15.8763L353.55 15.6107L338.611 6.98573Z" fill="black" stroke="#FAEAD3" stroke-width="1.84"/>
<path d="M370.611 6.98573L370.151 6.72015L369.691 6.98573L354.752 15.6107L354.292 15.8763V16.4075V33.6575V34.1886L354.752 34.4542L369.691 43.0792L370.151 43.3448L370.611 43.0792L385.55 34.4542L386.01 34.1886V33.6575V16.4075V15.8763L385.55 15.6107L370.611 6.98573Z" fill="black" stroke="#FAEAD3" stroke-width="1.84"/>
<circle cx="219" cy="61" r="38.75" fill="black" fill-opacity="0.5" stroke="black" stroke-width="2.5"/>
<path d="M208.748 43.6364V80H199.959V43.6364H208.748ZM223.055 43.6364V80H214.265V43.6364H223.055ZM237.361 43.6364V80H228.572V43.6364H237.361Z" fill="#F7F3F4"/>
</svg>
