<svg width="438" height="205" viewBox="0 0 438 205" fill="none" xmlns="http://www.w3.org/2000/svg">
<path d="M20.9949 1.88296L192.227 2.73912C196.471 2.76034 199.9 6.20655 199.9 10.4503C199.9 13.1012 198.508 15.5809 196.279 17.1079C181.878 26.9748 173.18 38.0767 170.114 49.945C167.043 61.8324 169.668 74.3107 177.554 86.8159C179.447 89.8178 182.44 92.9284 185.763 95.8624C189.097 98.8057 192.812 101.614 196.194 104.007C201.536 107.786 204.9 113.777 204.9 120.261V184.782C204.9 195.276 196.393 203.782 185.9 203.782H20.8999C10.4065 203.782 1.8999 195.276 1.8999 184.782V20.8827C1.8999 10.3522 10.4645 1.83031 20.9949 1.88296Z" fill="#868686" fill-opacity="0.6" stroke="black" stroke-width="2"/>
<path d="M27.2627 17.3068L22.6501 21.9194C21.7714 22.7981 21.7714 24.2227 22.6501 25.1014L23.4456 25.8969C24.3242 26.7756 25.7489 26.7756 26.6275 25.8969L31.2402 21.2843C31.6014 20.923 32.0749 20.6954 32.5827 20.639L36.8182 20.1684C38.0067 20.0364 38.8711 18.9777 38.7628 17.7868C38.6515 16.5618 37.5557 15.667 36.3331 15.8029L28.6052 16.6615C28.0974 16.718 27.624 16.9455 27.2627 17.3068Z" fill="black"/>
<path d="M20.6616 23.9081L24.6391 19.9307L75.5508 70.8424C75.9901 71.2817 75.9901 71.994 75.5508 72.4333L73.1643 74.8198C72.725 75.2592 72.0126 75.2592 71.5733 74.8198L20.6616 23.9081Z" fill="black"/>
<path d="M19.0704 27.0901L20.6614 23.9082L24.6389 27.8856L21.4569 29.4766L19.0704 27.0901Z" fill="black"/>
<rect x="15.0933" y="31.0676" width="5.625" height="3.375" transform="rotate(-45 15.0933 31.0676)" fill="black"/>
<path d="M18.2752 27.8856L15.8887 28.6811L19.8661 32.6586L20.6616 30.2721L18.2752 27.8856Z" fill="black"/>
<path d="M13.8999 30.6699L15.8886 28.6811L19.8661 32.6586L17.8774 34.6473L13.8999 30.6699Z" fill="black"/>
<path d="M107.25 102.782L125.585 113.954L99.8426 124.154L80.8997 111.04L107.25 102.782Z" fill="#E2ECE9"/>
<path d="M99.8426 124.154L125.585 113.954V141.154L99.8426 152.325L80.8997 137.268V111.04L99.8426 124.154Z" fill="#D5D5D5"/>
<path d="M417.805 1.88296L246.573 2.73912C242.329 2.76034 238.9 6.20655 238.9 10.4503C238.9 13.1012 240.292 15.5809 242.52 17.1079C256.922 26.9748 265.62 38.0767 268.686 49.945C271.757 61.8324 269.132 74.3107 261.246 86.8159C259.353 89.8178 256.359 92.9284 253.036 95.8624C249.703 98.8057 245.987 101.614 242.606 104.007C237.264 107.786 233.9 113.777 233.9 120.261V184.782C233.9 195.276 242.406 203.782 252.9 203.782H417.9C428.393 203.782 436.9 195.276 436.9 184.782V20.8827C436.9 10.3522 428.335 1.83031 417.805 1.88296Z" fill="white" fill-opacity="0.5" stroke="black" stroke-width="2"/>
<path d="M375.8 82.7825V88.5886H353.9H352.3V90.1886V104.589V106.189H353.9H375.8V111.996V115.126L378.337 113.292L398.837 98.4802L400.657 97.1649L398.82 95.8741L378.32 81.4732L375.8 79.7032V82.7825Z" fill="black" stroke="#FAEAD3" stroke-width="3.2"/>
<path d="M337.8 82.7825V88.5886H315.9H314.3V90.1886V104.589V106.189H315.9H337.8V111.996V115.126L340.337 113.292L360.837 98.4802L362.657 97.1649L360.82 95.8741L340.32 81.4732L337.8 79.7032V82.7825Z" fill="black" stroke="#FAEAD3" stroke-width="3.2"/>
<path d="M299.8 82.7825V88.5886H277.9H276.3V90.1886V104.589V106.189H277.9H299.8V111.996V115.126L302.337 113.292L322.837 98.4802L324.657 97.1649L322.82 95.8741L302.32 81.4732L299.8 79.7032V82.7825Z" fill="black" stroke="#FAEAD3" stroke-width="3.2"/>
<path d="M322.61 9.98573L322.15 9.72015L321.69 9.98573L306.751 18.6107L306.291 18.8763V19.4075V36.6575V37.1886L306.751 37.4542L321.69 46.0792L322.15 46.3448L322.61 46.0792L337.549 37.4542L338.009 37.1886V36.6575V19.4075V18.8763L337.549 18.6107L322.61 9.98573Z" fill="black" stroke="#FAEAD3" stroke-width="1.84"/>
<path d="M354.61 9.98573L354.15 9.72015L353.69 9.98573L338.751 18.6107L338.291 18.8763V19.4075V36.6575V37.1886L338.751 37.4542L353.69 46.0792L354.15 46.3448L354.61 46.0792L369.549 37.4542L370.009 37.1886V36.6575V19.4075V18.8763L369.549 18.6107L354.61 9.98573Z" fill="black" stroke="#FAEAD3" stroke-width="1.84"/>
<path d="M277.568 146.782L262.9 155.72L283.494 163.88L298.648 153.388L277.568 146.782Z" fill="#B9511E"/>
<path d="M283.494 163.88L262.9 155.72V177.48L283.494 186.417L298.648 174.371V153.388L283.494 163.88Z" fill="#8B3100"/>
<path d="M308.304 154.759L305.831 153.783L306.891 156.221C308.278 159.409 308.934 161.774 308.942 164.07C308.949 166.361 308.311 168.699 306.897 171.83L305.782 174.301L308.304 173.306L329.204 165.056L331.796 164.032L329.204 163.009L308.304 154.759Z" fill="black" stroke="#FAEAD3" stroke-width="2.2"/>
<path d="M353.3 160.09L352.9 159.859L352.5 160.09L339.51 167.59L339.11 167.821V168.282V183.282V183.744L339.51 183.975L352.5 191.475L352.9 191.706L353.3 191.475L366.291 183.975L366.691 183.744V183.282V168.282V167.821L366.291 167.59L353.3 160.09Z" fill="black" stroke="#FAEAD3" stroke-width="1.6"/>
<path d="M395.3 136.09L394.9 135.859L394.5 136.09L381.51 143.59L381.11 143.821V144.282V159.282V159.744L381.51 159.975L394.5 167.475L394.9 167.706L395.3 167.475L408.291 159.975L408.691 159.744V159.282V144.282V143.821L408.291 143.59L395.3 136.09Z" fill="black" stroke="#FAEAD3" stroke-width="1.6"/>
<path d="M381.3 160.09L380.9 159.859L380.5 160.09L367.51 167.59L367.11 167.821V168.282V183.282V183.744L367.51 183.975L380.5 191.475L380.9 191.706L381.3 191.475L394.291 183.975L394.691 183.744V183.282V168.282V167.821L394.291 167.59L381.3 160.09Z" fill="black" stroke="#FAEAD3" stroke-width="1.6"/>
<path d="M367.3 136.09L366.9 135.859L366.5 136.09L353.51 143.59L353.11 143.821V144.282V159.282V159.744L353.51 159.975L366.5 167.475L366.9 167.706L367.3 167.475L380.291 159.975L380.691 159.744V159.282V144.282V143.821L380.291 143.59L367.3 136.09Z" fill="black" stroke="#FAEAD3" stroke-width="1.6"/>
<path d="M357.871 181.108C355.918 179.156 355.918 175.99 357.871 174.037L386.155 145.753C388.108 143.8 391.274 143.8 393.226 145.753L394.641 147.167C396.593 149.12 396.593 152.286 394.641 154.238L366.356 182.523C364.404 184.475 361.238 184.475 359.285 182.523L357.871 181.108Z" fill="#D61616"/>
<path d="M393.226 182.523C391.274 184.475 388.108 184.475 386.155 182.523L357.871 154.238C355.918 152.286 355.918 149.12 357.871 147.167L359.285 145.753C361.238 143.8 364.404 143.8 366.356 145.753L394.641 174.037C396.593 175.99 396.593 179.156 394.641 181.108L393.226 182.523Z" fill="#D61616"/>
<circle cx="219" cy="60" r="38.75" fill="black" fill-opacity="0.5" stroke="black" stroke-width="2.5"/>
</svg>
