<?xml version="1.0" standalone="no"?>
<!DOCTYPE svg PUBLIC "-//W3C//DTD SVG 20010904//EN"
 "http://www.w3.org/TR/2001/REC-SVG-20010904/DTD/svg10.dtd">
<svg version="1.0" xmlns="http://www.w3.org/2000/svg"
 width="967.000000pt" height="1280.000000pt" viewBox="0 0 967.000000 1280.000000"
 preserveAspectRatio="xMidYMid meet">
<g transform="translate(0.000000,1280.000000) scale(0.100000,-0.100000)"
fill="#000000" stroke="none">
<path d="M7416 12774 c-116 -31 -207 -76 -338 -166 -161 -111 -266 -205 -430
-387 -111 -123 -182 -215 -277 -356 -153 -228 -176 -267 -326 -554 -138 -267
-192 -352 -242 -386 -152 -103 -317 -220 -493 -350 -248 -184 -308 -225 -326
-225 -7 0 -64 45 -125 100 -62 55 -122 103 -136 106 -16 4 -35 -2 -61 -18 -36
-24 -277 -243 -316 -287 -11 -11 -25 -21 -32 -21 -8 0 -58 39 -111 86 -135
118 -260 213 -443 334 -85 57 -175 120 -199 139 -80 67 -145 163 -250 373 -55
111 -119 226 -141 253 -22 28 -55 83 -75 123 -64 135 -255 391 -392 526 -178
176 -493 393 -699 481 -75 32 -103 39 -179 43 -75 3 -93 1 -104 -12 -36 -43
32 -120 198 -226 164 -104 259 -173 402 -292 260 -215 571 -552 716 -775 67
-103 213 -368 213 -387 0 -8 42 -61 94 -117 151 -167 295 -290 562 -479 173
-123 232 -171 252 -207 18 -34 -3 -67 -93 -148 -137 -123 -218 -276 -218 -415
0 -50 6 -88 17 -114 28 -62 89 -147 140 -194 75 -69 116 -83 285 -93 251 -15
262 -18 236 -70 -9 -16 -30 -36 -48 -45 -56 -29 -85 -56 -155 -138 -37 -44
-86 -100 -110 -124 -53 -54 -97 -141 -123 -241 -64 -244 -65 -634 -3 -770 29
-65 30 -73 4 -96 -33 -30 -103 -16 -152 31 -21 22 -49 55 -61 74 -11 19 -60
87 -108 150 -48 63 -106 147 -129 185 -61 100 -179 351 -186 397 -4 21 -15 44
-25 51 -10 7 -77 136 -149 287 -72 151 -155 325 -185 385 -33 68 -144 246
-285 458 -221 333 -334 511 -373 587 -9 19 -68 97 -131 172 -248 300 -295 341
-412 361 -93 16 -99 21 -72 58 l23 30 -20 34 c-50 84 -292 322 -436 427 -75
55 -100 94 -148 232 -17 48 -34 93 -37 98 -4 5 -15 -4 -25 -21 -10 -17 -26
-31 -35 -31 -19 0 -125 109 -191 195 -49 64 -103 168 -103 198 0 55 -46 75
-74 32 -31 -47 -56 -24 -56 51 0 16 -7 39 -15 50 -15 21 -9 23 -104 -33 -27
-16 -30 -16 -55 0 -14 10 -36 36 -48 60 -20 37 -23 55 -21 149 2 104 2 108
-23 127 -47 37 -63 12 -84 -139 -22 -147 -34 -160 -209 -204 -202 -51 -197
-65 26 -84 143 -13 225 -36 262 -76 29 -31 21 -58 -24 -85 -25 -15 -35 -27
-35 -46 0 -25 0 -25 94 -25 78 0 98 -3 117 -19 l24 -19 -23 -25 -23 -24 23 -7
c13 -3 46 -6 73 -6 62 0 119 -27 123 -58 2 -12 -6 -37 -17 -56 -12 -18 -21
-38 -21 -43 0 -6 22 -13 49 -16 61 -7 96 -24 186 -92 201 -149 675 -634 675
-690 0 -7 -11 -20 -25 -29 -33 -22 -33 -59 2 -85 14 -12 58 -31 97 -43 154
-46 162 -53 571 -583 76 -99 188 -241 247 -317 120 -151 168 -239 168 -307 0
-54 44 -185 117 -344 30 -67 80 -178 110 -247 110 -249 203 -422 296 -554 51
-72 131 -185 177 -251 176 -253 325 -424 405 -465 47 -24 77 -57 89 -97 13
-42 97 -105 211 -158 132 -63 170 -99 161 -153 -3 -18 -25 -77 -50 -130 -48
-104 -66 -160 -66 -205 0 -48 -26 -84 -72 -101 -102 -37 -283 -52 -433 -37
-98 10 -120 16 -200 56 -49 24 -126 67 -170 95 -168 108 -534 274 -695 315
-51 13 -93 16 -190 12 -147 -6 -248 -33 -289 -77 -77 -82 -236 -318 -273 -406
-9 -21 -47 -108 -83 -192 -37 -84 -98 -239 -136 -345 -39 -106 -90 -236 -115
-290 -42 -91 -117 -309 -179 -520 -15 -52 -30 -135 -35 -200 -11 -129 -26
-187 -67 -254 -39 -64 -60 -125 -68 -198 -8 -67 -89 -343 -136 -463 -45 -113
-95 -197 -156 -265 l-55 -59 32 -33 c43 -44 33 -60 -72 -121 -46 -26 -95 -60
-110 -75 -52 -52 -27 -80 48 -54 103 35 98 13 -21 -101 -121 -116 -125 -142
-16 -122 64 11 81 6 81 -26 0 -29 -40 -63 -148 -125 -108 -63 -131 -111 -58
-125 42 -8 76 -40 76 -71 0 -39 -61 -114 -166 -206 -138 -120 -165 -159 -129
-189 11 -9 25 -10 65 0 39 9 58 21 82 51 68 85 141 71 294 -58 28 -24 54 -43
58 -43 3 0 6 25 6 56 0 47 -6 66 -35 113 -20 32 -38 73 -41 92 -6 32 -2 38 41
74 26 21 54 54 62 73 8 18 18 87 22 152 12 165 48 233 100 186 18 -16 19 -12
26 75 8 112 16 133 52 151 31 15 40 42 42 129 1 73 27 156 51 169 24 13 45 82
64 210 22 147 41 215 95 352 28 69 71 199 97 289 45 162 64 212 84 224 21 13
50 -8 80 -57 17 -27 34 -47 38 -44 3 4 9 113 13 244 8 263 18 331 73 464 39
95 67 188 91 303 10 44 34 121 55 170 21 50 84 205 140 345 159 398 196 467
272 506 27 14 35 13 96 -7 37 -12 251 -100 476 -196 654 -278 653 -277 1037
-293 288 -12 369 -26 408 -73 22 -27 -6 -66 -56 -78 -31 -8 -48 -20 -63 -44
-32 -53 -124 -82 -360 -114 -80 -11 -203 -25 -275 -30 -356 -29 -488 -43 -576
-61 -249 -51 -679 -246 -770 -349 -167 -189 -283 -647 -348 -1376 -29 -326
-33 -393 -36 -689 -4 -310 -16 -402 -105 -821 -28 -132 -73 -350 -101 -484
-58 -288 -96 -409 -155 -498 -46 -70 -47 -90 -4 -113 36 -19 24 -57 -40 -132
-33 -38 -60 -73 -60 -78 0 -5 21 -10 48 -12 40 -3 47 -6 50 -25 5 -35 -24 -78
-119 -178 -49 -52 -89 -96 -89 -99 0 -3 14 -21 31 -40 l30 -35 -55 -54 c-45
-43 -56 -60 -56 -86 0 -26 7 -36 35 -52 29 -18 35 -27 35 -55 0 -57 -47 -151
-142 -287 -100 -144 -159 -253 -160 -298 -1 -22 8 -40 30 -62 17 -17 34 -28
38 -24 4 4 11 30 15 58 19 119 93 185 200 177 69 -5 96 -25 105 -77 5 -31 34
-120 60 -185 7 -19 8 -19 15 0 14 35 9 148 -11 238 -35 158 -19 343 35 416 52
70 122 92 143 44 9 -18 19 -24 35 -22 18 2 23 10 25 43 2 34 -4 49 -43 102
-70 94 -84 167 -41 206 15 13 38 22 58 22 42 0 61 36 60 117 -1 50 2 58 18 58
10 0 22 -4 25 -10 9 -15 41 -12 56 6 14 17 15 15 -42 100 -14 22 -34 61 -44
87 -22 58 -13 72 48 72 42 0 42 0 39 35 -2 19 -4 103 -5 185 -1 152 10 243 54
433 31 134 45 223 99 607 22 159 47 272 63 293 16 21 56 13 129 -25 44 -23 72
-33 79 -26 6 6 2 44 -11 107 -11 54 -20 121 -20 150 0 28 -6 61 -14 72 -46 65
-66 265 -66 652 0 441 30 786 96 1111 33 165 50 203 110 241 113 71 283 120
758 216 475 96 570 118 801 185 479 140 561 156 629 124 39 -19 86 -77 86
-107 0 -47 -139 -150 -273 -202 -93 -37 -110 -55 -82 -86 31 -35 47 -39 187
-55 153 -18 168 -21 168 -40 0 -7 -60 -42 -132 -78 -246 -122 -398 -240 -549
-427 -84 -104 -141 -215 -173 -340 -75 -294 -105 -703 -72 -970 26 -201 73
-405 112 -481 13 -26 35 -78 49 -116 37 -99 156 -323 230 -433 149 -225 279
-332 630 -524 173 -95 277 -166 313 -215 12 -17 28 -31 35 -31 17 0 76 63 117
125 56 83 148 172 289 277 139 105 335 291 387 368 17 25 41 74 54 110 12 36
58 143 101 237 143 314 149 346 149 850 0 548 -23 700 -140 938 -123 248 -384
517 -614 630 -71 36 -110 48 -181 58 -66 9 -90 16 -90 27 0 8 54 45 120 82
120 69 175 111 175 134 0 13 -15 16 -110 29 -25 3 -67 13 -95 22 -83 26 -255
111 -255 125 0 20 160 169 199 185 50 21 95 18 215 -16 86 -24 127 -31 195
-30 65 1 108 -5 176 -25 147 -42 564 -123 830 -161 340 -49 508 -85 695 -151
235 -81 262 -109 320 -331 28 -107 177 -950 222 -1258 7 -50 13 -177 13 -285
l0 -195 -52 -153 c-32 -93 -53 -170 -52 -195 l0 -42 42 48 c23 26 63 85 88
130 61 109 74 109 115 -2 18 -47 37 -119 43 -160 7 -42 17 -105 23 -141 26
-165 127 -518 175 -614 32 -64 53 -193 53 -332 0 -168 23 -261 56 -233 11 9
18 8 29 -1 18 -15 19 -47 0 -125 -18 -74 -12 -109 17 -94 10 6 33 7 49 4 36
-8 49 -36 49 -104 0 -68 24 -150 62 -211 l33 -53 0 -146 0 -146 70 3 c66 3 72
2 99 -25 62 -61 81 -103 81 -178 -1 -90 -23 -141 -104 -230 -62 -68 -70 -89
-40 -108 39 -24 117 29 218 148 46 54 80 83 118 101 51 25 59 26 152 20 63 -5
113 -3 139 4 44 11 105 56 97 70 -5 9 -82 22 -222 39 -95 12 -147 35 -191 86
-77 87 -91 162 -42 218 17 19 30 41 30 50 0 8 -25 36 -55 61 -72 62 -94 95
-111 167 -8 33 -35 100 -60 147 -43 81 -46 91 -42 147 4 54 1 69 -37 150 -23
50 -45 102 -49 117 -3 14 -21 46 -39 70 -36 48 -87 155 -87 184 0 10 -17 52
-39 94 -44 85 -76 182 -86 255 -4 28 -26 113 -50 190 -69 220 -152 525 -179
659 -16 78 -29 189 -36 311 -14 255 -42 478 -96 785 -33 188 -48 252 -90 380
-18 58 -56 187 -83 286 -89 325 -149 448 -270 547 -190 154 -386 248 -706 336
-295 81 -624 131 -870 131 -181 0 -387 39 -458 86 -49 32 -48 67 2 101 45 30
81 40 235 63 71 11 153 26 181 35 28 8 110 28 182 44 78 18 182 50 259 82 120
49 462 217 804 393 204 106 238 103 327 -26 108 -157 287 -522 403 -823 34
-88 95 -238 136 -332 41 -95 86 -212 100 -260 62 -205 65 -232 37 -273 -20
-28 -33 -103 -26 -143 l6 -28 43 48 c51 58 64 55 111 -33 89 -162 284 -732
313 -911 17 -108 19 -111 48 -125 27 -13 27 -15 27 -109 0 -105 7 -123 54
-132 37 -8 47 -39 56 -170 4 -53 10 -97 14 -97 3 0 23 11 43 25 66 45 79 33
67 -60 -9 -76 -11 -190 -2 -198 11 -11 33 14 33 38 0 12 7 29 16 36 15 12 21
8 55 -31 22 -25 65 -96 96 -157 48 -94 58 -123 61 -176 5 -70 -5 -97 -72 -196
-36 -54 -42 -81 -19 -88 20 -7 89 64 152 157 34 49 73 98 87 109 30 23 91 37
227 49 81 8 102 13 122 32 14 13 25 28 25 34 0 20 -81 106 -99 106 -10 0 -26
-9 -35 -19 -21 -23 -97 -51 -138 -51 -45 0 -90 24 -127 65 -55 64 -66 97 -66
219 l0 110 -62 50 c-68 57 -78 82 -35 92 67 14 70 20 19 43 -26 11 -70 41 -97
67 -72 67 -66 100 20 106 37 2 46 7 48 24 4 29 -23 48 -108 74 -56 16 -83 31
-108 57 -44 47 -39 65 23 78 86 19 74 39 -67 119 -54 30 -61 40 -89 133 -29
94 -139 374 -204 518 -29 66 -68 173 -85 238 -17 65 -40 137 -50 160 -25 55
-25 98 1 149 13 25 22 63 23 94 1 44 -3 56 -25 76 -33 31 -72 113 -147 309
-62 162 -106 256 -172 368 -30 52 -60 144 -60 187 0 1 -19 25 -43 53 -24 28
-77 114 -118 193 -53 102 -89 158 -126 196 -32 33 -53 63 -53 77 0 82 -263
285 -370 285 -51 0 -110 -19 -321 -104 -250 -100 -458 -196 -556 -256 -107
-65 -433 -226 -497 -245 -73 -22 -99 -19 -174 20 -74 39 -123 50 -257 61 -100
7 -149 27 -181 71 -36 49 -134 239 -134 260 0 23 22 36 105 58 80 23 132 50
178 94 53 49 78 103 84 175 9 108 72 200 222 325 56 47 156 163 237 276 147
203 254 403 320 596 24 72 55 152 69 179 13 26 59 149 101 272 114 335 213
545 397 848 129 212 363 534 468 644 38 41 69 81 69 90 0 70 179 298 575 731
100 110 195 216 211 235 15 19 47 56 71 82 24 26 43 57 43 70 0 13 6 30 13 39
27 35 104 80 169 100 77 22 82 34 25 62 -20 10 -34 24 -31 30 6 17 97 70 157
92 26 10 46 23 44 29 -2 6 -24 25 -50 41 -28 18 -47 37 -47 49 0 40 192 186
274 206 59 16 66 18 66 27 -1 20 -20 31 -90 52 -152 46 -153 47 -170 161 -12
78 -28 130 -39 130 -4 0 -22 -13 -40 -28 l-34 -28 12 -100 c18 -151 -9 -240
-89 -304 -36 -29 -46 -32 -85 -27 -54 8 -61 0 -68 -82 -6 -77 -33 -114 -67
-93 -11 6 -26 12 -34 12 -15 0 -36 -49 -36 -84 0 -33 -43 -116 -87 -169 -52
-62 -103 -99 -150 -106 -37 -6 -38 -7 -49 -71 -11 -70 -44 -141 -107 -235 -40
-59 -239 -323 -317 -420 -22 -27 -67 -84 -99 -125 -64 -82 -204 -220 -296
-290 -50 -39 -66 -59 -110 -145 -28 -55 -105 -185 -170 -290 -123 -195 -205
-345 -205 -371 0 -8 -12 -20 -26 -26 -16 -8 -37 -35 -56 -72 -28 -55 -220
-474 -335 -730 -46 -103 -97 -288 -91 -334 3 -25 6 -22 46 37 23 35 47 80 52
100 6 20 32 83 58 141 37 82 52 105 67 105 33 0 24 -65 -20 -148 -20 -40 -52
-119 -71 -176 -58 -175 -238 -496 -401 -713 -77 -101 -105 -128 -135 -128 -13
0 -18 8 -18 30 0 23 12 41 51 77 43 41 99 125 99 150 0 19 -81 -75 -156 -182
-206 -293 -233 -325 -275 -325 -50 0 -58 45 -69 367 -11 328 -18 380 -67 523
-71 208 -126 288 -311 453 -24 21 -50 53 -59 72 -15 31 -15 36 0 59 18 27 70
46 127 46 117 1 295 73 392 160 75 67 98 116 98 210 0 193 -108 414 -263 537
-82 66 -96 81 -97 105 0 34 272 257 445 363 311 190 399 267 430 371 25 86 91
211 260 494 84 140 162 274 174 297 49 97 252 312 476 503 157 135 230 191
375 286 211 138 276 215 232 273 -25 34 -48 34 -156 5z m504 -1338 c0 -28
-182 -246 -205 -246 -23 0 -28 20 -11 45 23 34 197 215 207 215 5 0 9 -6 9
-14z m-249 -288 c-13 -10 -27 -18 -32 -18 -16 0 -9 19 13 34 30 21 47 7 19
-16z m-471 -570 c0 -24 -46 -93 -60 -93 -27 0 -23 45 6 76 29 30 54 38 54 17z
m-2107 -661 c22 -34 51 -133 44 -151 -10 -24 -53 -31 -83 -11 -25 16 -25 19
-19 78 12 105 29 128 58 84z m-692 -74 c39 -35 46 -38 103 -38 34 1 84 3 112
5 70 6 84 -7 84 -77 0 -61 -20 -81 -46 -44 -25 36 -42 24 -81 -56 -47 -97 -81
-123 -160 -123 -75 0 -80 19 -19 74 25 24 46 48 46 54 0 50 -137 -58 -149
-117 -8 -40 -19 -47 -45 -28 -35 25 -25 70 37 167 18 29 22 48 20 108 -2 61 1
76 17 92 27 27 34 26 81 -17z m459 -31 c30 -24 21 -69 -15 -78 -48 -12 -102
48 -75 81 17 21 63 19 90 -3z m448 -192 c-5 -26 -71 -25 -103 3 -31 26 -39 82
-15 97 17 11 122 -78 118 -100z m-488 -694 c29 -11 35 -18 35 -42 0 -27 -3
-29 -40 -32 -47 -3 -148 44 -153 71 -3 15 5 17 60 16 35 0 79 -6 98 -13z
m-1580 -145 c34 -48 53 -112 38 -128 -8 -7 -18 -9 -26 -4 -17 10 -64 139 -57
152 10 16 23 10 45 -20z m1557 -3 c33 -30 65 -94 61 -121 -2 -16 -14 -24 -48
-32 l-45 -11 0 -50 c0 -46 -2 -49 -25 -49 -20 0 -27 -7 -36 -35 -14 -42 -31
-49 -43 -17 -14 36 -59 67 -98 67 -49 0 -70 -14 -77 -54 -7 -39 -21 -53 -56
-58 -21 -2 -27 -11 -37 -52 -13 -54 -34 -82 -52 -72 -6 4 -21 26 -33 49 -31
59 -31 156 1 217 53 100 195 199 338 235 72 18 119 13 150 -17z m284 12 c44
-24 1 -70 -69 -73 -38 -1 -72 15 -72 34 0 16 64 49 93 49 16 0 37 -5 48 -10z
m-253 -474 c5 -54 -29 -90 -43 -46 -8 26 13 92 28 87 7 -2 13 -20 15 -41z m92
-364 c31 -24 37 -58 14 -83 -25 -28 -51 -23 -69 12 -10 19 -32 37 -61 49 -72
31 -52 52 41 45 27 -3 61 -13 75 -23z m-226 -8 c20 -53 -13 -134 -55 -134 -24
0 -44 40 -35 73 14 58 75 100 90 61z m376 -379 c27 -33 -27 -93 -75 -81 -33 8
-33 40 1 71 30 28 56 32 74 10z m2035 -455 c0 -11 -13 -16 -47 -18 -49 -3 -62
9 -30 27 25 16 77 9 77 -9z m-1993 -72 c26 -13 38 -72 38 -189 0 -89 4 -117
25 -173 14 -37 25 -83 25 -104 0 -41 -21 -79 -37 -69 -14 9 -39 101 -58 217
-31 183 -44 220 -93 268 -26 25 -41 47 -36 52 20 19 97 18 136 -2z m-552 -118
c58 -30 53 -50 -12 -47 l-53 2 -7 -70 c-10 -81 -29 -118 -61 -113 -70 10 -46
191 31 232 37 20 56 20 102 -4z m-1917 -19 c20 -20 -8 -32 -68 -29 -63 3 -83
21 -43 38 27 12 96 6 111 -9z m4017 4 c0 -22 -81 -78 -195 -135 -105 -53 -135
-60 -135 -34 0 28 114 105 230 155 73 32 100 36 100 14z m-3434 -278 c32 -28
27 -70 -8 -65 -27 4 -63 52 -55 72 9 22 31 20 63 -7z m4736 -224 c25 -30 40
-84 27 -100 -10 -11 -15 -11 -32 4 -11 10 -26 32 -33 50 -23 53 4 85 38 46z
m-2446 -278 c29 -44 -18 -75 -58 -38 -22 20 -22 27 -2 47 22 23 41 20 60 -9z
m709 -60 c237 -23 330 -45 359 -87 41 -58 7 -78 -80 -47 -57 20 -380 101 -456
114 -20 4 -45 13 -55 21 -16 12 -13 13 28 14 25 0 117 -7 204 -15z m590 -103
c44 -17 71 -34 73 -45 3 -15 -6 -17 -78 -17 -114 0 -174 29 -156 75 9 24 82
18 161 -13z m-3290 -111 c6 -10 -52 -23 -180 -41 -132 -19 -505 -80 -578 -96
-114 -24 -125 -14 -35 32 97 49 309 89 548 103 198 12 238 12 245 2z m4743
-279 c3 -58 -10 -92 -37 -92 -38 0 -56 104 -25 148 14 21 18 22 37 9 17 -11
23 -26 25 -65z m-6658 -20 c0 -73 -64 -244 -96 -256 -28 -11 -36 4 -29 52 8
53 51 176 72 209 22 33 53 30 53 -5z m3095 -578 c69 -28 117 -64 106 -77 -27
-34 -215 -47 -244 -18 -15 15 1 42 36 59 16 8 27 21 27 33 0 24 24 25 75 3z
m-245 -160 c8 -8 20 -29 26 -47 10 -28 15 -32 49 -32 55 0 73 -29 86 -140 16
-131 9 -182 -30 -214 l-31 -26 -2 -178 c-3 -185 -12 -219 -36 -131 -18 68 -33
104 -42 104 -20 0 -32 -70 -21 -121 18 -83 3 -97 -112 -101 -66 -3 -70 -2 -97
28 -26 30 -32 48 -60 185 -12 61 -31 85 -70 91 -31 4 -55 46 -46 81 4 16 22
37 47 53 44 28 51 61 11 56 -33 -5 -85 31 -111 78 -38 69 -41 190 -5 204 41
16 84 -32 84 -93 0 -48 9 -61 45 -61 37 0 50 12 59 56 9 39 29 58 78 73 32 11
39 19 49 54 17 62 29 84 53 95 24 12 54 6 76 -14z m3370 -158 c0 -18 -7 -41
-15 -52 -13 -16 -16 -17 -25 -4 -13 21 -13 83 2 98 18 18 38 -5 38 -42z
m-3092 -25 c3 -51 -11 -87 -29 -75 -11 6 -12 117 -2 128 16 16 28 -4 31 -53z
m-2734 -199 c-1 -77 -44 -84 -44 -8 0 47 6 58 30 54 11 -3 15 -15 14 -46z
m1994 -68 c4 -29 -23 -54 -59 -54 -40 0 -48 25 -18 56 29 31 72 30 77 -2z
m662 -173 c18 -36 25 -41 75 -51 30 -6 57 -16 60 -21 4 -5 17 -9 31 -9 20 0
29 9 45 46 17 37 23 43 35 33 10 -8 14 -33 14 -84 0 -76 -12 -101 -43 -89 -9
3 -39 -7 -66 -22 -57 -32 -69 -28 -80 28 -6 29 -11 33 -43 36 -46 4 -55 16
-68 82 -17 91 5 119 40 51z m3278 -64 c36 -74 81 -403 62 -452 -25 -65 -51 15
-90 270 -26 168 -26 218 -3 213 10 -2 24 -16 31 -31z m-5966 -239 c11 -267 23
-383 55 -504 31 -119 27 -136 -28 -114 -65 27 -97 159 -106 436 -6 196 3 290
33 363 27 64 37 24 46 -181z m2148 181 c14 -25 3 -78 -16 -86 -21 -8 -27 1
-27 45 0 61 22 82 43 41z m-216 -199 c37 -14 33 -38 -8 -45 -34 -7 -76 7 -76
25 0 10 30 29 47 30 6 0 23 -4 37 -10z m132 -75 c8 -31 -8 -80 -27 -80 -15 0
-25 64 -15 91 9 23 35 16 42 -11z m205 -10 c57 -8 154 -19 214 -25 144 -14
162 -18 185 -43 28 -29 28 -97 1 -97 -11 0 -28 12 -39 27 l-20 27 -7 -52 c-4
-32 -12 -52 -20 -52 -7 0 -31 21 -55 46 -23 25 -44 44 -46 41 -3 -2 2 -54 10
-115 8 -61 12 -120 9 -131 -8 -30 -30 -26 -49 10 -15 31 -17 31 -68 25 -29 -3
-65 -8 -82 -11 -48 -10 -67 12 -72 86 -2 35 -10 69 -16 74 -15 12 -106 160
-106 172 0 14 23 33 40 33 9 0 63 -7 121 -15z m689 -286 c14 -26 12 -66 -4
-72 -23 -9 -56 22 -56 52 0 49 38 62 60 20z m-933 -81 c29 -33 34 -44 27 -62
-8 -21 -48 -21 -68 0 -19 18 -21 55 -4 72 17 17 22 15 45 -10z m564 -5 c21
-53 -2 -185 -27 -160 -20 20 -14 187 7 187 5 0 14 -12 20 -27z m172 -94 c44
-23 46 -41 11 -72 -14 -12 -33 -39 -41 -60 -10 -25 -21 -37 -32 -35 -24 5 -29
139 -6 162 19 19 38 20 68 5z m237 -229 c38 -20 54 -49 28 -51 -57 -5 -108 20
-108 51 0 26 29 26 80 0z m-221 -239 c23 -15 4 -28 -61 -41 -74 -14 -93 -23
-123 -58 -19 -22 -25 -24 -38 -13 -9 7 -17 25 -19 39 l-3 27 -18 -32 c-26 -49
-53 -42 -76 20 -9 23 -7 31 9 47 18 18 34 20 168 20 81 0 153 -4 161 -9z m242
-734 c8 -29 7 -43 -1 -51 -17 -17 -70 46 -70 83 0 61 52 37 71 -32z"/>
<path d="M4362 3595 c0 -16 2 -22 5 -12 2 9 2 23 0 30 -3 6 -5 -1 -5 -18z"/>
<path d="M7579 10725 c-33 -18 -44 -44 -24 -52 38 -14 115 22 115 54 0 18 -57
16 -91 -2z"/>
<path d="M6011 8463 c-29 -49 -67 -107 -82 -131 -47 -70 -33 -118 19 -65 27
27 126 255 120 274 -2 5 -27 -30 -57 -78z"/>
</g>
</svg>
