<svg version="1.0" xmlns="http://www.w3.org/2000/svg"
 width="626.000000pt" height="351.000000pt" viewBox="0 0 626.000000 351.000000"
 preserveAspectRatio="xMidYMid meet">

<g transform="translate(0.000000,351.000000) scale(0.100000,-0.100000)"
fill="#000000" stroke="none">
<path d="M3591 2931 c-7 -5 -11 -12 -9 -16 5 -14 -28 -29 -48 -21 -15 6 -16 9
-5 16 10 5 1 8 -25 8 -21 0 -178 3 -349 7 -575 14 -1021 -40 -1500 -180 -528
-155 -941 -382 -1246 -685 -136 -135 -180 -195 -168 -227 9 -25 3 -31 -57 -61
-34 -18 -43 -28 -52 -64 -10 -37 -9 -45 6 -60 15 -15 26 -16 100 -6 45 6 85 8
88 5 3 -3 1 -21 -4 -40 -8 -30 -7 -38 9 -53 45 -41 13 -129 -65 -179 l-56 -36
0 -73 c0 -40 6 -91 14 -113 13 -36 12 -44 -5 -83 -10 -23 -19 -48 -19 -55 0
-15 54 -30 69 -20 10 6 51 -28 51 -42 0 -4 19 -26 42 -50 l42 -43 -21 -67
c-32 -101 -32 -115 -3 -123 14 -5 84 -15 157 -25 73 -9 149 -21 170 -26 70
-18 227 -38 290 -39 l63 0 -6 -57 c-5 -51 -4 -60 15 -77 20 -18 22 -18 128 18
60 21 113 44 119 52 10 13 25 11 110 -10 55 -13 135 -29 179 -36 44 -7 82 -14
84 -16 2 -2 -4 -13 -14 -24 -17 -19 -17 -22 -3 -36 15 -15 19 -15 46 1 28 17
31 17 77 -1 l49 -18 -30 -13 c-16 -6 -35 -12 -41 -13 -7 0 -13 -5 -13 -11 0
-6 -10 -19 -22 -29 -19 -15 -21 -21 -10 -32 19 -19 160 -15 201 7 25 13 36 14
47 4 11 -9 42 -4 141 21 70 17 161 38 201 46 71 14 77 13 155 -11 57 -17 96
-37 130 -64 26 -22 54 -38 62 -35 7 3 24 -2 38 -10 22 -15 30 -15 97 0 73 17
74 17 91 -5 15 -18 27 -21 102 -21 69 0 89 -4 110 -20 31 -25 36 -25 110 2 57
21 66 21 181 11 67 -7 162 -21 211 -33 51 -13 127 -23 175 -24 84 -1 84 -1 85
24 0 29 -6 29 143 5 l113 -18 24 23 c14 13 27 31 30 41 4 10 27 25 54 34 37
12 55 26 75 55 21 32 35 41 83 55 32 9 76 21 97 28 22 6 41 19 43 28 8 27 48
32 92 10 21 -11 76 -25 122 -31 112 -14 132 -13 126 4 -4 10 7 15 41 19 26 3
69 16 97 28 l49 22 -44 39 c-36 32 -49 38 -69 32 -89 -23 -88 -23 -88 7 0 18
11 38 29 56 26 25 35 28 89 25 132 -6 180 -5 324 6 168 14 214 22 251 47 23
15 24 18 10 33 -15 17 -60 41 -148 81 -27 11 -48 25 -48 29 0 5 27 32 59 61
33 28 63 60 66 71 6 18 12 20 55 14 50 -7 118 10 194 48 33 17 37 23 33 46 -3
15 -9 55 -12 88 l-7 62 43 6 c24 4 68 12 96 17 52 10 53 12 59 50 4 21 10 39
15 39 18 0 8 22 -23 51 l-33 30 82 79 82 80 -57 62 c-64 69 -153 131 -176 122
-16 -6 -136 53 -136 67 0 4 22 15 50 24 27 9 52 20 55 25 8 13 -135 54 -147
42 -6 -6 7 -12 36 -16 25 -4 46 -11 46 -15 0 -13 -92 -22 -126 -12 -24 7 -55
1 -152 -32 -67 -22 -120 -42 -118 -45 3 -2 40 1 83 7 56 9 91 9 123 2 31 -7
58 -7 86 0 38 10 46 8 94 -19 l52 -30 -29 -11 c-23 -9 -17 -10 37 -6 48 4 70
2 84 -9 18 -14 16 -18 -29 -70 -60 -71 -50 -73 15 -3 l49 52 66 -69 65 -69
-70 -39 -70 -39 0 -47 c0 -27 5 -53 12 -60 9 -9 4 -9 -23 -2 -18 6 -48 10 -66
10 -55 0 -157 -31 -178 -54 -11 -12 -19 -20 -18 -17 2 2 -2 10 -7 17 -20 23
-97 -14 -86 -42 3 -8 -22 -16 -77 -25 -91 -14 -91 -15 7 -24 72 -7 75 -15 13
-35 -66 -21 -34 -21 43 1 45 12 98 19 136 18 l63 -2 15 -70 c9 -38 16 -75 16
-82 0 -13 -52 -28 -137 -40 -32 -5 -44 -1 -73 24 l-35 30 50 50 c64 66 47 65
-35 -2 -65 -53 -66 -53 -99 -40 -54 22 -53 11 3 -37 l53 -45 -30 -22 c-17 -12
-35 -20 -40 -16 -6 3 -7 1 -4 -4 7 -11 -18 -36 -47 -47 -11 -4 -16 -12 -12
-22 4 -10 1 -14 -6 -11 -7 2 -12 13 -11 23 1 18 1 18 -13 0 -8 -11 -14 -24
-14 -30 0 -6 -4 -6 -11 1 -6 6 -26 7 -52 2 -27 -4 -44 -3 -48 3 -4 6 -14 8
-22 5 -9 -3 -21 1 -27 9 -18 20 -29 17 -42 -11 -6 -13 -15 -22 -19 -19 -5 3
-9 0 -9 -5 0 -6 -6 -11 -14 -11 -15 0 -27 -42 -16 -59 9 -16 66 -25 74 -12 4
6 12 8 18 5 6 -4 9 -3 6 2 -3 5 4 23 16 40 l21 31 70 -19 c68 -19 114 -42 103
-53 -3 -3 -54 -7 -114 -9 -84 -2 -120 -8 -156 -24 -25 -11 -50 -17 -54 -14 -4
4 -4 2 -1 -4 9 -15 -14 -24 -66 -25 l-42 -1 29 -12 29 -13 -74 -28 c-40 -16
-87 -32 -104 -36 -25 -6 -21 -7 23 -8 l53 -1 -23 -30 c-21 -29 -25 -30 -102
-31 -59 -1 -73 -3 -51 -9 17 -4 50 -8 74 -9 40 -1 43 -2 26 -14 -15 -12 -29
-11 -87 0 -65 14 -71 13 -90 -4 -15 -12 -19 -13 -14 -3 4 9 2 8 -7 -2 -8 -10
-19 -18 -26 -18 -6 0 -19 -4 -29 -9 -50 -25 -153 -61 -177 -61 -8 0 -22 -14
-32 -30 -9 -16 -21 -30 -26 -30 -4 0 -5 -4 -2 -10 3 -5 -24 -24 -61 -42 -60
-29 -69 -30 -98 -19 -17 7 -62 21 -100 32 -75 20 -100 34 -50 27 22 -3 30 0
27 7 -3 9 -17 10 -49 4 -67 -13 -88 -7 -92 25 -2 16 -8 24 -14 20 -7 -4 -8 -2
-4 4 4 6 1 22 -6 34 -7 13 -12 32 -13 43 0 12 -12 25 -29 33 -24 12 -30 12
-44 -2 -15 -14 -13 -17 17 -27 54 -19 28 -20 -47 -2 l-71 17 -19 -24 c-17 -21
-26 -23 -85 -21 -36 1 -105 -5 -154 -13 -48 -9 -99 -17 -113 -19 -14 -3 -2 -5
25 -6 28 0 88 6 135 14 74 13 160 17 160 8 0 -10 -29 -52 -57 -83 -35 -37 -41
-56 -20 -57 6 0 56 -6 110 -12 103 -12 145 -31 165 -75 9 -21 7 -22 -32 -24
-22 -2 -50 -5 -61 -8 -20 -5 -20 -5 -1 10 19 15 19 16 -8 16 -15 0 -25 -4 -21
-10 3 -5 -1 -10 -9 -10 -19 0 -30 17 -14 23 7 2 10 8 6 12 -4 4 -14 2 -22 -5
-9 -6 -21 -10 -28 -7 -8 3 -5 6 6 6 11 1 16 4 12 8 -3 4 6 12 21 18 23 10 7
12 -95 11 -94 -1 -125 2 -131 13 -5 7 -13 11 -19 7 -5 -3 -24 -3 -41 0 -30 6
-30 7 -15 36 9 16 13 32 11 35 -7 6 -300 22 -310 16 -4 -2 -4 -15 -1 -29 6
-23 4 -24 -44 -24 -43 0 -55 5 -81 31 -17 17 -31 34 -31 39 0 5 -6 11 -12 13
-19 8 11 27 40 27 13 0 21 4 17 9 -9 15 85 121 169 192 43 35 91 76 107 90
l30 27 92 -24 c148 -38 252 -55 355 -58 73 -2 109 -8 145 -24 67 -30 75 -29
79 16 3 35 5 37 45 43 23 3 51 13 62 23 10 9 32 19 47 21 37 5 187 73 182 83
-2 4 -16 31 -31 60 -16 30 -27 55 -25 57 2 1 37 7 78 12 56 7 99 6 169 -4 105
-15 131 -11 47 8 -31 7 -56 15 -56 18 0 4 44 30 98 59 110 58 146 88 122 102
-8 5 -24 15 -35 23 -21 16 -19 17 170 70 49 14 49 14 20 21 -85 20 -82 39 20
126 47 40 90 81 96 92 5 10 44 35 87 56 61 31 87 38 122 36 25 -1 34 0 20 3
-49 10 -39 19 12 12 29 -4 64 -7 78 -7 29 0 39 -2 -130 35 -126 28 -220 59
-220 74 0 5 23 46 50 90 l50 81 -32 57 c-34 59 -36 86 -12 133 8 15 14 29 14
31 0 2 -58 37 -130 77 -71 41 -130 77 -130 81 0 5 25 37 56 71 31 35 65 76 77
92 19 27 19 28 1 23 -10 -3 -84 -20 -163 -37 -137 -30 -145 -31 -154 -14 -15
27 -237 264 -248 264 -19 0 -124 -52 -132 -66 -13 -23 -20 -17 -61 55 -37 66
-54 81 -98 81 -10 0 -20 -10 -24 -25 -3 -14 -9 -25 -13 -25 -22 0 -327 93
-352 107 -81 46 -68 46 -190 8 -63 -19 -121 -35 -130 -35 -9 0 -29 10 -44 21
-26 21 -31 21 -123 10 -54 -6 -107 -14 -119 -17 -19 -5 -21 -3 -16 18 7 29 -1
21 -35 -32 -25 -40 -30 -43 -77 -45 -27 -1 -76 -6 -109 -10 l-58 -8 12 23 13
23 -28 -21 c-31 -25 -38 -23 -122 41 l-52 39 -37 -23 c-20 -12 -76 -49 -123
-81 -97 -66 -99 -67 -210 -17 -35 16 -67 29 -71 29 -4 0 -12 -11 -18 -24 -7
-15 -27 -29 -58 -40 -36 -12 -64 -33 -116 -90 -77 -84 -61 -78 -270 -95 -78
-6 -105 -13 -135 -33 -25 -16 -77 -32 -153 -47 -63 -13 -121 -26 -128 -30 -10
-6 -3 -20 26 -58 l40 -50 -42 -36 c-86 -72 -136 -95 -226 -106 -46 -6 -89 -11
-94 -11 -28 0 60 -66 132 -100 l82 -39 -40 -53 c-46 -60 -100 -162 -100 -189
0 -24 -21 -34 -101 -48 -71 -14 -120 -35 -59 -27 152 22 158 21 279 -36 l112
-53 -2 -95 -3 -95 152 -59 c84 -33 152 -63 152 -66 0 -4 -16 -25 -35 -47 l-35
-41 25 -66 25 -66 -31 -16 c-41 -20 -30 -29 15 -13 34 12 41 11 124 -29 l87
-43 215 -4 c118 -2 233 -7 255 -12 39 -8 40 -10 49 -61 8 -44 6 -55 -9 -72
-25 -27 -14 -34 27 -17 31 13 78 8 78 -8 0 -4 -5 -3 -11 0 -6 4 -9 1 -8 -6 4
-22 -12 -67 -27 -80 -8 -6 -14 -16 -14 -21 0 -5 19 7 43 26 52 43 146 90 313
157 l125 51 67 -60 c37 -33 98 -89 135 -124 l69 -64 -34 -70 c-32 -68 -51 -83
-85 -70 -13 5 -13 9 -2 22 7 9 -15 1 -49 -16 -42 -23 -78 -34 -114 -35 -29 -2
-69 -8 -88 -14 -43 -13 -43 -13 -35 -1 3 6 -4 10 -18 10 -31 0 -55 25 -32 34
8 3 21 3 29 0 8 -3 17 -1 21 5 4 7 -3 11 -18 11 -14 0 -40 2 -58 5 -25 4 -29
3 -14 -3 17 -8 14 -11 -22 -22 -32 -10 -46 -10 -56 -1 -17 13 -175 22 -183 9
-3 -4 10 -8 28 -9 18 0 42 -4 53 -9 17 -6 13 -9 -20 -14 -22 -4 -47 -11 -55
-15 -19 -10 -82 -26 -92 -23 -5 1 -8 -2 -8 -7 0 -12 -83 -32 -93 -22 -12 12
59 68 96 75 16 3 28 8 25 11 -2 3 -27 -2 -54 -10 -58 -18 -57 -17 -49 -6 3 6
-4 15 -16 21 -27 15 -18 23 39 32 41 6 39 6 -18 3 -47 -2 -89 -13 -151 -39
-72 -31 -90 -35 -113 -26 -17 6 -24 14 -20 22 5 8 2 9 -9 5 -9 -3 -19 -1 -23
5 -4 7 -3 8 4 4 7 -4 12 -3 12 3 0 5 8 12 18 14 9 3 1 5 -19 6 -25 1 -42 8
-53 23 -9 13 -14 17 -10 10 3 -8 -11 -3 -32 11 -22 14 -77 35 -124 48 -74 20
-81 23 -60 32 42 16 91 42 96 49 3 4 -2 21 -11 38 -14 27 -14 30 0 30 18 0 18
49 0 62 -15 11 -77 -2 -107 -24 -42 -29 -233 -57 -241 -35 -7 21 -111 19 -187
-3 -113 -33 -239 -46 -292 -30 -35 10 -39 14 -23 20 24 8 -49 17 -222 26 -109
6 -123 9 -123 25 0 25 16 33 80 40 l55 6 -57 2 c-50 1 -58 4 -58 20 0 34 25
47 124 66 91 17 100 17 148 1 27 -9 62 -16 77 -15 21 0 18 3 -18 16 -38 14
-41 17 -26 26 10 5 48 10 84 9 l66 -1 -60 13 c-51 12 -64 11 -87 0 -15 -8 -40
-14 -55 -14 -30 0 -210 -37 -225 -46 -11 -7 -10 19 2 51 8 20 6 29 -9 44 -11
11 -17 22 -13 25 8 9 22 7 19 -1 -2 -8 6 -13 18 -13 3 0 1 9 -5 20 -9 16 -15
18 -30 10 -10 -5 -22 -10 -27 -10 -4 1 5 8 20 16 21 11 32 12 41 4 9 -7 22 -7
40 0 42 16 119 50 141 62 10 6 42 14 70 18 l50 8 -52 1 c-49 1 -52 3 -62 34
-6 17 -26 42 -44 55 l-32 22 55 1 c97 2 125 16 34 18 -48 1 -85 6 -93 14 -11
10 -13 10 -7 0 10 -18 -2 -16 -21 3 -9 8 -22 13 -29 10 -8 -3 -14 -1 -14 4 0
6 -9 10 -19 10 -29 0 -51 11 -51 25 0 9 -29 15 -92 20 -76 6 -90 9 -74 19 72
43 116 105 116 165 0 25 3 28 23 25 13 -3 6 4 -19 18 l-40 23 13 44 c7 25 10
47 7 50 -3 3 47 32 113 64 79 39 106 56 83 52 -50 -8 -340 -95 -373 -112 -34
-17 -42 -13 -33 21 5 19 15 27 44 32 20 4 44 11 52 16 14 9 -30 4 -72 -8 -34
-10 -18 6 32 31 58 29 67 31 49 8 -12 -15 -12 -16 1 -8 8 4 24 15 35 24 14 11
12 7 -4 -12 -38 -42 -9 -32 32 12 33 35 46 42 132 61 52 12 93 26 90 30 -12
19 -72 16 -120 -6 -41 -18 -60 -21 -104 -16 l-54 7 60 75 c185 232 535 476
918 640 223 96 580 205 780 239 33 6 107 19 165 30 266 49 656 76 970 67 251
-7 350 -15 350 -28 0 -5 -4 -6 -10 -3 -5 3 -10 1 -10 -4 0 -6 8 -11 17 -11 9
0 28 -14 42 -30 34 -39 107 -54 195 -40 33 5 82 10 109 10 52 0 62 13 20 28
-100 37 283 -39 498 -98 313 -86 657 -221 858 -338 l44 -26 -35 -12 c-19 -7
-61 -17 -93 -24 -67 -14 -65 -16 49 -54 62 -22 96 -27 166 -27 82 0 89 -1 104
-23 14 -23 14 -25 -11 -42 -15 -9 -38 -18 -52 -19 -47 -3 -52 -5 -47 -14 4 -5
0 -12 -6 -14 -7 -3 -3 -6 10 -6 12 -1 22 5 22 12 1 7 6 5 14 -5 9 -12 27 -18
55 -18 23 0 53 -7 67 -16 20 -13 38 -15 95 -10 39 4 76 9 83 12 6 2 18 -8 27
-24 11 -20 36 -35 92 -57 42 -16 75 -31 73 -33 -9 -8 -47 -11 -188 -11 -154
-1 -195 -13 -83 -25 82 -8 95 -13 88 -34 -6 -16 -5 -16 13 -1 12 10 63 23 133
33 63 9 116 18 118 20 3 2 -44 23 -104 46 -125 48 -136 56 -130 88 4 20 -10
34 -92 98 l-96 75 -27 -32 c-29 -34 -48 -32 -48 6 0 25 -28 47 -115 92 -205
104 -314 158 -395 193 -332 146 -766 268 -1165 326 -91 13 -127 23 -150 40
-19 14 -35 20 -44 15z m127 -71 c99 -22 62 -39 -52 -24 -36 5 -46 11 -46 26 0
20 -3 20 98 -2z m-387 -402 c-9 -31 -9 -29 -10 23 -1 31 2 85 7 120 l7 64 3
-87 c1 -48 -1 -102 -7 -120z m-434 100 c-2 -13 -4 -5 -4 17 -1 22 1 32 4 23 2
-10 2 -28 0 -40z m854 -152 c-16 -109 -32 -201 -36 -204 -9 -9 0 63 31 249 13
81 24 150 24 155 0 4 2 5 5 2 3 -3 -8 -94 -24 -202z m-1034 87 c-3 -10 -5 -4
-5 12 0 17 2 24 5 18 2 -7 2 -21 0 -30z m1367 -22 c-4 -23 -9 -40 -11 -37 -3
3 -2 23 2 46 4 23 9 39 11 37 3 -2 2 -23 -2 -46z m-1723 -53 c10 -45 16 -84
14 -86 -4 -5 -36 104 -42 148 -11 66 10 20 28 -62z m1706 -30 c-3 -7 -5 -2 -5
12 0 14 2 19 5 13 2 -7 2 -19 0 -25z m-2096 -83 c20 -99 20 -101 10 -85 -10
16 -41 151 -40 172 1 21 19 -33 30 -87z m3365 44 c19 -11 34 -24 34 -28 0 -15
-72 -41 -113 -41 -44 0 -91 24 -84 43 3 10 90 43 121 46 5 1 24 -8 42 -20z
m-3565 -76 c41 -106 43 -113 30 -91 -22 34 -80 178 -72 178 5 0 24 -39 42 -87z
m3836 -55 c68 -56 68 -57 -4 -72 -30 -7 -31 -6 -48 46 -10 29 -20 59 -23 66
-8 22 9 13 75 -40z m-1048 -112 c-7 -31 -14 -54 -16 -52 -3 2 1 30 7 61 6 31
14 54 17 52 3 -3 -1 -31 -8 -61z m-3074 -27 c9 -17 15 -33 13 -35 -3 -2 -12
12 -21 31 -21 43 -13 47 8 4z m3052 -61 c-3 -8 -6 -5 -6 6 -1 11 2 17 5 13 3
-3 4 -12 1 -19z m-3297 -133 c11 -13 10 -14 -4 -9 -9 3 -16 10 -16 15 0 13 6
11 20 -6z m21 -52 c13 -16 12 -17 -3 -4 -10 7 -18 15 -18 17 0 8 8 3 21 -13z
m122 -120 c-3 -7 -9 -10 -14 -7 -14 8 -11 21 5 21 8 0 12 -6 9 -14z m4485
-344 c26 -7 53 -16 60 -22 13 -10 17 -63 5 -70 -5 -2 -77 -8 -162 -12 l-154
-7 26 44 c23 39 31 44 89 59 79 21 80 21 136 8z m-5469 -65 c2 -2 1 -15 -3
-29 -6 -22 -11 -25 -55 -25 -27 0 -63 3 -80 6 -26 5 -31 11 -31 34 l0 28 83
-5 c45 -3 84 -7 86 -9z m191 -123 l25 -19 -26 -10 c-14 -6 -48 -24 -75 -40
-41 -25 -55 -29 -89 -23 l-40 7 2 59 c2 64 -3 56 -27 -42 -11 -46 -15 -48 -53
-34 -23 9 -26 16 -29 75 l-3 65 52 7 c28 3 56 3 62 -1 6 -3 11 -2 11 4 0 5 26
11 58 13 47 2 61 -1 82 -19 14 -12 36 -31 50 -42z m-320 -122 c0 -17 -4 -28
-10 -24 -5 3 -10 17 -10 31 0 13 5 24 10 24 6 0 10 -14 10 -31z m260 -4 c0 -5
-55 -35 -65 -35 -18 0 0 18 28 27 17 5 33 11 35 12 1 0 2 -1 2 -4z m4602 -187
c-15 -15 -26 -4 -18 18 5 13 9 15 18 6 9 -9 9 -15 0 -24z m192 16 c3 -8 2 -12
-4 -9 -6 3 -10 10 -10 16 0 14 7 11 14 -7z m132 -124 c15 -6 25 -13 22 -16 -3
-2 -17 0 -32 6 -21 8 -27 7 -24 -2 3 -7 26 -18 52 -23 66 -14 47 -25 -43 -25
-53 0 -83 5 -99 16 -24 16 -88 14 -85 -4 1 -5 -5 -16 -14 -24 -14 -11 -16 -11
-9 0 7 11 -4 13 -57 11 -36 -2 -69 -1 -72 3 -13 12 72 57 116 61 94 8 219 7
245 -3z m-3906 -4 c0 -2 -7 -7 -16 -10 -8 -3 -12 -2 -9 4 6 10 25 14 25 6z
m11 -61 c11 -19 21 -38 22 -42 3 -11 -89 -31 -148 -32 -69 -1 -140 42 -105 64
12 7 168 43 193 44 10 1 26 -14 38 -34z m3769 -12 c0 -2 -6 -3 -12 -3 -21 0
-41 17 -34 28 4 8 13 6 26 -6 11 -9 20 -18 20 -19z m-4030 8 c0 -5 3 -22 6
-40 6 -27 3 -32 -20 -41 -19 -7 -34 -7 -49 2 -14 7 -10 0 11 -20 19 -18 32
-37 30 -44 -5 -14 -157 -70 -170 -62 -11 7 -10 57 2 88 6 17 22 29 51 37 35
11 39 15 26 23 -14 9 -8 15 36 38 54 28 77 34 77 19z m3903 -8 c-7 -2 -21 -2
-30 0 -10 3 -4 5 12 5 17 0 24 -2 18 -5z m-4105 -20 c-15 -2 -42 -2 -60 0 -18
2 -6 4 27 4 33 0 48 -2 33 -4z m3892 -148 l34 -25 -46 0 c-26 0 -54 3 -63 7
-15 5 -15 8 6 24 30 23 29 24 69 -6z m-257 -11 c21 -4 41 -13 44 -20 3 -8 9
-14 15 -14 5 0 6 5 3 10 -3 6 -2 10 3 10 5 0 12 -8 14 -18 4 -15 -2 -19 -29
-20 -19 -2 -41 2 -49 8 -7 7 -17 9 -22 6 -12 -7 -74 39 -65 48 4 4 17 5 28 2
11 -3 37 -9 58 -12z m-985 -25 c26 -7 52 -16 57 -20 11 -8 40 -107 34 -114 -2
-2 -19 -5 -38 -7 -30 -3 -36 1 -42 22 -7 24 -14 10 -9 -19 1 -11 -9 -13 -51
-8 -29 4 -56 10 -61 15 -10 10 41 142 54 142 5 0 30 -5 56 -11z m-2023 -38 c6
-11 -33 -36 -42 -27 -7 7 16 36 28 36 4 0 10 -4 14 -9z m303 -28 c-2 -29 -9
-40 -36 -55 -31 -17 -33 -17 -39 0 -4 9 -16 24 -27 33 -19 16 -18 17 35 37 30
12 58 21 62 21 5 1 7 -16 5 -36z m502 2 c7 -8 9 -15 5 -15 -4 0 -1 -8 6 -17
11 -14 9 -13 -12 2 -14 11 -26 25 -26 32 0 17 12 16 27 -2z m40 -30 c7 -9 8
-15 2 -15 -5 0 -12 7 -16 15 -3 8 -4 15 -2 15 2 0 9 -7 16 -15z m127 9 c-3 -3
-12 -4 -19 -1 -8 3 -5 6 6 6 11 1 17 -2 13 -5z m56 -30 c48 -4 90 -10 92 -14
3 -5 -5 -6 -17 -3 -19 4 -20 3 -8 -6 12 -8 7 -11 -20 -11 -20 0 -41 -5 -46
-10 -8 -8 -19 -7 -39 0 -23 9 -26 8 -17 -3 7 -8 9 -17 5 -20 -3 -4 -1 -7 5 -7
7 0 12 -5 12 -11 0 -8 -5 -8 -15 1 -8 7 -12 16 -9 21 3 5 -2 9 -11 9 -9 0 -13
5 -10 10 8 13 -18 8 -27 -5 -5 -6 -8 -5 -8 3 0 7 -4 11 -9 8 -5 -3 -12 1 -15
10 -6 15 0 16 51 10 40 -4 53 -3 41 4 -9 5 -40 11 -68 12 -51 2 -52 3 -24 14
16 7 34 8 39 4 6 -5 50 -12 98 -16z m-825 9 c-2 -5 -12 -24 -22 -44 l-18 -36
-54 16 c-30 9 -54 19 -54 22 0 9 101 47 128 48 13 0 22 -2 20 -6z m1023 -55
c12 -13 32 -18 68 -18 31 0 51 -4 51 -11 0 -7 -10 -9 -24 -5 -14 3 -28 2 -31
-4 -10 -17 -92 -12 -99 6 -3 8 -10 13 -15 10 -5 -3 -14 0 -20 7 -8 10 -6 19 5
36 17 23 27 20 65 -21z m345 32 c30 0 54 -4 54 -9 0 -5 -14 -19 -31 -31 -29
-21 -31 -21 -50 -4 -19 17 -20 16 -47 -8 l-27 -25 -40 45 -40 45 64 -6 c35 -4
88 -7 117 -7z m754 -41 c84 -26 99 -35 103 -55 2 -13 0 -21 -5 -18 -5 4 -22 8
-36 10 -15 2 -43 6 -62 9 -27 4 -30 3 -15 -4 30 -14 18 -13 -96 10 -143 28
-141 27 -89 54 59 32 84 31 200 -6z m-2237 -37 c-10 -2 -32 2 -48 8 -22 8 -26
13 -16 20 9 5 28 2 49 -8 28 -14 31 -18 15 -20z"/>
<path d="M5768 1323 c6 -2 18 -2 25 0 6 3 1 5 -13 5 -14 0 -19 -2 -12 -5z"/>
<path d="M2668 2853 c7 -3 16 -2 19 1 4 3 -2 6 -13 5 -11 0 -14 -3 -6 -6z"/>
<path d="M2171 2834 c-118 -17 -123 -19 -87 -33 34 -13 110 -1 186 30 55 22
35 23 -99 3z"/>
<path d="M4710 2540 c0 -5 9 -10 21 -10 11 0 17 5 14 10 -3 6 -13 10 -21 10
-8 0 -14 -4 -14 -10z"/>
<path d="M4838 2533 c-14 -4 -16 -8 -8 -24 11 -20 45 -25 69 -10 10 7 8 12
-10 25 -13 9 -26 15 -29 15 -3 -1 -13 -3 -22 -6z"/>
<path d="M1541 2501 c-23 -14 4 -21 42 -10 21 5 37 12 37 14 0 9 -65 5 -79 -4z"/>
<path d="M949 2403 c-13 -16 -12 -17 4 -4 9 7 17 15 17 17 0 8 -8 3 -21 -13z"/>
<path d="M1044 2408 c-10 -16 4 -22 28 -11 l22 10 -22 5 c-12 4 -25 2 -28 -4z"/>
<path d="M720 2263 c-25 -13 -30 -19 -17 -21 20 -4 22 -18 5 -26 -19 -9 214 1
235 9 17 7 17 8 0 20 -10 7 -45 15 -78 19 -33 4 -71 9 -85 11 -14 3 -41 -3
-60 -12z m190 -23 c0 -13 -40 -13 -60 0 -11 7 -5 10 23 10 20 0 37 -4 37 -10z"/>
<path d="M5228 2243 c6 -2 18 -2 25 0 6 3 1 5 -13 5 -14 0 -19 -2 -12 -5z"/>
<path d="M5810 2131 c-15 -29 -13 -31 28 -31 48 0 57 8 35 32 -21 24 -50 23
-63 -1z m55 -7 c20 -15 20 -16 -4 -12 -14 2 -26 9 -29 16 -5 16 9 15 33 -4z"/>
<path d="M5253 2043 c9 -2 25 -2 35 0 9 3 1 5 -18 5 -19 0 -27 -2 -17 -5z"/>
<path d="M5613 2043 c15 -2 37 -2 50 0 12 2 0 4 -28 4 -27 0 -38 -2 -22 -4z"/>
<path d="M399 1963 l-24 -28 28 24 c25 23 32 31 24 31 -2 0 -14 -12 -28 -27z"/>
<path d="M677 1941 c-46 -30 -45 -35 3 -11 53 26 58 30 39 29 -8 0 -26 -8 -42
-18z"/>
<path d="M5588 1923 c7 -3 16 -2 19 1 4 3 -2 6 -13 5 -11 0 -14 -3 -6 -6z"/>
<path d="M5848 1793 c7 -3 16 -2 19 1 4 3 -2 6 -13 5 -11 0 -14 -3 -6 -6z"/>
<path d="M514 1708 l-29 -33 30 27 c17 14 44 28 60 31 l30 4 -31 2 c-23 1 -38
-7 -60 -31z"/>
<path d="M5598 1653 c7 -3 16 -2 19 1 4 3 -2 6 -13 5 -11 0 -14 -3 -6 -6z"/>
<path d="M5638 1653 c6 -2 18 -2 25 0 6 3 1 5 -13 5 -14 0 -19 -2 -12 -5z"/>
<path d="M5686 1642 c-2 -4 4 -9 15 -9 11 -1 17 2 14 8 -7 11 -22 12 -29 1z"/>
<path d="M5218 1553 c7 -3 16 -2 19 1 4 3 -2 6 -13 5 -11 0 -14 -3 -6 -6z"/>
<path d="M5785 1540 c-11 -4 -51 -16 -88 -25 -37 -10 -66 -19 -64 -21 6 -7
142 18 162 29 11 6 47 14 80 18 l60 6 -65 1 c-36 0 -74 -3 -85 -8z"/>
<path d="M168 1517 c-39 -17 -23 -42 21 -32 34 7 34 7 25 29 -7 19 -10 19 -46
3z"/>
<path d="M5315 1465 l-30 -14 34 2 c19 1 36 8 39 15 5 15 -5 15 -43 -3z"/>
<path d="M503 1443 c9 -2 25 -2 35 0 9 3 1 5 -18 5 -19 0 -27 -2 -17 -5z"/>
<path d="M6011 1416 c-9 -11 -6 -12 14 -8 14 2 22 8 19 13 -8 13 -20 11 -33
-5z"/>
<path d="M810 1360 c-13 -9 -13 -11 0 -20 8 -5 25 -10 36 -10 22 0 94 27 94
35 0 9 -115 5 -130 -5z"/>
<path d="M1055 1318 c-15 -22 -14 -23 6 -26 12 -2 29 4 38 12 14 15 14 18 1
26 -22 14 -27 12 -45 -12z"/>
<path d="M5077 1299 c-10 -6 -26 -8 -35 -4 -13 5 -14 3 -6 -5 8 -8 24 -8 60 4
33 10 41 15 24 15 -14 0 -33 -4 -43 -10z"/>
<path d="M4985 1149 c-22 -5 -50 -21 -63 -34 l-23 -25 23 1 c13 0 59 -2 104
-6 56 -6 83 -4 88 3 5 8 -3 11 -24 8 -21 -2 -28 0 -21 8 7 8 -3 10 -36 7 -52
-4 -52 11 0 33 38 17 14 19 -48 5z"/>
<path d="M911 1099 c-18 -6 -32 -12 -30 -13 8 -7 69 7 69 15 0 5 -1 9 -2 8 -2
0 -18 -5 -37 -10z"/>
<path d="M1001 1071 c-8 -5 -30 -7 -50 -5 l-36 4 35 -9 c19 -5 37 -8 41 -6 3
2 21 7 40 10 18 3 35 8 38 11 8 8 -54 4 -68 -5z"/>
<path d="M4938 1053 c7 -3 16 -2 19 1 4 3 -2 6 -13 5 -11 0 -14 -3 -6 -6z"/>
<path d="M4713 993 c15 -2 37 -2 50 0 12 2 0 4 -28 4 -27 0 -38 -2 -22 -4z"/>
<path d="M4663 963 c15 -2 37 -2 50 0 12 2 0 4 -28 4 -27 0 -38 -2 -22 -4z"/>
<path d="M927 905 c-36 -12 -58 -25 -44 -25 3 0 18 5 34 11 15 6 51 15 78 19
49 7 49 8 10 8 -22 1 -57 -5 -78 -13z"/>
<path d="M542 856 c-29 -8 -56 -17 -60 -21 -4 -5 0 -6 8 -3 9 3 41 11 73 18
31 6 57 13 57 16 0 6 -20 4 -78 -10z"/>
<path d="M4955 828 c-16 -6 -45 -21 -63 -35 -17 -13 -46 -29 -63 -35 -16 -6
-28 -12 -25 -15 7 -8 80 18 91 32 6 7 33 24 60 38 52 27 52 33 0 15z"/>
<path d="M4579 810 l-24 -19 31 -1 c35 0 45 6 37 26 -7 19 -16 18 -44 -6z"/>
<path d="M5868 776 c-36 -45 -35 -54 7 -62 46 -8 105 3 105 21 0 11 -69 75
-81 75 -2 0 -16 -16 -31 -34z m52 4 c13 -9 13 -11 0 -20 -15 -10 -40 -14 -40
-6 0 11 13 36 19 36 3 0 13 -5 21 -10z"/>
<path d="M4410 655 c-7 -8 -19 -15 -27 -15 -8 0 -11 -4 -8 -10 11 -17 105 -8
105 10 0 6 -44 30 -54 30 -2 0 -9 -7 -16 -15z"/>
<path d="M4555 630 c-23 -11 -32 -19 -22 -19 10 -1 27 4 37 9 10 6 38 12 61
15 58 8 62 15 8 14 -24 0 -62 -9 -84 -19z"/>
<path d="M5173 613 c-17 -6 -16 -23 1 -23 8 0 16 7 20 15 6 15 1 17 -21 8z"/>
<path d="M4740 590 c0 -5 5 -10 10 -10 6 0 10 5 10 10 0 6 -4 10 -10 10 -5 0
-10 -4 -10 -10z"/>
<path d="M1518 583 c7 -3 16 -2 19 1 4 3 -2 6 -13 5 -11 0 -14 -3 -6 -6z"/>
<path d="M1675 579 c7 -10 77 -30 84 -24 8 8 -3 14 -47 23 -23 6 -39 6 -37 1z"/>
<path d="M1580 566 c0 -2 11 -6 25 -8 14 -3 25 -1 25 3 0 5 -11 9 -25 9 -14 0
-25 -2 -25 -4z"/>
<path d="M3226 562 c-2 -4 -21 -9 -41 -10 -46 -3 -91 -21 -79 -31 19 -16 93
-31 150 -30 54 1 179 25 144 28 -8 0 -36 12 -62 26 -46 24 -102 33 -112 17z
m100 -23 c19 -16 7 -31 -16 -19 -10 5 -30 10 -44 10 -26 0 -40 12 -28 24 10
10 70 0 88 -15z"/>
<path d="M3818 543 c7 -3 16 -2 19 1 4 3 -2 6 -13 5 -11 0 -14 -3 -6 -6z"/>
<path d="M4320 541 c0 -5 17 -11 38 -14 20 -3 54 -10 76 -15 22 -6 47 -7 60
-2 18 7 16 9 -14 9 -19 1 -57 8 -84 16 -56 17 -76 19 -76 6z"/>
<path d="M5090 535 c-13 -16 -3 -20 24 -9 9 3 13 10 10 15 -8 13 -20 11 -34
-6z"/>
<path d="M677 506 c-15 -19 -27 -38 -27 -42 0 -9 90 2 101 13 6 6 -2 20 -19
36 l-29 28 -26 -35z m58 -17 c-4 -5 -17 -9 -31 -9 -22 0 -23 2 -14 20 9 16 15
18 31 10 11 -6 17 -15 14 -21z"/>
<path d="M840 530 c0 -5 5 -10 10 -10 6 0 10 5 10 10 0 6 -4 10 -10 10 -5 0
-10 -4 -10 -10z"/>
<path d="M4240 514 c25 -7 59 -13 75 -13 29 1 28 2 -10 14 -22 8 -56 14 -75
14 l-35 0 45 -15z"/>
<path d="M4225 469 c-43 -16 -58 -17 -113 -8 -110 19 -81 -3 33 -25 22 -5 47
2 90 23 68 34 64 38 -10 10z"/>
<path d="M954 399 c-21 -42 -8 -53 50 -45 50 8 54 14 30 51 -23 36 -59 33 -80
-6z m72 4 c19 -26 17 -35 -6 -23 -11 6 -20 17 -20 25 0 20 10 19 26 -2z"/>
<path d="M2200 420 c-13 -9 -13 -10 0 -9 8 0 24 4 35 9 l20 9 -20 0 c-11 0
-27 -4 -35 -9z"/>
<path d="M3470 410 l-35 -7 43 -2 c23 0 42 4 42 9 0 6 -3 9 -7 9 -5 -1 -24 -5
-43 -9z"/>
<path d="M653 343 c-19 -23 -32 -47 -28 -52 6 -11 69 -31 95 -31 8 0 37 14 64
31 l48 30 -27 29 c-20 21 -38 29 -72 32 -43 3 -47 1 -80 -39z m136 3 l23 -25
-42 -21 c-37 -19 -46 -20 -66 -9 -39 21 -31 33 21 30 13 0 9 3 -10 11 -38 14
-38 14 -30 27 13 21 80 13 104 -13z"/>
<path d="M2065 360 c-3 -5 -1 -10 4 -10 6 0 11 5 11 10 0 6 -2 10 -4 10 -3 0
-8 -4 -11 -10z"/>
<path d="M2490 236 c0 -19 4 -22 25 -18 28 5 31 12 13 30 -19 19 -38 14 -38
-12z m35 4 c3 -5 1 -10 -4 -10 -6 0 -11 5 -11 10 0 6 2 10 4 10 3 0 8 -4 11
-10z"/>
<path d="M2110 230 l-25 -20 32 0 c36 0 49 12 30 28 -9 8 -19 5 -37 -8z m35 0
c3 -5 -1 -10 -10 -10 -9 0 -13 5 -10 10 3 6 8 10 10 10 2 0 7 -4 10 -10z"/>
<path d="M3725 240 c-18 -8 -17 -9 7 -9 15 -1 30 4 33 9 7 12 -12 12 -40 0z"/>
<path d="M3778 213 c6 -2 18 -2 25 0 6 3 1 5 -13 5 -14 0 -19 -2 -12 -5z"/>
</g>
</svg>
