<?xml version="1.0" standalone="no"?>
<!DOCTYPE svg PUBLIC "-//W3C//DTD SVG 20010904//EN"
 "http://www.w3.org/TR/2001/REC-SVG-20010904/DTD/svg10.dtd">
<svg version="1.0" xmlns="http://www.w3.org/2000/svg"
 width="1152.000000pt" height="1024.000000pt" viewBox="0 0 1152.000000 1024.000000"
 preserveAspectRatio="xMidYMid meet">

<g transform="translate(0.000000,1024.000000) scale(0.100000,-0.100000)"
fill="#000000" stroke="none">
<path d="M2151 10162 l-39 -78 287 -144 288 -143 445 -891 445 -891 -105 -100
c-324 -307 -582 -702 -768 -1177 l-58 -147 -850 -365 c-468 -201 -918 -394
-1001 -429 l-150 -64 -277 138 c-153 77 -281 139 -286 139 -4 0 -24 -34 -45
-75 l-37 -75 320 -160 319 -160 958 411 c527 226 963 413 970 416 7 3 0 -38
-18 -104 -64 -239 -122 -568 -155 -883 -25 -242 -30 -880 -10 -1150 32 -419
94 -790 186 -1105 16 -57 30 -109 30 -116 0 -8 -122 -136 -271 -285 l-271
-271 153 -1224 c84 -673 154 -1226 155 -1228 4 -4 163 15 169 21 2 1 -63 534
-145 1183 l-148 1180 211 212 c116 117 214 209 218 205 3 -4 23 -52 45 -107
54 -141 199 -429 283 -564 442 -707 1097 -1156 1936 -1326 497 -100 1042 -109
1545 -24 963 161 1700 679 2157 1514 67 121 154 309 198 425 16 41 31 78 35
82 3 4 101 -88 217 -205 l211 -212 -148 -1180 c-82 -649 -147 -1182 -145
-1183 6 -6 165 -25 169 -21 1 2 71 555 155 1228 l153 1224 -273 273 -272 272
42 155 c148 545 210 1143 190 1820 -14 456 -72 884 -172 1270 -19 70 -29 126
-23 123 6 -2 442 -189 969 -415 l958 -411 309 155 c281 141 310 157 310 180 0
27 -50 135 -62 135 -5 0 -133 -62 -286 -139 l-277 -138 -1001 429 -1000 429
-53 137 c-183 472 -441 870 -768 1182 l-110 105 445 891 445 891 288 143 287
144 -39 78 -39 78 -313 -157 -314 -156 -449 -899 c-247 -494 -449 -898 -450
-898 -1 0 -57 37 -125 83 -69 45 -172 108 -230 140 l-106 57 -7 98 c-26 383
-218 710 -526 896 -164 100 -386 175 -625 212 -171 27 -696 27 -865 1 -598
-93 -973 -377 -1106 -837 -29 -101 -54 -245 -54 -317 l0 -52 -112 -61 c-62
-34 -165 -96 -228 -138 -63 -43 -117 -78 -120 -80 -3 -1 -207 402 -454 896
l-449 899 -314 156 -313 157 -39 -78z"/>
</g>
</svg>
