<svg version="1.0" xmlns="http://www.w3.org/2000/svg"
 width="360.000000pt" height="360.000000pt" viewBox="0 0 360.000000 360.000000"
 preserveAspectRatio="xMidYMid meet">

<g transform="translate(0.000000,360.000000) scale(0.100000,-0.100000)"
fill="#000000" stroke="none">
<path d="M2455 2546 c-166 -36 -313 -128 -399 -250 -63 -90 -79 -139 -75 -235
3 -45 2 -80 -1 -78 -3 1 -37 19 -75 39 -224 115 -443 45 -509 -164 -5 -15 -9
-15 -50 8 -26 14 -70 28 -100 31 -48 5 -62 12 -103 50 -26 24 -81 61 -123 81
l-75 37 -145 -3 c-80 -2 -174 -9 -210 -17 -87 -18 -180 -54 -187 -72 -11 -27
12 -34 53 -17 65 28 174 53 259 60 70 6 87 4 127 -15 26 -11 53 -21 60 -21 23
0 152 -66 171 -87 17 -19 16 -21 -35 -72 l-52 -52 -43 12 c-23 6 -68 9 -98 7
-31 -3 -79 1 -108 9 -101 26 -270 9 -314 -33 -11 -10 -58 -39 -104 -64 -56
-31 -107 -69 -160 -121 -78 -78 -99 -113 -81 -131 7 -7 39 19 99 79 105 108
201 167 283 178 145 18 177 20 204 15 27 -5 28 -6 12 -19 -25 -21 -44 -62 -57
-121 -29 -133 74 -276 212 -295 40 -6 49 -11 49 -26 0 -36 30 -79 69 -99 134
-68 383 1 508 140 69 76 97 206 60 279 -9 19 -17 35 -17 37 0 2 24 -7 53 -20
28 -13 83 -29 120 -36 57 -10 67 -15 61 -29 -34 -80 -45 -120 -41 -146 9 -58
-60 -217 -129 -298 -39 -47 -132 -119 -173 -137 -19 -8 -31 -20 -31 -31 0 -76
227 92 305 226 15 24 39 81 54 125 15 45 32 85 38 88 5 4 18 32 28 62 16 49
52 130 58 130 1 0 2 -55 1 -122 -2 -206 -37 -298 -166 -433 -66 -68 -75 -82
-64 -94 12 -12 19 -10 45 8 108 78 203 240 227 391 9 52 20 104 25 115 7 16
29 132 29 157 0 5 66 48 74 48 2 0 6 -31 10 -69 5 -45 13 -77 26 -91 34 -39
40 -276 9 -379 -9 -32 -10 -44 -1 -53 41 -41 78 116 66 282 -11 156 -11 426
-1 437 14 13 95 -84 132 -158 19 -37 38 -69 43 -71 4 -1 29 -42 54 -90 91
-171 223 -309 243 -255 3 7 -23 42 -59 78 -90 92 -176 236 -176 295 0 15 -15
56 -34 93 l-33 66 206 0 206 0 29 -32 c15 -18 33 -33 40 -33 6 0 31 -30 55
-65 85 -127 219 -233 282 -223 42 6 32 27 -26 53 -31 13 -75 39 -98 57 -52 41
-167 196 -167 225 0 12 -4 25 -10 28 -20 12 -9 22 48 39 31 10 84 31 118 46
60 27 61 27 95 9 19 -10 42 -18 52 -19 10 0 47 -20 81 -45 106 -75 189 -109
279 -113 71 -4 77 -3 77 16 0 16 -9 20 -64 26 -36 3 -83 13 -106 21 -56 20
-230 134 -230 151 0 7 -11 21 -24 29 l-25 16 26 37 c54 80 14 224 -100 362
-157 190 -398 296 -582 256z m65 -55 c0 -17 -28 -31 -74 -37 -53 -8 -62 7 -18
30 30 17 92 21 92 7z m-870 -470 c0 -13 -9 -18 -53 -26 -41 -8 -50 6 -14 23
28 13 67 15 67 3z m-319 -178 c122 -62 170 -199 112 -321 -27 -56 -88 -110
-146 -127 -64 -19 -95 -19 -154 1 -132 44 -201 205 -142 334 27 60 54 88 114
116 71 34 145 32 216 -3z m-377 -94 c25 -12 26 -15 20 -63 -4 -28 -8 -53 -10
-55 -1 -1 -13 4 -26 13 -28 20 -55 22 -40 3 9 -10 7 -19 -4 -36 -20 -28 -54
-24 -70 7 l-11 23 -17 -25 c-43 -67 6 -155 88 -156 31 0 45 7 71 35 l33 34 12
-28 c6 -16 22 -39 36 -52 31 -29 30 -39 -8 -77 -104 -99 -278 -79 -353 42 -27
44 -30 58 -30 126 0 67 4 82 28 118 62 95 185 134 281 91z"/>
<path d="M1258 1748 c14 -14 0 -43 -28 -58 -29 -15 -69 6 -62 34 4 20 3 20
-13 5 -26 -25 -32 -102 -11 -135 25 -37 80 -58 119 -44 56 19 77 48 77 103 0
42 -4 53 -31 78 -30 28 -78 44 -51 17z"/>
</g>
</svg>
