<svg width="363" height="139" viewBox="0 0 363 139" fill="none" xmlns="http://www.w3.org/2000/svg">
<rect width="362.536" height="138.286" rx="25" fill="#8F901F"/>
<path d="M56 40L77.5713 53.1429L47.2856 65.1429L24.9999 49.7143L56 40Z" fill="#E2ECE9"/>
<path d="M47.2856 65.1429L77.5713 53.1429V85.1429L47.2856 98.2858L24.9999 80.5715V49.7144L47.2856 65.1429Z" fill="#D5D5D5"/>
<path d="M103.572 40L125.143 53.1429L94.8574 65.1429L72.5716 49.7143L103.572 40Z" fill="#E2ECE9"/>
<path d="M94.8574 65.1429L125.143 53.1429V85.1429L94.8574 98.2858L72.5716 80.5715V49.7144L94.8574 65.1429Z" fill="#D5D5D5"/>
<path d="M151.143 40L172.714 53.1429L142.429 65.1429L120.143 49.7143L151.143 40Z" fill="#E2ECE9"/>
<path d="M142.429 65.1429L172.714 53.1429V85.1429L142.429 98.2858L120.143 80.5715V49.7144L142.429 65.1429Z" fill="#D5D5D5"/>
<path d="M203.724 45.96L197.541 43.5195L200.193 49.6148C203.659 57.5848 205.3 63.4967 205.319 69.2366C205.337 74.9646 203.742 80.8087 200.208 88.6365L197.419 94.8148L203.724 92.3259L255.974 71.7009L262.454 69.1429L255.974 66.585L203.724 45.96Z" fill="black" stroke="#FAEAD3" stroke-width="5.5"/>
<path d="M315.964 40L337.536 53.1429L307.25 65.1429L284.964 49.7143L315.964 40Z" fill="#5AB12F"/>
<path d="M307.25 65.1429L337.536 53.1429V85.1429L307.25 98.2858L284.964 80.5715V49.7144L307.25 65.1429Z" fill="#3FA938"/>
</svg>
