<svg width="19" height="75" viewBox="0 0 19 75" fill="none" xmlns="http://www.w3.org/2000/svg">
<rect x="7.7002" y="13.6749" width="3.5" height="58.8" fill="black"/>
<path d="M0.700195 14.3749C0.700195 13.9883 1.0136 13.6749 1.4002 13.6749H7.7002V16.4749H1.4002C1.0136 16.4749 0.700195 16.1615 0.700195 15.7749L0.700195 14.3749Z" fill="black"/>
<path d="M11.2002 13.6749H17.5002C17.8868 13.6749 18.2002 13.9883 18.2002 14.3749V15.7749C18.2002 16.1615 17.8868 16.4749 17.5002 16.4749H11.2002V13.6749Z" fill="black"/>
<path d="M11.2002 72.4749H7.7002L9.4502 74.5749L11.2002 72.4749Z" fill="black"/>
<rect x="8.40039" y="2.47488" width="2.1" height="11.2" fill="black"/>
<rect x="7" y="2.47488" width="3.5" height="3.5" rx="0.7" transform="rotate(-45 7 2.47488)" fill="black"/>
</svg>
