<svg width="27" height="69" viewBox="0 0 27 69" fill="none" xmlns="http://www.w3.org/2000/svg">
<path d="M18.3387 0L12.2504 0C11.0906 0 10.1504 0.940202 10.1504 2.1V3.15C10.1504 4.3098 11.0906 5.25 12.2504 5.25H18.3387C18.8156 5.25 19.2783 5.41229 19.6506 5.71018L22.7565 8.19487C23.628 8.89208 24.8971 8.7639 25.6116 7.90649C26.3466 7.0245 26.214 5.71086 25.3174 4.99365L19.6506 0.460175C19.2783 0.16229 18.8156 0 18.3387 0Z" fill="black"/>
<path d="M9.625 0L14.875 0V67.2C14.875 67.7799 14.4049 68.25 13.825 68.25H10.675C10.0951 68.25 9.625 67.7799 9.625 67.2L9.625 0Z" fill="black"/>
<path d="M6.4751 1.05L9.6251 0V5.25L6.4751 4.2V1.05Z" fill="black"/>
<rect x="1.2251" y="1.04999" width="5.25" height="3.15" fill="black"/>
<path d="M5.4252 1.05L3.3252 0V5.25L5.4252 4.2V1.05Z" fill="black"/>
<path d="M0.700195 0L3.3252 0V5.25H0.700195L0.700195 0Z" fill="black"/>
</svg>
