<svg width="514" height="514" viewBox="0 0 514 514" fill="none" xmlns="http://www.w3.org/2000/svg">
<rect x="7" y="7" width="500" height="500" rx="50" fill="#035E8E" stroke="#DEDFC0" stroke-width="12.5"/>
<path d="M196.727 97.1583L192.275 95.4011L194.184 99.7897C196.68 105.528 197.861 109.785 197.875 113.917C197.889 118.042 196.74 122.249 194.195 127.885L192.187 132.334L196.727 130.542L234.347 115.692L239.013 113.85L234.347 112.008L196.727 97.1583Z" fill="black" stroke="#FAEAD3" stroke-width="3.96"/>
<path d="M196.727 383.158L192.275 381.401L194.184 385.79C196.68 391.528 197.861 395.785 197.875 399.917C197.889 404.042 196.74 408.249 194.195 413.885L192.187 418.334L196.727 416.542L234.347 401.692L239.013 399.85L234.347 398.008L196.727 383.158Z" fill="black" stroke="#FAEAD3" stroke-width="3.96"/>
<path d="M196.727 240.158L192.275 238.401L194.184 242.79C196.68 248.528 197.861 252.785 197.875 256.917C197.889 261.042 196.74 265.249 194.195 270.885L192.187 275.334L196.727 273.542L234.347 258.692L239.013 256.85L234.347 255.008L196.727 240.158Z" fill="black" stroke="#FAEAD3" stroke-width="3.96"/>
<circle cx="109" cy="114" r="46.5" stroke="black" stroke-width="3"/>
<path d="M113.865 92.7635V136.4H103.318V92.7635H113.865Z" fill="#F7F3F4"/>
<circle cx="109" cy="257" r="46.5" stroke="black" stroke-width="3"/>
<path d="M105.281 235.764V279.4H94.7342V235.764H105.281ZM122.449 235.764V279.4H111.902V235.764H122.449Z" fill="#F7F3F4"/>
<circle cx="109" cy="400" r="46.5" stroke="black" stroke-width="3"/>
<path d="M96.6971 378.764V422.4H86.1502V378.764H96.6971ZM113.865 378.764V422.4H103.318V378.764H113.865ZM131.033 378.764V422.4H120.486V378.764H131.033Z" fill="#F7F3F4"/>
<mask id="path-11-outside-1_244_490" maskUnits="userSpaceOnUse" x="365" y="87" width="86" height="54" fill="black">
<rect fill="white" x="365" y="87" width="86" height="54"/>
<path d="M387.439 104L392.381 113.883L397.498 104H407.127L398.748 119L407.439 134H397.889L392.381 124.039L387.01 134H377.322L386.033 119L377.752 104H387.439ZM410.921 127.359V119.82L427.307 94H434.007V104.234H430.12L420.53 119.43V119.742H444.261V127.359H410.921ZM430.237 134V125.055L430.432 121.754V94H439.475V134H430.237Z"/>
</mask>
<path d="M387.439 104L392.381 113.883L397.498 104H407.127L398.748 119L407.439 134H397.889L392.381 124.039L387.01 134H377.322L386.033 119L377.752 104H387.439ZM410.921 127.359V119.82L427.307 94H434.007V104.234H430.12L420.53 119.43V119.742H444.261V127.359H410.921ZM430.237 134V125.055L430.432 121.754V94H439.475V134H430.237Z" fill="black"/>
<path d="M387.439 104L393.343 101.048L391.518 97.4H387.439V104ZM392.381 113.883L386.477 116.834L392.278 128.435L398.242 116.918L392.381 113.883ZM397.498 104V97.4H393.483L391.637 100.965L397.498 104ZM407.127 104L412.889 107.219L418.373 97.4H407.127V104ZM398.748 119L392.986 115.781L391.155 119.06L393.037 122.309L398.748 119ZM407.439 134V140.6H418.891L413.15 130.691L407.439 134ZM397.889 134L392.113 137.194L393.996 140.6H397.889V134ZM392.381 124.039L398.157 120.845L392.308 110.268L386.571 120.907L392.381 124.039ZM387.01 134V140.6H390.949L392.819 137.132L387.01 134ZM377.322 134L371.615 130.686L365.857 140.6H377.322V134ZM386.033 119L391.74 122.314L393.617 119.082L391.811 115.81L386.033 119ZM377.752 104V97.4H366.569L371.974 107.19L377.752 104ZM381.536 106.952L386.477 116.834L398.284 110.931L393.343 101.048L381.536 106.952ZM398.242 116.918L403.359 107.035L391.637 100.965L386.52 110.848L398.242 116.918ZM397.498 110.6H407.127V97.4H397.498V110.6ZM401.365 100.781L392.986 115.781L404.51 122.219L412.889 107.219L401.365 100.781ZM393.037 122.309L401.729 137.309L413.15 130.691L404.459 115.691L393.037 122.309ZM407.439 127.4H397.889V140.6H407.439V127.4ZM403.664 130.806L398.157 120.845L386.605 127.233L392.113 137.194L403.664 130.806ZM386.571 120.907L381.2 130.868L392.819 137.132L398.19 127.172L386.571 120.907ZM387.01 127.4H377.322V140.6H387.01V127.4ZM383.03 137.314L391.74 122.314L380.326 115.686L371.615 130.686L383.03 137.314ZM391.811 115.81L383.53 100.81L371.974 107.19L380.255 122.19L391.811 115.81ZM377.752 110.6H387.439V97.4H377.752V110.6ZM410.921 127.359H404.321V133.959H410.921V127.359ZM410.921 119.82L405.348 116.284L404.321 117.903V119.82H410.921ZM427.307 94V87.4H423.679L421.735 90.4634L427.307 94ZM434.007 94H440.607V87.4H434.007V94ZM434.007 104.234V110.834H440.607V104.234H434.007ZM430.12 104.234V97.6344H426.481L424.539 100.712L430.12 104.234ZM420.53 119.43L414.949 115.907L413.93 117.521V119.43H420.53ZM420.53 119.742H413.93V126.342H420.53V119.742ZM444.261 119.742H450.861V113.142H444.261V119.742ZM444.261 127.359V133.959H450.861V127.359H444.261ZM430.237 134H423.637V140.6H430.237V134ZM430.237 125.055L423.649 124.665L423.637 124.86V125.055H430.237ZM430.432 121.754L437.021 122.144L437.032 121.949V121.754H430.432ZM430.432 94V87.4H423.832V94H430.432ZM439.475 94H446.075V87.4H439.475V94ZM439.475 134V140.6H446.075V134H439.475ZM417.521 127.359V119.82H404.321V127.359H417.521ZM416.493 123.357L432.88 97.5366L421.735 90.4634L405.348 116.284L416.493 123.357ZM427.307 100.6H434.007V87.4H427.307V100.6ZM427.407 94V104.234H440.607V94H427.407ZM434.007 97.6344H430.12V110.834H434.007V97.6344ZM424.539 100.712L414.949 115.907L426.112 122.952L435.701 107.757L424.539 100.712ZM413.93 119.43V119.742H427.13V119.43H413.93ZM420.53 126.342H444.261V113.142H420.53V126.342ZM437.661 119.742V127.359H450.861V119.742H437.661ZM444.261 120.759H410.921V133.959H444.261V120.759ZM436.837 134V125.055H423.637V134H436.837ZM436.826 125.445L437.021 122.144L423.844 121.364L423.649 124.665L436.826 125.445ZM437.032 121.754V94H423.832V121.754H437.032ZM430.432 100.6H439.475V87.4H430.432V100.6ZM432.875 94V134H446.075V94H432.875ZM439.475 127.4H430.237V140.6H439.475V127.4Z" fill="#FAEAD3" mask="url(#path-11-outside-1_244_490)"/>
<mask id="path-13-outside-2_244_490" maskUnits="userSpaceOnUse" x="366" y="372" width="85" height="56" fill="black">
<rect fill="white" x="366" y="372" width="85" height="56"/>
<path d="M387.896 390L392.837 399.883L397.954 390H407.583L399.204 405L407.896 420H398.345L392.837 410.039L387.466 420H377.779L386.49 405L378.208 390H387.896ZM427.901 420.547C425.713 420.547 423.617 420.195 421.612 419.492C419.606 418.776 417.823 417.643 416.26 416.094C414.698 414.531 413.467 412.487 412.569 409.961C411.67 407.422 411.228 404.329 411.241 400.684C411.254 397.389 411.657 394.434 412.452 391.816C413.246 389.186 414.379 386.953 415.85 385.117C417.334 383.281 419.105 381.882 421.162 380.918C423.233 379.941 425.544 379.453 428.096 379.453C430.896 379.453 433.363 380 435.498 381.094C437.647 382.174 439.366 383.633 440.655 385.469C441.944 387.292 442.705 389.323 442.94 391.562H433.428C433.142 390.299 432.51 389.342 431.534 388.691C430.57 388.027 429.424 387.695 428.096 387.695C425.648 387.695 423.819 388.757 422.608 390.879C421.41 393.001 420.798 395.84 420.772 399.395H421.026C421.573 398.197 422.36 397.168 423.389 396.309C424.418 395.449 425.596 394.792 426.924 394.336C428.265 393.867 429.685 393.633 431.182 393.633C433.578 393.633 435.694 394.186 437.53 395.293C439.366 396.4 440.804 397.917 441.846 399.844C442.888 401.758 443.402 403.952 443.389 406.426C443.402 409.212 442.751 411.673 441.436 413.809C440.121 415.931 438.298 417.585 435.967 418.77C433.649 419.954 430.961 420.547 427.901 420.547ZM427.842 413.125C429.027 413.125 430.088 412.845 431.026 412.285C431.963 411.725 432.699 410.964 433.233 410C433.767 409.036 434.027 407.949 434.014 406.738C434.027 405.514 433.767 404.427 433.233 403.477C432.712 402.526 431.983 401.771 431.045 401.211C430.121 400.651 429.06 400.371 427.862 400.371C426.989 400.371 426.175 400.534 425.42 400.859C424.665 401.185 424.007 401.641 423.448 402.227C422.901 402.799 422.471 403.477 422.159 404.258C421.846 405.026 421.683 405.859 421.67 406.758C421.683 407.943 421.957 409.017 422.491 409.98C423.024 410.944 423.754 411.712 424.678 412.285C425.603 412.845 426.657 413.125 427.842 413.125Z"/>
</mask>
<path d="M387.896 390L392.837 399.883L397.954 390H407.583L399.204 405L407.896 420H398.345L392.837 410.039L387.466 420H377.779L386.49 405L378.208 390H387.896ZM427.901 420.547C425.713 420.547 423.617 420.195 421.612 419.492C419.606 418.776 417.823 417.643 416.26 416.094C414.698 414.531 413.467 412.487 412.569 409.961C411.67 407.422 411.228 404.329 411.241 400.684C411.254 397.389 411.657 394.434 412.452 391.816C413.246 389.186 414.379 386.953 415.85 385.117C417.334 383.281 419.105 381.882 421.162 380.918C423.233 379.941 425.544 379.453 428.096 379.453C430.896 379.453 433.363 380 435.498 381.094C437.647 382.174 439.366 383.633 440.655 385.469C441.944 387.292 442.705 389.323 442.94 391.562H433.428C433.142 390.299 432.51 389.342 431.534 388.691C430.57 388.027 429.424 387.695 428.096 387.695C425.648 387.695 423.819 388.757 422.608 390.879C421.41 393.001 420.798 395.84 420.772 399.395H421.026C421.573 398.197 422.36 397.168 423.389 396.309C424.418 395.449 425.596 394.792 426.924 394.336C428.265 393.867 429.685 393.633 431.182 393.633C433.578 393.633 435.694 394.186 437.53 395.293C439.366 396.4 440.804 397.917 441.846 399.844C442.888 401.758 443.402 403.952 443.389 406.426C443.402 409.212 442.751 411.673 441.436 413.809C440.121 415.931 438.298 417.585 435.967 418.77C433.649 419.954 430.961 420.547 427.901 420.547ZM427.842 413.125C429.027 413.125 430.088 412.845 431.026 412.285C431.963 411.725 432.699 410.964 433.233 410C433.767 409.036 434.027 407.949 434.014 406.738C434.027 405.514 433.767 404.427 433.233 403.477C432.712 402.526 431.983 401.771 431.045 401.211C430.121 400.651 429.06 400.371 427.862 400.371C426.989 400.371 426.175 400.534 425.42 400.859C424.665 401.185 424.007 401.641 423.448 402.227C422.901 402.799 422.471 403.477 422.159 404.258C421.846 405.026 421.683 405.859 421.67 406.758C421.683 407.943 421.957 409.017 422.491 409.98C423.024 410.944 423.754 411.712 424.678 412.285C425.603 412.845 426.657 413.125 427.842 413.125Z" fill="black"/>
<path d="M387.896 390L393.799 387.048L391.975 383.4H387.896V390ZM392.837 399.883L386.934 402.834L392.734 414.435L398.698 402.918L392.837 399.883ZM397.954 390V383.4H393.94L392.093 386.965L397.954 390ZM407.583 390L413.345 393.219L418.83 383.4H407.583V390ZM399.204 405L393.442 401.781L391.611 405.06L393.494 408.309L399.204 405ZM407.896 420V426.6H419.348L413.606 416.691L407.896 420ZM398.345 420L392.569 423.194L394.453 426.6H398.345V420ZM392.837 410.039L398.613 406.845L392.764 396.268L387.028 406.907L392.837 410.039ZM387.466 420V426.6H391.406L393.275 423.132L387.466 420ZM377.779 420L372.071 416.686L366.314 426.6H377.779V420ZM386.49 405L392.197 408.314L394.074 405.082L392.268 401.81L386.49 405ZM378.208 390V383.4H367.026L372.43 393.19L378.208 390ZM381.993 392.952L386.934 402.834L398.74 396.931L393.799 387.048L381.993 392.952ZM398.698 402.918L403.815 393.035L392.093 386.965L386.976 396.848L398.698 402.918ZM397.954 396.6H407.583V383.4H397.954V396.6ZM401.821 386.781L393.442 401.781L404.966 408.219L413.345 393.219L401.821 386.781ZM393.494 408.309L402.185 423.309L413.606 416.691L404.915 401.691L393.494 408.309ZM407.896 413.4H398.345V426.6H407.896V413.4ZM404.121 416.806L398.613 406.845L387.061 413.233L392.569 423.194L404.121 416.806ZM387.028 406.907L381.657 416.868L393.275 423.132L398.647 413.172L387.028 406.907ZM387.466 413.4H377.779V426.6H387.466V413.4ZM383.486 423.314L392.197 408.314L380.782 401.686L372.071 416.686L383.486 423.314ZM392.268 401.81L383.986 386.81L372.43 393.19L380.712 408.19L392.268 401.81ZM378.208 396.6H387.896V383.4H378.208V396.6ZM421.612 419.492L419.392 425.708L419.41 425.714L419.428 425.72L421.612 419.492ZM416.26 416.094L411.593 420.761L411.603 420.77L411.613 420.78L416.26 416.094ZM412.569 409.961L406.347 412.163L406.35 412.173L412.569 409.961ZM411.241 400.684L404.641 400.658L404.641 400.66L411.241 400.684ZM412.452 391.816L418.767 393.733L418.77 393.724L412.452 391.816ZM415.85 385.117L410.718 380.968L410.709 380.979L410.7 380.99L415.85 385.117ZM421.162 380.918L423.962 386.895L423.97 386.891L423.978 386.887L421.162 380.918ZM435.498 381.094L432.49 386.968L432.511 386.979L432.532 386.99L435.498 381.094ZM440.655 385.469L435.253 389.261L435.259 389.27L435.266 389.279L440.655 385.469ZM442.94 391.562V398.162H450.267L449.504 390.876L442.94 391.562ZM433.428 391.562L426.992 393.022L428.157 398.162H433.428V391.562ZM431.534 388.691L427.788 394.126L427.83 394.155L427.873 394.183L431.534 388.691ZM422.608 390.879L416.875 387.608L416.868 387.621L416.86 387.635L422.608 390.879ZM420.772 399.395L414.172 399.346L414.123 405.995H420.772V399.395ZM421.026 399.395V405.995H425.268L427.03 402.135L421.026 399.395ZM423.389 396.309L427.621 401.374L427.621 401.374L423.389 396.309ZM426.924 394.336L429.066 400.579L429.084 400.573L429.102 400.566L426.924 394.336ZM437.53 395.293L434.122 400.945L434.122 400.945L437.53 395.293ZM441.846 399.844L436.04 402.982L436.044 402.99L436.049 402.999L441.846 399.844ZM443.389 406.426L436.789 406.391L436.789 406.424L436.789 406.457L443.389 406.426ZM441.436 413.809L447.046 417.285L447.051 417.277L447.056 417.27L441.436 413.809ZM435.967 418.77L432.976 412.886L432.969 412.89L432.963 412.893L435.967 418.77ZM434.014 406.738L427.414 406.668L427.414 406.739L427.414 406.809L434.014 406.738ZM433.233 403.477L427.445 406.648L427.461 406.678L427.478 406.709L433.233 403.477ZM431.045 401.211L427.626 406.856L427.644 406.867L427.661 406.877L431.045 401.211ZM423.448 402.227L418.676 397.667L418.673 397.669L423.448 402.227ZM422.159 404.258L428.272 406.745L428.279 406.727L428.286 406.709L422.159 404.258ZM421.67 406.758L415.071 406.662L415.07 406.746L415.071 406.83L421.67 406.758ZM422.491 409.98L416.717 413.179L416.717 413.179L422.491 409.98ZM424.678 412.285L421.201 417.895L421.23 417.913L421.259 417.931L424.678 412.285ZM427.901 413.947C426.435 413.947 425.078 413.714 423.796 413.264L419.428 425.72C422.155 426.677 424.992 427.147 427.901 427.147V413.947ZM423.831 413.277C422.769 412.897 421.806 412.299 420.907 411.407L411.613 420.78C413.839 422.988 416.444 424.655 419.392 425.708L423.831 413.277ZM420.927 411.427C420.189 410.689 419.426 409.545 418.787 407.749L406.35 412.173C407.508 415.429 409.206 418.373 411.593 420.761L420.927 411.427ZM418.791 407.759C418.217 406.138 417.829 403.845 417.841 400.707L404.641 400.66C404.626 404.813 405.124 408.706 406.347 412.163L418.791 407.759ZM417.841 400.71C417.851 397.93 418.192 395.627 418.767 393.733L406.136 389.9C405.122 393.24 404.656 396.849 404.641 400.658L417.841 400.71ZM418.77 393.724C419.36 391.768 420.137 390.321 421 389.245L410.7 380.99C408.62 383.585 407.131 386.604 406.133 389.908L418.77 393.724ZM420.982 389.267C421.863 388.177 422.847 387.417 423.962 386.895L418.363 374.941C415.364 376.346 412.806 378.385 410.718 380.968L420.982 389.267ZM423.978 386.887C425.071 386.372 426.405 386.053 428.096 386.053V372.853C424.683 372.853 421.394 373.511 418.347 374.949L423.978 386.887ZM428.096 386.053C430.024 386.053 431.429 386.425 432.49 386.968L438.507 375.219C435.297 373.575 431.767 372.853 428.096 372.853V386.053ZM432.532 386.99C433.78 387.617 434.635 388.381 435.253 389.261L446.056 381.676C444.096 378.885 441.514 376.732 438.464 375.198L432.532 386.99ZM435.266 389.279C435.896 390.171 436.258 391.124 436.376 392.249L449.504 390.876C449.153 387.521 447.991 384.413 446.043 381.658L435.266 389.279ZM442.94 384.962H433.428V398.162H442.94V384.962ZM439.865 390.103C439.246 387.376 437.73 384.89 435.195 383.2L427.873 394.183C427.645 394.031 427.412 393.808 427.231 393.532C427.056 393.268 427.002 393.066 426.992 393.022L439.865 390.103ZM435.279 383.257C433.069 381.734 430.575 381.095 428.096 381.095V394.295C428.208 394.295 428.202 394.309 428.115 394.284C428.02 394.256 427.901 394.204 427.788 394.126L435.279 383.257ZM428.096 381.095C423.283 381.095 419.263 383.423 416.875 387.608L428.34 394.15C428.406 394.035 428.434 394.014 428.405 394.044C428.372 394.079 428.303 394.14 428.2 394.2C428.096 394.26 428.009 394.289 427.965 394.3C427.926 394.31 427.961 394.295 428.096 394.295V381.095ZM416.86 387.635C414.916 391.079 414.203 395.15 414.172 399.346L427.372 399.443C427.393 396.529 427.904 394.924 428.355 394.123L416.86 387.635ZM420.772 405.995H421.026V392.795H420.772V405.995ZM427.03 402.135C427.159 401.851 427.335 401.612 427.621 401.374L419.157 391.244C417.386 392.724 415.986 394.542 415.022 396.654L427.03 402.135ZM427.621 401.374C428.001 401.055 428.464 400.785 429.066 400.579L424.782 388.093C422.728 388.798 420.834 389.843 419.157 391.244L427.621 401.374ZM429.102 400.566C429.706 400.355 430.386 400.233 431.182 400.233V387.033C428.983 387.033 426.825 387.379 424.747 388.106L429.102 400.566ZM431.182 400.233C432.522 400.233 433.432 400.529 434.122 400.945L440.937 389.641C437.955 387.843 434.634 387.033 431.182 387.033V400.233ZM434.122 400.945C434.925 401.43 435.546 402.068 436.04 402.982L447.652 396.705C446.063 393.765 443.806 391.37 440.937 389.641L434.122 400.945ZM436.049 402.999C436.49 403.808 436.797 404.878 436.789 406.391L449.989 406.461C450.007 403.025 449.286 399.707 447.643 396.689L436.049 402.999ZM436.789 406.457C436.797 408.152 436.415 409.376 435.816 410.348L447.056 417.27C449.087 413.97 450.007 410.273 449.989 406.395L436.789 406.457ZM435.826 410.332C435.178 411.378 434.283 412.222 432.976 412.886L438.958 424.653C442.313 422.948 445.064 420.484 447.046 417.285L435.826 410.332ZM432.963 412.893C431.725 413.526 430.099 413.947 427.901 413.947V427.147C431.822 427.147 435.573 426.383 438.971 424.646L432.963 412.893ZM427.842 419.725C430.114 419.725 432.363 419.174 434.41 417.952L427.642 406.619C427.671 406.601 427.705 406.584 427.743 406.568C427.78 406.552 427.815 406.541 427.843 406.533C427.904 406.517 427.911 406.525 427.842 406.525V419.725ZM434.41 417.952C436.357 416.789 437.913 415.172 439.006 413.199L427.46 406.801C427.459 406.802 427.465 406.791 427.479 406.773C427.492 406.755 427.511 406.732 427.533 406.709C427.583 406.658 427.626 406.628 427.642 406.619L434.41 417.952ZM439.006 413.199C440.148 411.138 440.638 408.905 440.614 406.667L427.414 406.809C427.415 406.865 427.412 406.9 427.41 406.917C427.409 406.934 427.407 406.935 427.41 406.925C427.413 406.913 427.418 406.895 427.427 406.87C427.437 406.846 427.448 406.823 427.46 406.801L439.006 413.199ZM440.614 406.808C440.637 404.574 440.154 402.322 438.987 400.245L427.478 406.709C427.46 406.677 427.445 406.644 427.432 406.612C427.42 406.58 427.413 406.556 427.41 406.542C427.403 406.512 427.416 406.547 427.414 406.668L440.614 406.808ZM439.021 400.305C437.931 398.316 436.368 396.702 434.429 395.545L427.661 406.877C427.65 406.87 427.603 406.84 427.547 406.782C427.491 406.723 427.457 406.671 427.445 406.648L439.021 400.305ZM434.464 395.566C432.399 394.315 430.131 393.771 427.862 393.771V406.971C427.944 406.971 427.939 406.98 427.872 406.963C427.802 406.944 427.713 406.909 427.626 406.856L434.464 395.566ZM427.862 393.771C426.146 393.771 424.438 394.096 422.808 394.798L428.033 406.92C427.983 406.942 427.933 406.957 427.891 406.965C427.851 406.973 427.838 406.971 427.862 406.971V393.771ZM422.808 394.798C421.252 395.469 419.857 396.431 418.676 397.667L428.219 406.786C428.196 406.811 428.162 406.841 428.12 406.87C428.079 406.899 428.046 406.914 428.033 406.92L422.808 394.798ZM418.673 397.669C417.509 398.889 416.636 400.293 416.031 401.807L428.286 406.709C428.299 406.678 428.302 406.679 428.288 406.701C428.273 406.723 428.251 406.753 428.222 406.784L418.673 397.669ZM416.045 401.771C415.398 403.36 415.095 405.012 415.071 406.662L428.27 406.853C428.271 406.774 428.278 406.734 428.28 406.724C428.281 406.716 428.28 406.725 428.272 406.745L416.045 401.771ZM415.071 406.83C415.095 409.024 415.613 411.186 416.717 413.179L428.264 406.782C428.267 406.788 428.271 406.796 428.275 406.806C428.279 406.816 428.281 406.823 428.281 406.824C428.281 406.825 428.279 406.816 428.276 406.795C428.274 406.774 428.27 406.738 428.27 406.685L415.071 406.83ZM416.717 413.179C417.791 415.116 419.305 416.72 421.201 417.895L428.155 406.675C428.155 406.675 428.164 406.681 428.179 406.693C428.193 406.705 428.209 406.719 428.225 406.736C428.241 406.752 428.252 406.767 428.26 406.777C428.268 406.788 428.268 406.79 428.264 406.782L416.717 413.179ZM421.259 417.931C423.313 419.174 425.572 419.725 427.842 419.725V406.525C427.773 406.525 427.785 406.517 427.856 406.536C427.93 406.556 428.017 406.591 428.097 406.64L421.259 417.931Z" fill="#FAEAD3" mask="url(#path-13-outside-2_244_490)"/>
<mask id="path-15-outside-3_244_490" maskUnits="userSpaceOnUse" x="366" y="230" width="84" height="55" fill="black">
<rect fill="white" x="366" y="230" width="84" height="55"/>
<path d="M388.326 247L393.267 256.883L398.384 247H408.013L399.634 262L408.326 277H398.775L393.267 267.039L387.896 277H378.208L386.919 262L378.638 247H388.326ZM427.608 277.547C424.691 277.547 422.1 277.02 419.834 275.965C417.569 274.91 415.778 273.458 414.463 271.609C413.161 269.76 412.484 267.638 412.432 265.242H421.807C421.885 266.714 422.484 267.898 423.604 268.797C424.724 269.682 426.058 270.125 427.608 270.125C428.819 270.125 429.893 269.858 430.83 269.324C431.768 268.79 432.504 268.042 433.037 267.078C433.571 266.102 433.832 264.982 433.819 263.719C433.832 262.43 433.565 261.303 433.018 260.34C432.484 259.376 431.742 258.628 430.791 258.094C429.854 257.547 428.773 257.273 427.549 257.273C426.39 257.26 425.29 257.514 424.248 258.035C423.22 258.556 422.438 259.266 421.905 260.164L413.369 258.562L415.108 237H440.772V244.793H423.057L422.139 254.227H422.373C423.037 253.12 424.105 252.208 425.577 251.492C427.061 250.763 428.747 250.398 430.635 250.398C433.031 250.398 435.166 250.958 437.041 252.078C438.929 253.185 440.414 254.721 441.494 256.687C442.588 258.654 443.135 260.906 443.135 263.445C443.135 266.193 442.484 268.628 441.182 270.75C439.893 272.872 438.083 274.539 435.752 275.75C433.435 276.948 430.72 277.547 427.608 277.547Z"/>
</mask>
<path d="M388.326 247L393.267 256.883L398.384 247H408.013L399.634 262L408.326 277H398.775L393.267 267.039L387.896 277H378.208L386.919 262L378.638 247H388.326ZM427.608 277.547C424.691 277.547 422.1 277.02 419.834 275.965C417.569 274.91 415.778 273.458 414.463 271.609C413.161 269.76 412.484 267.638 412.432 265.242H421.807C421.885 266.714 422.484 267.898 423.604 268.797C424.724 269.682 426.058 270.125 427.608 270.125C428.819 270.125 429.893 269.858 430.83 269.324C431.768 268.79 432.504 268.042 433.037 267.078C433.571 266.102 433.832 264.982 433.819 263.719C433.832 262.43 433.565 261.303 433.018 260.34C432.484 259.376 431.742 258.628 430.791 258.094C429.854 257.547 428.773 257.273 427.549 257.273C426.39 257.26 425.29 257.514 424.248 258.035C423.22 258.556 422.438 259.266 421.905 260.164L413.369 258.562L415.108 237H440.772V244.793H423.057L422.139 254.227H422.373C423.037 253.12 424.105 252.208 425.577 251.492C427.061 250.763 428.747 250.398 430.635 250.398C433.031 250.398 435.166 250.958 437.041 252.078C438.929 253.185 440.414 254.721 441.494 256.687C442.588 258.654 443.135 260.906 443.135 263.445C443.135 266.193 442.484 268.628 441.182 270.75C439.893 272.872 438.083 274.539 435.752 275.75C433.435 276.948 430.72 277.547 427.608 277.547Z" fill="black"/>
<path d="M388.326 247L394.229 244.048L392.405 240.4H388.326V247ZM393.267 256.883L387.364 259.834L393.164 271.435L399.128 259.918L393.267 256.883ZM398.384 247V240.4H394.369L392.523 243.965L398.384 247ZM408.013 247L413.775 250.219L419.26 240.4H408.013V247ZM399.634 262L393.872 258.781L392.041 262.06L393.923 265.309L399.634 262ZM408.326 277V283.6H419.778L414.036 273.691L408.326 277ZM398.775 277L392.999 280.194L394.882 283.6H398.775V277ZM393.267 267.039L399.043 263.845L393.194 253.268L387.458 263.907L393.267 267.039ZM387.896 277V283.6H391.835L393.705 280.132L387.896 277ZM378.208 277L372.501 273.686L366.743 283.6H378.208V277ZM386.919 262L392.627 265.314L394.504 262.082L392.697 258.81L386.919 262ZM378.638 247V240.4H367.455L372.86 250.19L378.638 247ZM382.422 249.952L387.364 259.834L399.17 253.931L394.229 244.048L382.422 249.952ZM399.128 259.918L404.245 250.035L392.523 243.965L387.406 253.848L399.128 259.918ZM398.384 253.6H408.013V240.4H398.384V253.6ZM402.251 243.781L393.872 258.781L405.396 265.219L413.775 250.219L402.251 243.781ZM393.923 265.309L402.615 280.309L414.036 273.691L405.345 258.691L393.923 265.309ZM408.326 270.4H398.775V283.6H408.326V270.4ZM404.551 273.806L399.043 263.845L387.491 270.233L392.999 280.194L404.551 273.806ZM387.458 263.907L382.087 273.868L393.705 280.132L399.076 270.172L387.458 263.907ZM387.896 270.4H378.208V283.6H387.896V270.4ZM383.916 280.314L392.627 265.314L381.212 258.686L372.501 273.686L383.916 280.314ZM392.697 258.81L384.416 243.81L372.86 250.19L381.141 265.19L392.697 258.81ZM378.638 253.6H388.326V240.4H378.638V253.6ZM419.834 275.965L417.049 281.948L417.049 281.948L419.834 275.965ZM414.463 271.609L409.067 275.41L409.076 275.422L409.085 275.435L414.463 271.609ZM412.432 265.242V258.642H405.687L405.834 265.386L412.432 265.242ZM421.807 265.242L428.398 264.892L428.066 258.642H421.807V265.242ZM423.604 268.797L419.474 273.945L419.492 273.959L419.51 273.974L423.604 268.797ZM430.83 269.324L427.564 263.589L427.564 263.589L430.83 269.324ZM433.037 267.078L438.811 270.277L438.82 270.26L438.829 270.244L433.037 267.078ZM433.819 263.719L427.219 263.652L427.218 263.719L427.219 263.787L433.819 263.719ZM433.018 260.34L427.245 263.538L427.261 263.568L427.278 263.598L433.018 260.34ZM430.791 258.094L427.466 263.795L427.512 263.822L427.559 263.848L430.791 258.094ZM427.549 257.273L427.475 263.873L427.512 263.873H427.549V257.273ZM424.248 258.035L421.297 252.132L421.282 252.139L421.267 252.147L424.248 258.035ZM421.905 260.164L420.687 266.651L425.222 267.502L427.579 263.536L421.905 260.164ZM413.369 258.562L406.791 258.032L406.313 263.954L412.152 265.049L413.369 258.562ZM415.108 237V230.4H409.018L408.529 236.47L415.108 237ZM440.772 237H447.372V230.4H440.772V237ZM440.772 244.793V251.393H447.372V244.793H440.772ZM423.057 244.793V238.193H417.068L416.488 244.154L423.057 244.793ZM422.139 254.227L415.57 253.587L414.866 260.827H422.139V254.227ZM422.373 254.227V260.827H426.11L428.033 257.622L422.373 254.227ZM425.577 251.492L428.465 257.427L428.476 257.421L428.486 257.416L425.577 251.492ZM437.041 252.078L433.657 257.745L433.68 257.758L433.704 257.772L437.041 252.078ZM441.494 256.687L435.711 259.867L435.719 259.881L435.727 259.896L441.494 256.687ZM441.182 270.75L435.556 267.299L435.549 267.311L435.541 267.324L441.182 270.75ZM435.752 275.75L438.783 281.613L438.795 281.607L435.752 275.75ZM427.608 270.947C425.494 270.947 423.879 270.568 422.62 269.981L417.049 281.948C420.321 283.472 423.889 284.147 427.608 284.147V270.947ZM422.62 269.981C421.283 269.359 420.428 268.609 419.842 267.784L409.085 275.435C411.128 278.308 413.854 280.461 417.049 281.948L422.62 269.981ZM419.859 267.809C419.359 267.098 419.056 266.266 419.03 265.099L405.834 265.386C405.912 269.01 406.964 272.423 409.067 275.41L419.859 267.809ZM412.432 271.842H421.807V258.642H412.432V271.842ZM415.216 265.592C415.391 268.884 416.845 271.835 419.474 273.945L427.734 263.649C427.848 263.741 428.046 263.942 428.205 264.257C428.362 264.568 428.394 264.814 428.398 264.892L415.216 265.592ZM419.51 273.974C421.897 275.862 424.708 276.725 427.608 276.725V263.525C427.535 263.525 427.497 263.52 427.487 263.518C427.479 263.517 427.492 263.519 427.523 263.529C427.553 263.539 427.589 263.554 427.625 263.573C427.661 263.593 427.685 263.61 427.697 263.62L419.51 273.974ZM427.608 276.725C429.821 276.725 432.046 276.227 434.096 275.06L427.564 263.589C427.597 263.571 427.629 263.555 427.661 263.543C427.692 263.53 427.716 263.523 427.73 263.52C427.76 263.512 427.727 263.525 427.608 263.525V276.725ZM434.096 275.06C436.11 273.913 437.703 272.276 438.811 270.277L427.264 263.88C427.272 263.865 427.307 263.808 427.378 263.737C427.449 263.664 427.519 263.615 427.564 263.589L434.096 275.06ZM438.829 270.244C439.974 268.149 440.441 265.888 440.418 263.651L427.219 263.787C427.221 263.943 427.205 264.011 427.205 264.011C427.205 264.012 427.207 264 427.215 263.98C427.222 263.96 427.233 263.937 427.246 263.912L438.829 270.244ZM440.418 263.785C440.441 261.524 439.968 259.214 438.758 257.082L427.278 263.598C427.255 263.558 427.238 263.52 427.225 263.488C427.213 263.456 427.208 263.435 427.206 263.429C427.203 263.417 427.221 263.483 427.219 263.652L440.418 263.785ZM438.791 257.141C437.67 255.118 436.053 253.479 434.023 252.339L427.559 263.848C427.519 263.825 427.448 263.778 427.374 263.702C427.299 263.627 427.258 263.563 427.245 263.538L438.791 257.141ZM434.117 252.393C432.046 251.185 429.789 250.673 427.549 250.673V263.873C427.668 263.873 427.696 263.886 427.659 263.877C427.641 263.872 427.612 263.864 427.576 263.849C427.54 263.834 427.502 263.816 427.466 263.795L434.117 252.393ZM427.623 250.674C425.409 250.649 423.272 251.144 421.297 252.132L427.2 263.938C427.308 263.885 427.371 263.872 427.475 263.873L427.623 250.674ZM421.267 252.147C419.24 253.173 417.47 254.707 416.231 256.793L427.579 263.536C427.507 263.655 427.418 263.762 427.329 263.843C427.243 263.922 427.195 263.941 427.23 263.923L421.267 252.147ZM423.122 253.677L414.587 252.076L412.152 265.049L420.687 266.651L423.122 253.677ZM419.948 259.093L421.686 237.53L408.529 236.47L406.791 258.032L419.948 259.093ZM415.108 243.6H440.772V230.4H415.108V243.6ZM434.172 237V244.793H447.372V237H434.172ZM440.772 238.193H423.057V251.393H440.772V238.193ZM416.488 244.154L415.57 253.587L428.708 254.866L429.626 245.432L416.488 244.154ZM422.139 260.827H422.373V247.627H422.139V260.827ZM428.033 257.622C427.967 257.732 427.919 257.765 427.957 257.733C428.003 257.694 428.151 257.579 428.465 257.427L422.688 245.558C420.373 246.685 418.192 248.368 416.714 250.831L428.033 257.622ZM428.486 257.416C428.945 257.191 429.613 256.998 430.635 256.998V243.798C427.882 243.798 425.177 244.335 422.667 245.568L428.486 257.416ZM430.635 256.998C431.959 256.998 432.903 257.294 433.657 257.745L440.425 246.412C437.43 244.623 434.103 243.798 430.635 243.798V256.998ZM433.704 257.772C434.538 258.261 435.188 258.916 435.711 259.867L447.278 253.508C445.639 250.526 443.321 248.109 440.379 246.384L433.704 257.772ZM435.727 259.896C436.208 260.76 436.535 261.882 436.535 263.445H449.735C449.735 259.93 448.969 256.547 447.262 253.479L435.727 259.896ZM436.535 263.445C436.535 265.104 436.157 266.32 435.556 267.299L446.808 274.201C448.812 270.935 449.735 267.281 449.735 263.445H436.535ZM435.541 267.324C434.916 268.353 434.032 269.206 432.709 269.893L438.795 281.607C442.134 279.872 444.87 277.392 446.823 274.176L435.541 267.324ZM432.722 269.887C431.505 270.516 429.867 270.947 427.608 270.947V284.147C431.572 284.147 435.364 283.38 438.783 281.613L432.722 269.887Z" fill="#FAEAD3" mask="url(#path-15-outside-3_244_490)"/>
<path d="M319.5 70L351.857 89.7143L306.429 107.714L273 84.5714L319.5 70Z" fill="#5AB12F"/>
<path d="M306.429 107.714L351.857 89.7141V137.714L306.429 157.428L273 130.857V84.5713L306.429 107.714Z" fill="#3FA938"/>
<path d="M319.5 356L351.857 375.714L306.429 393.714L273 370.571L319.5 356Z" fill="#5AB12F"/>
<path d="M306.429 393.714L351.857 375.714V423.714L306.429 443.428L273 416.857V370.571L306.429 393.714Z" fill="#3FA938"/>
<path d="M319.5 213L351.857 232.714L306.429 250.714L273 227.571L319.5 213Z" fill="#5AB12F"/>
<path d="M306.429 250.714L351.857 232.714V280.714L306.429 300.428L273 273.857V227.571L306.429 250.714Z" fill="#3FA938"/>
</svg>
