<svg width="147" height="147" viewBox="0 0 147 147" fill="none" xmlns="http://www.w3.org/2000/svg">
<g filter="url(#filter0_i_18_1592)">
<path d="M109.888 3.36974e-05L73.5154 21L37.1423 4.00571e-05L0.769276 21L0.76928 63.0001L37.1423 84L37.1423 126L73.5154 147L109.888 126L109.888 84L146.262 63L146.262 21L109.888 3.36974e-05Z" fill="#5E5538"/>
</g>
<g filter="url(#filter1_i_18_1592)">
<mask id="path-2-inside-1_18_1592" fill="white">
<path d="M110.374 126L110.374 84L74.0008 63L37.6277 84L37.6277 126L74.0008 147L110.374 126Z"/>
</mask>
<path d="M110.374 126L110.374 84L74.0008 63L37.6277 84L37.6277 126L74.0008 147L110.374 126Z" stroke="black" stroke-opacity="0.5" stroke-width="14" mask="url(#path-2-inside-1_18_1592)"/>
</g>
<mask id="path-3-outside-2_18_1592" maskUnits="userSpaceOnUse" x="63.2616" y="70.52" width="22" height="45" fill="black">
<rect fill="white" x="63.2616" y="70.52" width="22" height="45"/>
<path fill-rule="evenodd" clip-rule="evenodd" d="M71.6894 106.51C61.1678 97.7475 61.9208 89.3051 73.3341 73.52C73.4613 76.8591 75.0014 78.7403 77.3608 81.6223C77.9679 82.3637 78.6291 83.1715 79.3346 84.0873C85.6198 93.6941 85.7872 99.2993 75.8279 108.438C75.8158 108.454 75.8034 108.469 75.7905 108.485C75.7775 108.491 75.7609 108.502 75.741 108.518C75.6943 108.56 75.6474 108.603 75.6003 108.646C75.3559 108.888 74.933 109.373 74.4332 109.945C73.6945 110.791 72.7877 111.83 72.0409 112.564C68.1995 114.574 67.1497 114.807 68.5117 112.564C70.2655 110.167 71.189 108.568 71.6894 106.51Z"/>
</mask>
<path fill-rule="evenodd" clip-rule="evenodd" d="M71.6894 106.51C61.1678 97.7475 61.9208 89.3051 73.3341 73.52C73.4613 76.8591 75.0014 78.7403 77.3608 81.6223C77.9679 82.3637 78.6291 83.1715 79.3346 84.0873C85.6198 93.6941 85.7872 99.2993 75.8279 108.438C75.8158 108.454 75.8034 108.469 75.7905 108.485C75.7775 108.491 75.7609 108.502 75.741 108.518C75.6943 108.56 75.6474 108.603 75.6003 108.646C75.3559 108.888 74.933 109.373 74.4332 109.945C73.6945 110.791 72.7877 111.83 72.0409 112.564C68.1995 114.574 67.1497 114.807 68.5117 112.564C70.2655 110.167 71.189 108.568 71.6894 106.51Z" fill="#3FA938"/>
<path d="M73.3341 73.52L74.2934 73.4835L74.1874 70.7014L72.5561 72.9575L73.3341 73.52ZM71.6894 106.51L72.6222 106.737L72.7637 106.155L72.3038 105.772L71.6894 106.51ZM77.3608 81.6223L78.1036 81.0141L78.1036 81.0141L77.3608 81.6223ZM79.3346 84.0873L80.1379 83.5618L80.1177 83.5308L80.0951 83.5016L79.3346 84.0873ZM75.8279 108.438L75.1788 107.731L75.1171 107.787L75.0661 107.854L75.8279 108.438ZM75.7905 108.485L76.1959 109.355L76.3942 109.263L76.533 109.094L75.7905 108.485ZM75.741 108.518L75.1512 107.76L75.1212 107.783L75.0932 107.809L75.741 108.518ZM75.6003 108.646L74.9546 107.936L74.9391 107.95L74.9243 107.964L75.6003 108.646ZM74.4332 109.945L73.71 109.314L73.71 109.314L74.4332 109.945ZM72.0409 112.564L72.4859 113.415L72.6122 113.349L72.7139 113.249L72.0409 112.564ZM68.5117 112.564L67.7369 111.997L67.7125 112.031L67.6911 112.066L68.5117 112.564ZM72.5561 72.9575C66.8395 80.8639 63.6447 87.1163 63.3278 92.593C63.0039 98.1902 65.6848 102.759 71.0751 107.248L72.3038 105.772C67.1724 101.499 64.969 97.4649 65.2446 92.7039C65.527 87.8226 68.4154 81.9612 74.112 74.0825L72.5561 72.9575ZM78.1036 81.0141C75.7244 78.108 74.4067 76.4596 74.2934 73.4835L72.3748 73.5566C72.5158 77.2587 74.2783 79.3726 76.618 82.2304L78.1036 81.0141ZM80.0951 83.5016C79.3799 82.5729 78.7101 81.7549 78.1036 81.0141L76.618 82.2304C77.2257 82.9726 77.8784 83.7701 78.574 84.6731L80.0951 83.5016ZM76.4769 109.145C81.4994 104.537 84.1696 100.648 84.627 96.5446C85.0841 92.4446 83.2998 88.3946 80.1379 83.5618L78.5312 84.6129C81.6546 89.3868 83.0966 92.9429 82.7188 96.3319C82.3414 99.7175 80.1157 103.201 75.1788 107.731L76.4769 109.145ZM75.0661 107.854C75.0605 107.861 75.0545 107.869 75.0481 107.877L76.533 109.094C76.5523 109.07 76.5712 109.046 76.5896 109.022L75.0661 107.854ZM75.3852 107.615C75.2739 107.667 75.19 107.73 75.1512 107.76L76.3307 109.275C76.3261 109.279 76.314 109.288 76.2956 109.3C76.279 109.311 76.2445 109.333 76.1959 109.355L75.3852 107.615ZM76.246 109.356C76.2938 109.313 76.3414 109.269 76.3888 109.226L75.0932 107.809C75.0472 107.851 75.001 107.893 74.9546 107.936L76.246 109.356ZM74.9243 107.964C74.6485 108.238 74.1957 108.758 73.71 109.314L75.1564 110.577C75.6703 109.988 76.0632 109.539 76.2763 109.327L74.9243 107.964ZM73.71 109.314C72.9635 110.169 72.083 111.177 71.3679 111.88L72.7139 113.249C73.4924 112.484 74.4254 111.414 75.1564 110.577L73.71 109.314ZM71.5959 111.714C70.64 112.214 69.8785 112.592 69.2934 112.848C68.6662 113.121 68.366 113.195 68.2762 113.2C68.2292 113.202 68.4609 113.173 68.6846 113.39C68.9344 113.632 68.9016 113.906 68.9008 113.913C68.8992 113.926 68.9079 113.863 68.9867 113.692C69.0598 113.533 69.1722 113.326 69.3322 113.062L67.6911 112.066C67.5106 112.363 67.3579 112.639 67.2428 112.889C67.1333 113.127 67.0306 113.398 66.9959 113.673C66.962 113.942 66.9744 114.407 67.3493 114.769C67.6981 115.107 68.1347 115.13 68.3739 115.118C68.8565 115.093 69.4538 114.872 70.0614 114.607C70.7109 114.324 71.5212 113.92 72.4859 113.415L71.5959 111.714ZM69.2864 113.131C71.0648 110.701 72.077 108.979 72.6222 106.737L70.7566 106.283C70.3011 108.156 69.4662 109.634 67.7369 111.997L69.2864 113.131Z" fill="black" mask="url(#path-3-outside-2_18_1592)"/>
<g filter="url(#filter2_d_18_1592)">
<path d="M69.7561 99.0042V96.9814L74.0004 93.2655C74.3186 92.9777 74.5894 92.7144 74.8129 92.4758C75.0364 92.2333 75.2069 91.9909 75.3243 91.7485C75.4417 91.5023 75.5004 91.2352 75.5004 90.9473C75.5004 90.6254 75.4304 90.3508 75.2902 90.1235C75.1501 89.8924 74.9569 89.7144 74.7107 89.5894C74.4644 89.4644 74.1822 89.4019 73.8641 89.4019C73.5421 89.4019 73.2599 89.4682 73.0175 89.6008C72.7751 89.7295 72.5857 89.917 72.4493 90.1633C72.3167 90.4095 72.2504 90.7087 72.2504 91.061H69.5857C69.5857 90.2693 69.7637 89.5856 70.1197 89.0098C70.4758 88.4341 70.9758 87.9909 71.6197 87.6803C72.2675 87.3659 73.0194 87.2087 73.8754 87.2087C74.758 87.2087 75.5251 87.3564 76.1766 87.6519C76.8281 87.9473 77.3319 88.3602 77.6879 88.8905C78.0478 89.417 78.2277 90.0288 78.2277 90.7258C78.2277 91.1689 78.1387 91.6083 77.9607 92.0439C77.7826 92.4795 77.4626 92.9606 77.0004 93.4871C76.5421 94.0136 75.8906 94.6443 75.0459 95.3792L73.6538 96.6633V96.7371H78.3697V99.0042H69.7561Z" fill="#F7F3F4"/>
</g>
<mask id="path-6-outside-3_18_1592" maskUnits="userSpaceOnUse" x="59.7693" y="29.2101" width="28" height="31" fill="black">
<rect fill="white" x="59.7693" y="29.2101" width="28" height="31"/>
<path d="M75.6763 30.2101L86.0493 36.5419L71.4858 42.323L60.7693 34.8901L75.6763 30.2101Z"/>
<path d="M71.4858 42.323L86.0493 36.5419V51.9584L71.4858 58.2901L60.7693 49.756L60.7693 34.8901L71.4858 42.323Z"/>
</mask>
<path d="M75.6763 30.2101L86.0493 36.5419L71.4858 42.323L60.7693 34.8901L75.6763 30.2101Z" fill="#5AB12F"/>
<path d="M71.4858 42.323L86.0493 36.5419V51.9584L71.4858 58.2901L60.7693 49.756L60.7693 34.8901L71.4858 42.323Z" fill="#3FA938"/>
<path d="M71.4858 42.323L71.235 42.6846L71.4289 42.819L71.6481 42.732L71.4858 42.323ZM85.8869 36.1329L71.3235 41.9141L71.6481 42.732L86.2116 36.9508L85.8869 36.1329ZM71.7366 41.9615L61.0201 34.5285L60.5185 35.2516L71.235 42.6846L71.7366 41.9615ZM75.6763 30.2101L76.1348 29.459L75.7938 29.2509L75.4127 29.3705L75.6763 30.2101ZM86.0493 36.5419H86.9293V36.048L86.5078 35.7907L86.0493 36.5419ZM60.7693 34.8901L60.5057 34.0505L59.8893 34.244L59.8893 34.8901H60.7693ZM86.0493 51.9584L86.4001 52.7654L86.9293 52.5353V51.9584H86.0493ZM71.4858 58.2901L70.9376 58.9785L71.3515 59.3081L71.8367 59.0971L71.4858 58.2901ZM60.7693 49.756H59.8893V50.1802L60.2211 50.4444L60.7693 49.756ZM75.2178 30.9612L85.5908 37.293L86.5078 35.7907L76.1348 29.459L75.2178 30.9612ZM61.0329 35.7297L75.9399 31.0497L75.4127 29.3705L60.5057 34.0505L61.0329 35.7297ZM85.1693 36.5419V51.9584H86.9293V36.5419H85.1693ZM85.6984 51.1513L71.1349 57.4831L71.8367 59.0971L86.4001 52.7654L85.6984 51.1513ZM72.034 57.6017L61.3175 49.0676L60.2211 50.4444L70.9376 58.9785L72.034 57.6017ZM61.6493 49.756L61.6493 34.8901H59.8893L59.8893 49.756H61.6493Z" fill="black" mask="url(#path-6-outside-3_18_1592)"/>
<defs>
<filter id="filter0_i_18_1592" x="0.769287" y="-5.99997" width="145.492" height="153" filterUnits="userSpaceOnUse" color-interpolation-filters="sRGB">
<feFlood flood-opacity="0" result="BackgroundImageFix"/>
<feBlend mode="normal" in="SourceGraphic" in2="BackgroundImageFix" result="shape"/>
<feColorMatrix in="SourceAlpha" type="matrix" values="0 0 0 0 0 0 0 0 0 0 0 0 0 0 0 0 0 0 127 0" result="hardAlpha"/>
<feOffset dy="-6"/>
<feGaussianBlur stdDeviation="4.9"/>
<feComposite in2="hardAlpha" operator="arithmetic" k2="-1" k3="1"/>
<feColorMatrix type="matrix" values="0 0 0 0 0 0 0 0 0 0 0 0 0 0 0 0 0 0 0.5 0"/>
<feBlend mode="normal" in2="shape" result="effect1_innerShadow_18_1592"/>
</filter>
<filter id="filter1_i_18_1592" x="37.6277" y="62" width="72.7462" height="85" filterUnits="userSpaceOnUse" color-interpolation-filters="sRGB">
<feFlood flood-opacity="0" result="BackgroundImageFix"/>
<feBlend mode="normal" in="SourceGraphic" in2="BackgroundImageFix" result="shape"/>
<feColorMatrix in="SourceAlpha" type="matrix" values="0 0 0 0 0 0 0 0 0 0 0 0 0 0 0 0 0 0 127 0" result="hardAlpha"/>
<feOffset dy="-1"/>
<feGaussianBlur stdDeviation="1.5"/>
<feComposite in2="hardAlpha" operator="arithmetic" k2="-1" k3="1"/>
<feColorMatrix type="matrix" values="0 0 0 0 0 0 0 0 0 0 0 0 0 0 0 0 0 0 0.25 0"/>
<feBlend mode="normal" in2="shape" result="effect1_innerShadow_18_1592"/>
</filter>
<filter id="filter2_d_18_1592" x="69.2656" y="87.2087" width="9.42412" height="12.9955" filterUnits="userSpaceOnUse" color-interpolation-filters="sRGB">
<feFlood flood-opacity="0" result="BackgroundImageFix"/>
<feColorMatrix in="SourceAlpha" type="matrix" values="0 0 0 0 0 0 0 0 0 0 0 0 0 0 0 0 0 0 127 0" result="hardAlpha"/>
<feOffset dy="0.88"/>
<feGaussianBlur stdDeviation="0.16"/>
<feComposite in2="hardAlpha" operator="out"/>
<feColorMatrix type="matrix" values="0 0 0 0 0 0 0 0 0 0 0 0 0 0 0 0 0 0 0.25 0"/>
<feBlend mode="normal" in2="BackgroundImageFix" result="effect1_dropShadow_18_1592"/>
<feBlend mode="normal" in="SourceGraphic" in2="effect1_dropShadow_18_1592" result="shape"/>
</filter>
</defs>
</svg>
