<svg width="146" height="147" viewBox="0 0 146 147" fill="none" xmlns="http://www.w3.org/2000/svg">
<g filter="url(#filter0_i_18_1615)">
<path d="M109.381 3.17983e-06L73.0078 21L36.6347 9.5395e-06L0.261647 21L0.26165 63L36.6347 84L36.6347 126L73.0078 147L109.381 126L109.381 84L145.754 63L145.754 21L109.381 3.17983e-06Z" fill="#5E5538"/>
</g>
<g filter="url(#filter1_i_18_1615)">
<mask id="path-2-inside-1_18_1615" fill="white">
<path d="M109.866 126L109.866 84L73.4931 63L37.1201 84L37.1201 126L73.4931 147L109.866 126Z"/>
</mask>
<path d="M109.866 126L109.866 84L73.4931 63L37.1201 84L37.1201 126L73.4931 147L109.866 126Z" stroke="black" stroke-opacity="0.5" stroke-width="14" mask="url(#path-2-inside-1_18_1615)"/>
</g>
<mask id="path-3-outside-2_18_1615" maskUnits="userSpaceOnUse" x="62.7539" y="70.52" width="22" height="45" fill="black">
<rect fill="white" x="62.7539" y="70.52" width="22" height="45"/>
<path fill-rule="evenodd" clip-rule="evenodd" d="M71.1817 106.51C60.6601 97.7474 61.4131 89.3051 72.8264 73.52C72.9536 76.8591 74.4937 78.7403 76.8531 81.6222C77.4602 82.3637 78.1215 83.1715 78.8269 84.0873C85.1121 93.6941 85.2795 99.2993 75.3202 108.438C75.3081 108.454 75.2957 108.469 75.2829 108.485C75.2698 108.491 75.2532 108.502 75.2333 108.518C75.1866 108.56 75.1397 108.603 75.0926 108.646C74.8482 108.888 74.4253 109.373 73.9255 109.945C73.1868 110.791 72.28 111.83 71.5332 112.564C67.6918 114.574 66.642 114.807 68.004 112.564C69.7578 110.167 70.6814 108.568 71.1817 106.51Z"/>
</mask>
<path fill-rule="evenodd" clip-rule="evenodd" d="M71.1817 106.51C60.6601 97.7474 61.4131 89.3051 72.8264 73.52C72.9536 76.8591 74.4937 78.7403 76.8531 81.6222C77.4602 82.3637 78.1215 83.1715 78.8269 84.0873C85.1121 93.6941 85.2795 99.2993 75.3202 108.438C75.3081 108.454 75.2957 108.469 75.2829 108.485C75.2698 108.491 75.2532 108.502 75.2333 108.518C75.1866 108.56 75.1397 108.603 75.0926 108.646C74.8482 108.888 74.4253 109.373 73.9255 109.945C73.1868 110.791 72.28 111.83 71.5332 112.564C67.6918 114.574 66.642 114.807 68.004 112.564C69.7578 110.167 70.6814 108.568 71.1817 106.51Z" fill="#3FA938"/>
<path d="M72.8264 73.52L73.7857 73.4834L73.6797 70.7014L72.0484 72.9575L72.8264 73.52ZM71.1817 106.51L72.1146 106.737L72.256 106.155L71.7961 105.772L71.1817 106.51ZM76.8531 81.6222L77.5959 81.0141L77.5959 81.0141L76.8531 81.6222ZM78.8269 84.0873L79.6302 83.5617L79.61 83.5308L79.5874 83.5015L78.8269 84.0873ZM75.3202 108.438L74.6711 107.731L74.6094 107.787L74.5584 107.854L75.3202 108.438ZM75.2829 108.485L75.6882 109.355L75.8866 109.263L76.0253 109.094L75.2829 108.485ZM75.2333 108.518L74.6436 107.76L74.6136 107.783L74.5855 107.809L75.2333 108.518ZM75.0926 108.646L74.4469 107.935L74.4314 107.95L74.4166 107.964L75.0926 108.646ZM73.9255 109.945L73.2023 109.314L73.2023 109.314L73.9255 109.945ZM71.5332 112.564L71.9782 113.415L72.1046 113.349L72.2062 113.249L71.5332 112.564ZM68.004 112.564L67.2292 111.997L67.2049 112.031L67.1834 112.066L68.004 112.564ZM72.0484 72.9575C66.3318 80.8638 63.137 87.1162 62.8201 92.593C62.4962 98.1902 65.1771 102.759 70.5674 107.248L71.7961 105.772C66.6647 101.499 64.4613 97.4648 64.7369 92.7039C65.0193 87.8225 67.9077 81.9612 73.6043 74.0825L72.0484 72.9575ZM77.5959 81.0141C75.2167 78.108 73.8991 76.4595 73.7857 73.4834L71.8671 73.5565C72.0081 77.2587 73.7707 79.3726 76.1103 82.2304L77.5959 81.0141ZM79.5874 83.5015C78.8722 82.5729 78.2024 81.7548 77.5959 81.0141L76.1103 82.2304C76.718 82.9726 77.3708 83.77 78.0663 84.6731L79.5874 83.5015ZM75.9692 109.145C80.9917 104.537 83.6619 100.648 84.1193 96.5445C84.5764 92.4445 82.7921 88.3946 79.6302 83.5617L78.0235 84.6129C81.1469 89.3868 82.5889 92.9428 82.2112 96.3318C81.8337 99.7175 79.608 103.201 74.6711 107.731L75.9692 109.145ZM74.5584 107.854C74.5528 107.861 74.5468 107.869 74.5404 107.876L76.0253 109.094C76.0446 109.07 76.0635 109.046 76.0819 109.022L74.5584 107.854ZM74.8776 107.615C74.7662 107.667 74.6823 107.73 74.6436 107.76L75.823 109.275C75.8184 109.279 75.8063 109.288 75.7879 109.3C75.7713 109.311 75.7368 109.333 75.6882 109.355L74.8776 107.615ZM75.7383 109.356C75.7861 109.313 75.8337 109.269 75.8811 109.226L74.5855 107.809C74.5395 107.851 74.4933 107.893 74.4469 107.935L75.7383 109.356ZM74.4166 107.964C74.1408 108.238 73.688 108.757 73.2023 109.314L74.6487 110.577C75.1626 109.988 75.5555 109.539 75.7687 109.327L74.4166 107.964ZM73.2023 109.314C72.4558 110.169 71.5754 111.177 70.8602 111.88L72.2062 113.249C72.9847 112.484 73.9177 111.414 74.6487 110.577L73.2023 109.314ZM71.0882 111.714C70.1323 112.214 69.3708 112.592 68.7857 112.847C68.1585 113.121 67.8583 113.195 67.7685 113.2C67.7215 113.202 67.9532 113.173 68.1769 113.39C68.4268 113.632 68.394 113.906 68.3931 113.913C68.3915 113.926 68.4002 113.863 68.479 113.692C68.5521 113.533 68.6646 113.326 68.8245 113.062L67.1834 112.066C67.0029 112.363 66.8502 112.639 66.7351 112.889C66.6256 113.127 66.5229 113.398 66.4882 113.673C66.4543 113.942 66.4667 114.407 66.8416 114.769C67.1904 115.107 67.627 115.13 67.8662 115.118C68.3488 115.093 68.9461 114.872 69.5537 114.607C70.2032 114.324 71.0135 113.919 71.9782 113.415L71.0882 111.714ZM68.7787 113.131C70.5571 110.701 71.5693 108.979 72.1146 106.737L70.2489 106.283C69.7934 108.156 68.9585 109.634 67.2292 111.997L68.7787 113.131Z" fill="black" mask="url(#path-3-outside-2_18_1615)"/>
<g filter="url(#filter2_d_18_1615)">
<path d="M69.2484 99.0041V96.9814L73.4927 93.2655C73.8109 92.9776 74.0818 92.7144 74.3052 92.4757C74.5287 92.2333 74.6992 91.9909 74.8166 91.7485C74.934 91.5022 74.9927 91.2352 74.9927 90.9473C74.9927 90.6253 74.9227 90.3507 74.7825 90.1235C74.6424 89.8924 74.4492 89.7144 74.203 89.5894C73.9568 89.4644 73.6746 89.4019 73.3564 89.4019C73.0344 89.4019 72.7522 89.4682 72.5098 89.6007C72.2674 89.7295 72.078 89.917 71.9416 90.1632C71.809 90.4094 71.7427 90.7087 71.7427 91.061H69.078C69.078 90.2693 69.256 89.5856 69.6121 89.0098C69.9681 88.4341 70.4681 87.9909 71.1121 87.6803C71.7598 87.3659 72.5117 87.2087 73.3677 87.2087C74.2503 87.2087 75.0174 87.3564 75.6689 87.6519C76.3204 87.9473 76.8242 88.3602 77.1802 88.8905C77.5401 89.417 77.72 90.0288 77.72 90.7257C77.72 91.1689 77.631 91.6083 77.453 92.0439C77.2749 92.4795 76.9549 92.9606 76.4927 93.4871C76.0344 94.0136 75.3829 94.6443 74.5382 95.3791L73.1461 96.6632V96.7371H77.8621V99.0041H69.2484Z" fill="#F7F3F4"/>
</g>
<mask id="path-6-outside-3_18_1615" maskUnits="userSpaceOnUse" x="36.7539" y="31.56" width="73" height="31" fill="black">
<rect fill="white" x="36.7539" y="31.56" width="73" height="31"/>
<path d="M98.1481 32.56L108.554 38.8918L93.9444 44.6729L83.1939 37.24L98.1481 32.56Z"/>
<path d="M93.9444 44.6729L108.554 38.8918L108.554 54.3082L93.9443 60.64L83.1939 52.1059L83.1939 37.24L93.9444 44.6729Z"/>
<path d="M52.7081 32.56L63.1139 38.8918L48.5044 44.6729L37.7539 37.24L52.7081 32.56Z"/>
<path d="M48.5044 44.6729L63.1139 38.8918L63.1139 54.3082L48.5043 60.64L37.7539 52.1059L37.7539 37.24L48.5044 44.6729Z"/>
</mask>
<path d="M98.1481 32.56L108.554 38.8918L93.9444 44.6729L83.1939 37.24L98.1481 32.56Z" fill="#A8A7A5"/>
<path d="M93.9444 44.6729L108.554 38.8918L108.554 54.3082L93.9443 60.64L83.1939 52.1059L83.1939 37.24L93.9444 44.6729Z" fill="#828181"/>
<path d="M52.7081 32.56L63.1139 38.8918L48.5044 44.6729L37.7539 37.24L52.7081 32.56Z" fill="#B9511E"/>
<path d="M48.5044 44.6729L63.1139 38.8918L63.1139 54.3082L48.5043 60.64L37.7539 52.1059L37.7539 37.24L48.5044 44.6729Z" fill="#8B3100"/>
<path d="M93.9444 44.6729L93.6941 45.0348L93.8876 45.1686L94.1062 45.0821L93.9444 44.6729ZM48.5044 44.6729L48.2541 45.0348L48.4476 45.1686L48.6662 45.0821L48.5044 44.6729ZM108.392 38.4826L93.7825 44.2638L94.1062 45.0821L108.716 39.3009L108.392 38.4826ZM94.1946 44.311L83.4442 36.8781L82.9437 37.6019L93.6941 45.0348L94.1946 44.311ZM62.952 38.4826L48.3425 44.2638L48.6662 45.0821L63.2758 39.3009L62.952 38.4826ZM48.7546 44.311L38.0042 36.8781L37.5037 37.6019L48.2541 45.0348L48.7546 44.311ZM98.1481 32.56L98.6055 31.8082L98.2653 31.6012L97.8853 31.7202L98.1481 32.56ZM108.554 38.8918L109.434 38.8918V38.3971L109.011 38.14L108.554 38.8918ZM83.1939 37.24L82.9311 36.4002L82.3139 36.5933V37.24L83.1939 37.24ZM108.554 54.3082L108.904 55.1157L109.434 54.8859V54.3082L108.554 54.3082ZM93.9443 60.64L93.3972 61.3292L93.8103 61.6572L94.2943 61.4474L93.9443 60.64ZM83.1939 52.1059H82.3139V52.5309L82.6468 52.7951L83.1939 52.1059ZM52.7081 32.56L53.1655 31.8082L52.8253 31.6012L52.4453 31.7202L52.7081 32.56ZM63.1139 38.8918L63.9939 38.8918V38.3971L63.5713 38.14L63.1139 38.8918ZM37.7539 37.24L37.4911 36.4002L36.8739 36.5933L36.8739 37.24L37.7539 37.24ZM63.1139 54.3082L63.4638 55.1157L63.9939 54.8859V54.3082L63.1139 54.3082ZM48.5043 60.64L47.9572 61.3292L48.3703 61.6572L48.8543 61.4474L48.5043 60.64ZM37.7539 52.1059H36.8739L36.8739 52.5309L37.2068 52.7951L37.7539 52.1059ZM97.6907 33.3118L108.096 39.6435L109.011 38.14L98.6055 31.8082L97.6907 33.3118ZM83.4567 38.0798L98.4109 33.3998L97.8853 31.7202L82.9311 36.4002L83.4567 38.0798ZM107.674 38.8918L107.674 54.3082L109.434 54.3082L109.434 38.8918L107.674 38.8918ZM108.204 53.5008L93.5944 59.8326L94.2943 61.4474L108.904 55.1157L108.204 53.5008ZM94.4915 59.9508L83.741 51.4167L82.6468 52.7951L93.3972 61.3292L94.4915 59.9508ZM84.0739 52.1059L84.0739 37.24L82.3139 37.24L82.3139 52.1059L84.0739 52.1059ZM52.2507 33.3118L62.6565 39.6435L63.5713 38.14L53.1655 31.8082L52.2507 33.3118ZM38.0168 38.0798L52.9709 33.3998L52.4453 31.7202L37.4911 36.4002L38.0168 38.0798ZM62.2339 38.8918L62.2339 54.3082L63.9939 54.3082L63.9939 38.8918L62.2339 38.8918ZM62.764 53.5008L48.1544 59.8326L48.8543 61.4474L63.4638 55.1157L62.764 53.5008ZM49.0515 59.9508L38.301 51.4167L37.2068 52.7951L47.9572 61.3292L49.0515 59.9508ZM38.6339 52.1059L38.6339 37.24L36.8739 37.24L36.8739 52.1059L38.6339 52.1059Z" fill="black" mask="url(#path-6-outside-3_18_1615)"/>
<path d="M70.8739 51.44L74.3939 41.84" stroke="black" stroke-width="2" stroke-linecap="square"/>
<defs>
<filter id="filter0_i_18_1615" x="0.261658" y="-6" width="145.492" height="153" filterUnits="userSpaceOnUse" color-interpolation-filters="sRGB">
<feFlood flood-opacity="0" result="BackgroundImageFix"/>
<feBlend mode="normal" in="SourceGraphic" in2="BackgroundImageFix" result="shape"/>
<feColorMatrix in="SourceAlpha" type="matrix" values="0 0 0 0 0 0 0 0 0 0 0 0 0 0 0 0 0 0 127 0" result="hardAlpha"/>
<feOffset dy="-6"/>
<feGaussianBlur stdDeviation="4.9"/>
<feComposite in2="hardAlpha" operator="arithmetic" k2="-1" k3="1"/>
<feColorMatrix type="matrix" values="0 0 0 0 0 0 0 0 0 0 0 0 0 0 0 0 0 0 0.5 0"/>
<feBlend mode="normal" in2="shape" result="effect1_innerShadow_18_1615"/>
</filter>
<filter id="filter1_i_18_1615" x="37.1201" y="62" width="72.7462" height="85" filterUnits="userSpaceOnUse" color-interpolation-filters="sRGB">
<feFlood flood-opacity="0" result="BackgroundImageFix"/>
<feBlend mode="normal" in="SourceGraphic" in2="BackgroundImageFix" result="shape"/>
<feColorMatrix in="SourceAlpha" type="matrix" values="0 0 0 0 0 0 0 0 0 0 0 0 0 0 0 0 0 0 127 0" result="hardAlpha"/>
<feOffset dy="-1"/>
<feGaussianBlur stdDeviation="1.5"/>
<feComposite in2="hardAlpha" operator="arithmetic" k2="-1" k3="1"/>
<feColorMatrix type="matrix" values="0 0 0 0 0 0 0 0 0 0 0 0 0 0 0 0 0 0 0.25 0"/>
<feBlend mode="normal" in2="shape" result="effect1_innerShadow_18_1615"/>
</filter>
<filter id="filter2_d_18_1615" x="68.7579" y="87.2087" width="9.42412" height="12.9955" filterUnits="userSpaceOnUse" color-interpolation-filters="sRGB">
<feFlood flood-opacity="0" result="BackgroundImageFix"/>
<feColorMatrix in="SourceAlpha" type="matrix" values="0 0 0 0 0 0 0 0 0 0 0 0 0 0 0 0 0 0 127 0" result="hardAlpha"/>
<feOffset dy="0.88"/>
<feGaussianBlur stdDeviation="0.16"/>
<feComposite in2="hardAlpha" operator="out"/>
<feColorMatrix type="matrix" values="0 0 0 0 0 0 0 0 0 0 0 0 0 0 0 0 0 0 0.25 0"/>
<feBlend mode="normal" in2="BackgroundImageFix" result="effect1_dropShadow_18_1615"/>
<feBlend mode="normal" in="SourceGraphic" in2="effect1_dropShadow_18_1615" result="shape"/>
</filter>
</defs>
</svg>
