<svg width="461" height="37" viewBox="0 0 461 37" fill="none" xmlns="http://www.w3.org/2000/svg">
<path d="M0.899902 18.7825H460.9" stroke="black" stroke-width="3"/>
<path d="M264.449 0.782471L251.247 8.8259L269.782 16.1699L283.421 6.72761L264.449 0.782471Z" fill="#A8A7A5"/>
<path d="M269.782 16.17L251.247 8.82595V28.41L269.782 36.4534L283.421 25.6122V6.72766L269.782 16.17Z" fill="#828181"/>
<path d="M228.275 0.782471L215.073 8.8259L233.608 16.1699L247.247 6.72761L228.275 0.782471Z" fill="#B9511E"/>
<path d="M233.608 16.17L215.073 8.82595V28.41L233.608 36.4534L247.247 25.6122V6.72766L233.608 16.17Z" fill="#8B3100"/>
<path d="M192.102 0.782471L178.9 8.8259L197.435 16.1699L211.074 6.72761L192.102 0.782471Z" fill="#B9511E"/>
<path d="M197.435 16.17L178.9 8.82595V28.41L197.435 36.4534L211.074 25.6122V6.72766L197.435 16.17Z" fill="#8B3100"/>
</svg>
