<svg width="200" height="150" viewBox="0 0 200 150" fill="none" xmlns="http://www.w3.org/2000/svg">
<rect width="200" height="150" rx="25" fill="#8F901F"/>
<path d="M111 72H125.812V119H154.614V72H169.426L139.802 31L111 72Z" fill="white"/>
<path d="M28.8174 35.6991L22.6672 41.8493C21.4956 43.0208 21.4956 44.9203 22.6672 46.0919L23.7279 47.1526C24.8995 48.3241 26.7989 48.3241 27.9705 47.1526L34.1207 41.0024C34.6024 40.5207 35.2337 40.2173 35.9107 40.1421L41.558 39.5146C43.1427 39.3385 44.2952 37.927 44.1509 36.3391C44.0024 34.7057 42.5414 33.5128 40.9113 33.6939L30.6074 34.8388C29.9304 34.914 29.2991 35.2174 28.8174 35.6991Z" fill="black"/>
<path d="M20.0156 44.5009L25.3189 39.1976L93.2012 107.08C93.787 107.666 93.787 108.615 93.2012 109.201L90.0192 112.383C89.4334 112.969 88.4837 112.969 87.8979 112.383L20.0156 44.5009Z" fill="black"/>
<path d="M17.8942 48.7435L20.0155 44.5009L25.3188 49.8042L21.0761 51.9255L17.8942 48.7435Z" fill="black"/>
<rect x="12.5908" y="54.0468" width="7.5" height="4.5" transform="rotate(-45 12.5908 54.0468)" fill="black"/>
<path d="M16.8338 49.8042L13.6519 50.8649L18.9552 56.1682L20.0158 52.9862L16.8338 49.8042Z" fill="black"/>
<path d="M11 53.5165L13.6517 50.8648L18.955 56.1681L16.3033 58.8198L11 53.5165Z" fill="black"/>
</svg>
