<svg width="65" height="54" viewBox="0 0 65 54" fill="none" xmlns="http://www.w3.org/2000/svg">
<g filter="url(#filter0_f_172_131)">
<path d="M25.9359 4.44031H26.0655H27.6889C28.4367 4.44031 29.1743 4.61726 29.8432 4.95714L30.0668 5.07079C30.5212 5.3017 30.936 5.60555 31.2953 5.97064C32.1817 6.87152 32.6797 8.09338 32.6797 9.36742V12.042C32.6797 13.3838 33.4256 14.6104 34.6065 15.2105L36.2271 16.034C36.431 16.1376 36.6418 16.2264 36.8581 16.2996L39.4235 17.1687L42.925 18.6374L45.3079 19.7168C45.8755 19.9739 46.4151 20.3208 46.773 20.8371C47.4399 21.7992 47.397 22.5776 46.7974 23.5943C46.4247 24.2262 45.8307 24.6831 45.1823 25.0126L43.5833 25.8251C43.3795 25.9287 43.1686 26.0175 42.9524 26.0907L41.3254 26.6419C40.7082 26.851 40.1475 27.2032 39.6875 27.6707C38.9016 28.4693 38.4601 29.5526 38.4601 30.682V31.0448C38.4601 31.8968 38.6789 32.734 39.0948 33.4737L40.3869 35.7718L44.2406 41.6464L45.0509 43.2935C45.1528 43.5007 45.2401 43.7149 45.3122 43.9347L46.0398 46.1529C46.1243 46.4106 46.1674 46.6805 46.1674 46.9521C46.1674 48.3478 45.054 49.4793 43.6807 49.4793H36.2211C34.6105 49.4793 33.1065 48.6612 32.2131 47.2993L31.9809 46.9453C31.8049 46.6771 31.6033 46.4272 31.379 46.1992L29.2251 44.0102C28.3681 43.1392 27.211 42.6431 26.0007 42.626C24.7904 42.6431 23.6333 43.1392 22.7762 44.0102L20.6224 46.1992C20.3981 46.4272 20.1965 46.6771 20.0205 46.9453L19.7883 47.2993C18.8949 48.6612 17.3909 49.4793 15.7803 49.4793H8.32069C6.94733 49.4793 5.83401 48.3478 5.83401 46.9521C5.83401 46.6805 5.8771 46.4106 5.96161 46.1529L6.68916 43.9347C6.76124 43.7149 6.84857 43.5007 6.95051 43.2935L7.76082 41.6464L11.6144 35.7718L12.9066 33.4737C13.3225 32.734 13.5412 31.8968 13.5412 31.0448V30.682C13.5412 29.5526 13.0998 28.4693 12.3139 27.6707C11.8539 27.2032 11.2931 26.851 10.676 26.6419L9.04899 26.0907C8.83275 26.0175 8.6219 25.9287 8.41803 25.8251L6.81906 25.0126C6.17072 24.6831 5.57665 24.2262 5.20399 23.5943C4.60434 22.5776 4.56148 21.7992 5.22842 20.8371C5.5863 20.3208 6.12585 19.9739 6.69344 19.7168L9.07641 18.6374L12.5778 17.1687L15.1433 16.2996C15.3595 16.2264 15.5704 16.1376 15.7743 16.034L17.3949 15.2105C18.5757 14.6104 19.3217 13.3838 19.3217 12.042V9.36742C19.3217 8.09338 19.8197 6.87152 20.7061 5.97064C21.0653 5.60555 21.4801 5.3017 21.9346 5.07079L22.1582 4.95714C22.8271 4.61726 23.5646 4.44031 24.3124 4.44031H25.9359Z" fill="black" fill-opacity="0.5"/>
</g>
<path d="M42.9822 3.87949H43.1119H44.7353C45.4831 3.87949 46.2207 4.05644 46.8896 4.39632L47.1132 4.50997C47.5676 4.74088 47.9824 5.04472 48.3417 5.40982C49.2281 6.3107 49.7261 7.53256 49.7261 8.8066V11.4812C49.7261 12.823 50.472 14.0496 51.6529 14.6497L53.2735 15.4732C53.4774 15.5768 53.6882 15.6656 53.9045 15.7388L56.4699 16.6079L59.9713 18.0766L62.3543 19.1559C62.9219 19.413 63.4615 19.7599 63.8193 20.2762C64.4863 21.2384 64.4434 22.0168 63.8438 23.0335C63.4711 23.6654 62.877 24.1223 62.2287 24.4518L60.6297 25.2643C60.4259 25.3679 60.215 25.4566 59.9988 25.5299L58.3718 26.0811C57.7546 26.2901 57.1938 26.6424 56.7338 27.1099C55.948 27.9085 55.5065 28.9917 55.5065 30.1212V30.484C55.5065 31.336 55.7253 32.1732 56.1412 32.9129L57.4333 35.211L61.2869 41.0856L62.0972 42.7326C62.1992 42.9398 62.2865 43.1541 62.3586 43.3739L63.0861 45.5921C63.1707 45.8498 63.2138 46.1196 63.2138 46.3913C63.2138 47.787 62.1004 48.9185 60.7271 48.9185H53.2675C51.6569 48.9185 50.1529 48.1004 49.2595 46.7385L49.0273 46.3845C48.8513 46.1163 48.6497 45.8663 48.4254 45.6384L46.2715 43.4494C45.4144 42.5783 44.2573 42.0823 43.0471 42.0652C41.8368 42.0823 40.6797 42.5783 39.8226 43.4494L37.6687 45.6384C37.4444 45.8663 37.2428 46.1163 37.0669 46.3845L36.8347 46.7385C35.9413 48.1004 34.4373 48.9185 32.8267 48.9185H25.3671C23.9937 48.9185 22.8804 47.787 22.8804 46.3913C22.8804 46.1196 22.9235 45.8498 23.008 45.5921L23.7355 43.3739C23.8076 43.1541 23.895 42.9398 23.9969 42.7326L24.8072 41.0856L28.6608 35.211L29.953 32.9129C30.3689 32.1732 30.5876 31.336 30.5876 30.484V30.1212C30.5876 28.9917 30.1462 27.9085 29.3603 27.1099C28.9003 26.6424 28.3395 26.2901 27.7224 26.0811L26.0954 25.5299C25.8791 25.4566 25.6683 25.3679 25.4644 25.2643L23.8654 24.4518C23.2171 24.1223 22.623 23.6654 22.2504 23.0335C21.6507 22.0168 21.6079 21.2384 22.2748 20.2762C22.6327 19.7599 23.1722 19.413 23.7398 19.1559L26.1228 18.0766L29.6242 16.6079L32.1897 15.7388C32.4059 15.6656 32.6168 15.5768 32.8206 15.4732L34.4413 14.6497C35.6221 14.0496 36.3681 12.823 36.3681 11.4812V8.8066C36.3681 7.53256 36.8661 6.3107 37.7525 5.40982C38.1117 5.04472 38.5265 4.74088 38.9809 4.50997L39.2046 4.39632C39.8735 4.05644 40.611 3.87949 41.3588 3.87949H42.9822Z" fill="black"/>
<path fill-rule="evenodd" clip-rule="evenodd" d="M38.9884 3.96002C39.7243 3.5861 40.5357 3.39139 41.3586 3.39139H44.7351C45.5579 3.39139 46.3694 3.5861 47.1053 3.96002L47.3289 4.07367C47.8297 4.32813 48.2868 4.66295 48.6826 5.0652C49.6592 6.05772 50.2075 7.40355 50.2075 8.80654V11.4812C50.2075 12.6389 50.8511 13.6964 51.8686 14.2134L53.4892 15.0369C53.6727 15.1301 53.8624 15.21 54.057 15.2759L56.6384 16.1504L60.1678 17.6308L62.5507 18.7103C63.1543 18.9838 63.7839 19.3762 64.2133 19.9957C64.5855 20.5327 64.791 21.0651 64.788 21.6369C64.785 22.2008 64.5794 22.7372 64.257 23.2838C63.8213 24.0226 63.1415 24.5338 62.4444 24.888L60.8455 25.7005C60.6212 25.8144 60.3892 25.9121 60.1513 25.9927L58.5243 26.5439C57.9782 26.7288 57.4819 27.0405 57.0747 27.4544C56.3791 28.1614 55.988 29.1206 55.988 30.1211V30.4839C55.988 31.2513 56.185 32.0052 56.5595 32.6712L57.8434 34.9548L61.7045 40.8407L62.5281 42.5149C62.6402 42.7427 62.7362 42.9783 62.8155 43.2199L63.543 45.4381C63.6438 45.7455 63.6952 46.0673 63.6952 46.3912C63.6952 48.0551 62.3676 49.4065 60.7268 49.4065H53.2672C51.4949 49.4065 49.8405 48.5063 48.8581 47.0086L48.6258 46.6546C48.4674 46.4131 48.2859 46.1881 48.084 45.9829L45.9301 43.7939C45.1633 43.0146 44.1289 42.5703 43.0468 42.5532C41.9648 42.5703 40.9304 43.0146 40.1635 43.7939L38.0097 45.9829C37.8077 46.1881 37.6263 46.4131 37.4678 46.6546L37.2356 47.0086C36.2532 48.5063 34.5987 49.4065 32.8264 49.4065H25.3668C23.726 49.4065 22.3985 48.0551 22.3985 46.3912C22.3985 46.0673 22.4498 45.7455 22.5506 45.4381L23.2782 43.2199C23.3574 42.9783 23.4535 42.7427 23.5656 42.5149L24.3892 40.8407L28.2502 34.9548L29.5342 32.6712C29.9087 32.0052 30.1057 31.2513 30.1057 30.4839V30.1211C30.1057 29.1206 29.7146 28.1614 29.0189 27.4544C28.6117 27.0405 28.1154 26.7288 27.5694 26.5439L25.9424 25.9927C25.7045 25.9121 25.4725 25.8144 25.2482 25.7005L23.6493 24.888C22.9522 24.5338 22.2723 24.0226 21.8366 23.2838C21.5143 22.7372 21.3086 22.2008 21.3057 21.6369C21.3027 21.0651 21.5081 20.5327 21.8804 19.9957C22.3098 19.3762 22.9394 18.9838 23.543 18.7103L25.9382 17.6254L29.4553 16.1504L32.0367 15.2759C32.2313 15.21 32.421 15.1301 32.6045 15.0369L34.2251 14.2134C35.2425 13.6964 35.8861 12.6389 35.8861 11.4812V8.80654C35.8861 7.40355 36.4345 6.05772 37.4111 5.0652C37.8069 4.66295 38.264 4.32813 38.7648 4.07367L38.9884 3.96002ZM43.0468 41.577C43.0253 41.5768 43.0036 41.5766 42.982 41.5766V41.5783C41.6671 41.612 40.4133 42.1576 39.4813 43.1048L37.3274 45.2938C37.0807 45.5445 36.859 45.8193 36.6655 46.1143L36.4333 46.4683C35.6289 47.6945 34.2753 48.4304 32.8264 48.4304H25.3668C24.2609 48.4304 23.3619 47.5188 23.3619 46.3912C23.3619 46.1719 23.3967 45.954 23.4649 45.7459L24.1924 43.5277C24.2573 43.3298 24.336 43.1369 24.4278 42.9503L25.2247 41.3304L29.0709 35.4671L30.3713 33.1544C30.8286 32.341 31.0691 31.4205 31.0691 30.4839V30.1211C31.0691 28.8627 30.5772 27.6555 29.7012 26.7652C29.1884 26.2441 28.5632 25.8513 27.8749 25.6182L26.2479 25.067C26.0533 25.0011 25.8636 24.9212 25.6801 24.828L24.0812 24.0155C23.4815 23.7108 22.9733 23.3081 22.6637 22.7831C22.3864 22.3129 22.2708 21.9518 22.2691 21.6318C22.2675 21.3197 22.3741 20.9818 22.6688 20.5567C22.9551 20.1436 23.4047 19.8422 23.9362 19.6014L26.313 18.5248L29.7927 17.0653L32.3422 16.2016C32.5801 16.121 32.8121 16.0234 33.0364 15.9094L34.657 15.0859C36.0013 14.4028 36.8495 13.007 36.8495 11.4812V8.80654C36.8495 7.66146 37.2971 6.56357 38.0934 5.75433C38.4161 5.42638 38.7886 5.15351 39.1967 4.94616L39.4203 4.83252C40.0222 4.52667 40.6858 4.36747 41.3586 4.36747H44.7351C45.4079 4.36747 46.0715 4.52667 46.6734 4.83252L46.897 4.94616C47.3051 5.15351 47.6776 5.42638 48.0003 5.75433C48.7965 6.56357 49.2441 7.66146 49.2441 8.80654V11.4812C49.2441 13.007 50.0924 14.4028 51.4367 15.0859L53.0573 15.9094C53.2816 16.0234 53.5136 16.121 53.7515 16.2016L56.301 17.0653L59.7807 18.5248L62.1575 19.6014C62.689 19.8422 63.1386 20.1436 63.4249 20.5567C63.7196 20.9818 63.8262 21.3197 63.8246 21.6318C63.8229 21.9518 63.7073 22.3129 63.43 22.7831C63.1204 23.3081 62.6121 23.7108 62.0125 24.0155L60.4135 24.828C60.2301 24.9212 60.0404 25.0011 59.8458 25.067L58.2188 25.6182C57.5305 25.8513 56.9053 26.2441 56.3925 26.7652C55.5164 27.6555 55.0246 28.8627 55.0246 30.1211V30.4839C55.0246 31.4205 55.2651 32.341 55.7224 33.1544L57.0227 35.4671L60.8689 41.3304L61.6659 42.9503C61.7577 43.1369 61.8363 43.3298 61.9012 43.5277L62.6288 45.7459C62.697 45.954 62.7318 46.1719 62.7318 46.3912C62.7318 47.5188 61.8328 48.4304 60.7268 48.4304H53.2672C51.8184 48.4304 50.4648 47.6945 49.6604 46.4683L49.4282 46.1143C49.2347 45.8193 49.013 45.5445 48.7663 45.2938L46.6124 43.1048C45.6804 42.1576 44.4266 41.612 43.1117 41.5783V41.5766C43.09 41.5766 43.0684 41.5768 43.0468 41.577Z" fill="black"/>
<defs>
<filter id="filter0_f_172_131" x="0.741211" y="0.440308" width="50.519" height="53.039" filterUnits="userSpaceOnUse" color-interpolation-filters="sRGB">
<feFlood flood-opacity="0" result="BackgroundImageFix"/>
<feBlend mode="normal" in="SourceGraphic" in2="BackgroundImageFix" result="shape"/>
<feGaussianBlur stdDeviation="2" result="effect1_foregroundBlur_172_131"/>
</filter>
</defs>
</svg>
