<svg width="44" height="47" viewBox="0 0 44 47" fill="none" xmlns="http://www.w3.org/2000/svg">
<path d="M21.9822 0.879517H22.1119H23.7353C24.4831 0.879517 25.2207 1.05647 25.8896 1.39635L26.1132 1.51C26.5676 1.74091 26.9824 2.04475 27.3417 2.40985C28.2281 3.31073 28.7261 4.53259 28.7261 5.80663V8.48125C28.7261 9.82303 29.472 11.0496 30.6529 11.6497L32.2735 12.4732C32.4774 12.5768 32.6882 12.6656 32.9045 12.7388L35.4699 13.6079L38.9713 15.0766L41.3543 16.156C41.9219 16.4131 42.4615 16.76 42.8193 17.2763C43.4863 18.2384 43.4434 19.0168 42.8438 20.0335C42.4711 20.6654 41.877 21.1223 41.2287 21.4518L39.6297 22.2643C39.4259 22.3679 39.215 22.4567 38.9988 22.5299L37.3718 23.0811C36.7546 23.2902 36.1938 23.6424 35.7338 24.1099C34.948 24.9085 34.5065 25.9918 34.5065 27.1212V27.484C34.5065 28.336 34.7253 29.1732 35.1412 29.9129L36.4333 32.211L40.2869 38.0856L41.0972 39.7327C41.1992 39.9399 41.2865 40.1542 41.3586 40.3739L42.0861 42.5921C42.1707 42.8498 42.2138 43.1197 42.2138 43.3913C42.2138 44.787 41.1004 45.9185 39.7271 45.9185H32.2675C30.6569 45.9185 29.1529 45.1005 28.2595 43.7385L28.0273 43.3845C27.8513 43.1163 27.6497 42.8664 27.4254 42.6384L25.2715 40.4494C24.4144 39.5784 23.2573 39.0823 22.0471 39.0652C20.8368 39.0823 19.6797 39.5784 18.8226 40.4494L16.6687 42.6384C16.4444 42.8664 16.2428 43.1163 16.0669 43.3845L15.8347 43.7385C14.9413 45.1005 13.4373 45.9185 11.8267 45.9185H4.36708C2.99372 45.9185 1.88039 44.787 1.88039 43.3913C1.88039 43.1197 1.92348 42.8498 2.008 42.5921L2.73554 40.3739C2.80762 40.1542 2.89496 39.9399 2.9969 39.7327L3.8072 38.0856L7.66083 32.211L8.95296 29.9129C9.36887 29.1732 9.58764 28.336 9.58764 27.484V27.1212C9.58764 25.9918 9.14615 24.9085 8.3603 24.1099C7.90031 23.6424 7.33953 23.2902 6.72238 23.0811L5.09538 22.5299C4.87914 22.4567 4.66829 22.3679 4.46442 22.2643L2.86544 21.4518C2.21711 21.1223 1.62303 20.6654 1.25038 20.0335C0.65073 19.0168 0.60787 18.2384 1.27481 17.2763C1.63268 16.76 2.17223 16.4131 2.73982 16.156L5.1228 15.0766L8.62423 13.6079L11.1897 12.7388C11.4059 12.6656 11.6168 12.5768 11.8206 12.4732L13.4413 11.6497C14.6221 11.0496 15.3681 9.82303 15.3681 8.48125V5.80663C15.3681 4.53259 15.8661 3.31073 16.7525 2.40985C17.1117 2.04475 17.5265 1.74091 17.9809 1.51L18.2046 1.39635C18.8735 1.05647 19.611 0.879517 20.3588 0.879517H21.9822Z" fill="black"/>
<path fill-rule="evenodd" clip-rule="evenodd" d="M17.9884 0.959988C18.7243 0.586065 19.5357 0.391357 20.3586 0.391357H23.7351C24.5579 0.391357 25.3694 0.586065 26.1053 0.959988L26.3289 1.07364C26.8297 1.3281 27.2868 1.66292 27.6826 2.06517C28.6592 3.05769 29.2075 4.40352 29.2075 5.80651V8.48113C29.2075 9.63886 29.8512 10.6963 30.8686 11.2133L32.4892 12.0369C32.6727 12.1301 32.8624 12.21 33.057 12.2759L35.6384 13.1504L39.1678 14.6308L41.5507 15.7103C42.1543 15.9837 42.7839 16.3761 43.2133 16.9957C43.5855 17.5326 43.791 18.0651 43.788 18.6369C43.785 19.2008 43.5794 19.7372 43.257 20.2838C42.8213 21.0225 42.1415 21.5337 41.4444 21.8879L39.8455 22.7004C39.6212 22.8144 39.3892 22.9121 39.1513 22.9927L37.5243 23.5438C36.9782 23.7288 36.4819 24.0405 36.0747 24.4543C35.3791 25.1614 34.988 26.1206 34.988 27.1211V27.4839C34.988 28.2512 35.185 29.0052 35.5595 29.6712L36.8434 31.9547L40.7045 37.8407L41.5281 39.5148C41.6402 39.7427 41.7362 39.9783 41.8155 40.2199L42.543 42.4381C42.6438 42.7454 42.6952 43.0673 42.6952 43.3912C42.6952 45.055 41.3676 46.4064 39.7268 46.4064H32.2672C30.4949 46.4064 28.8405 45.5062 27.8581 44.0085L27.6258 43.6545C27.4674 43.413 27.2859 43.1881 27.084 42.9829L24.9301 40.7939C24.1633 40.0145 23.1289 39.5703 22.0468 39.5532C20.9648 39.5703 19.9304 40.0145 19.1635 40.7939L17.0097 42.9829C16.8077 43.1881 16.6263 43.413 16.4678 43.6545L16.2356 44.0085C15.2532 45.5062 13.5987 46.4064 11.8264 46.4064H4.36684C2.72605 46.4064 1.39846 45.055 1.39846 43.3912C1.39846 43.0673 1.44984 42.7454 1.55065 42.4381L2.27819 40.2199C2.35744 39.9783 2.45346 39.7427 2.56555 39.5148L3.38922 37.8407L7.25024 31.9547L8.53417 29.6712C8.90866 29.0052 9.1057 28.2512 9.1057 27.4839V27.1211C9.1057 26.1206 8.71461 25.1614 8.01893 24.4543C7.61173 24.0405 7.11544 23.7288 6.56939 23.5438L4.94239 22.9927C4.70448 22.9121 4.47251 22.8144 4.24823 22.7004L2.64926 21.8879C1.95221 21.5337 1.27234 21.0225 0.836639 20.2838C0.51428 19.7372 0.308635 19.2008 0.305696 18.6369C0.302715 18.0651 0.508149 17.5326 0.880374 16.9957C1.30982 16.3761 1.93935 15.9837 2.54299 15.7103L4.93824 14.6254L8.45529 13.1504L11.0367 12.2759C11.2313 12.21 11.421 12.1301 11.6045 12.0369L13.2251 11.2133C14.2425 10.6963 14.8861 9.63886 14.8861 8.48113V5.80651C14.8861 4.40352 15.4345 3.05769 16.4111 2.06517C16.8069 1.66292 17.264 1.3281 17.7648 1.07364L17.9884 0.959988ZM22.0468 38.577C22.0253 38.5767 22.0036 38.5766 21.982 38.5766V38.5783C20.6671 38.612 19.4133 39.1575 18.4813 40.1047L16.3274 42.2937C16.0807 42.5444 15.859 42.8193 15.6655 43.1143L15.4333 43.4683C14.6289 44.6944 13.2753 45.4303 11.8264 45.4303H4.36684C3.26093 45.4303 2.36186 44.5188 2.36186 43.3912C2.36186 43.1718 2.39666 42.9539 2.46489 42.7459L3.19244 40.5277C3.25735 40.3298 3.33599 40.1368 3.42778 39.9503L4.22473 38.3304L8.07095 32.467L9.37128 30.1544C9.82861 29.341 10.0691 28.4205 10.0691 27.4839V27.1211C10.0691 25.8627 9.57723 24.6555 8.70121 23.7652C8.18842 23.2441 7.56316 22.8513 6.8749 22.6181L5.2479 22.067C5.05333 22.001 4.8636 21.9212 4.68014 21.8279L3.08117 21.0154C2.48154 20.7107 1.97326 20.308 1.66365 19.7831C1.38636 19.3129 1.27076 18.9518 1.26909 18.6317C1.26746 18.3196 1.37407 17.9818 1.66878 17.5566C1.95509 17.1436 2.40465 16.8422 2.93619 16.6014L5.31304 15.5248L8.79271 14.0653L11.3422 13.2016C11.5801 13.121 11.8121 13.0233 12.0364 12.9094L13.657 12.0858C15.0013 11.4027 15.8495 10.007 15.8495 8.48113V5.80651C15.8495 4.66143 16.2971 3.56354 17.0934 2.7543C17.4161 2.42635 17.7886 2.15348 18.1967 1.94613L18.4203 1.83249C19.0222 1.52664 19.6858 1.36744 20.3586 1.36744H23.7351C24.4079 1.36744 25.0715 1.52664 25.6734 1.83249L25.897 1.94613C26.305 2.15348 26.6776 2.42635 27.0003 2.7543C27.7965 3.56354 28.2441 4.66143 28.2441 5.80651V8.48113C28.2441 10.007 29.0924 11.4027 30.4367 12.0858L32.0573 12.9094C32.2816 13.0233 32.5136 13.121 32.7515 13.2016L35.301 14.0653L38.7807 15.5248L41.1575 16.6014C41.689 16.8422 42.1386 17.1436 42.4249 17.5566C42.7196 17.9818 42.8262 18.3196 42.8246 18.6317C42.8229 18.9518 42.7073 19.3129 42.43 19.7831C42.1204 20.308 41.6121 20.7107 41.0125 21.0154L39.4135 21.8279C39.2301 21.9212 39.0404 22.001 38.8458 22.067L37.2188 22.6181C36.5305 22.8513 35.9053 23.2441 35.3925 23.7652C34.5164 24.6555 34.0246 25.8627 34.0246 27.1211V27.4839C34.0246 28.4205 34.2651 29.341 34.7224 30.1544L36.0227 32.467L39.8689 38.3304L40.6659 39.9503C40.7577 40.1368 40.8363 40.3298 40.9012 40.5277L41.6288 42.7459C41.697 42.9539 41.7318 43.1718 41.7318 43.3912C41.7318 44.5188 40.8328 45.4303 39.7268 45.4303H32.2672C30.8184 45.4303 29.4648 44.6944 28.6604 43.4683L28.4282 43.1143C28.2347 42.8193 28.013 42.5444 27.7663 42.2937L25.6124 40.1047C24.6804 39.1575 23.4266 38.612 22.1117 38.5783V38.5766C22.09 38.5766 22.0684 38.5767 22.0468 38.577Z" fill="black"/>
</svg>
