<svg width="111" height="231" viewBox="0 0 111 231" fill="none" xmlns="http://www.w3.org/2000/svg">
<path d="M24.9155 215.418L24.8522 215.505L24.7965 215.597C23.8912 217.09 23.1547 218.429 22.6145 219.604C22.0886 220.748 21.6792 221.882 21.5468 222.934C21.4163 223.969 21.5062 225.423 22.641 226.523C23.7091 227.559 25.1089 227.685 26.0987 227.635C28.0882 227.533 30.7918 226.58 33.9521 225.198C37.222 223.768 41.3415 221.711 46.3092 219.107L46.6382 218.934L46.9029 218.674C54.2581 211.429 59.0126 205.273 62.1452 198.487C65.2739 191.71 66.7005 184.485 67.6704 175.261L67.9608 172.5H65.1841H45.1486H42.9171L42.6646 174.717C41.7434 182.807 40.1952 188.977 37.4806 195.073C34.749 201.208 30.7923 207.37 24.9155 215.418Z" fill="black" stroke="#FAEAD3" stroke-width="5"/>
<path d="M54.3205 14.905L54.0446 7.64838L49.7951 13.537C17.4534 58.3534 1.19399 92.343 2.582 121.758C3.98202 151.428 23.249 175.626 59.4994 201.01L61.1218 202.146L62.5989 200.827C90.2787 176.101 104.64 155.971 107.485 135.229C110.335 114.46 101.54 93.7826 84.8836 68.2755L84.831 68.1949L84.7724 68.1187C81.107 63.3506 77.6665 59.1401 74.5325 55.3047C73.8401 54.4574 73.1627 53.6284 72.5012 52.8158C68.8283 48.304 65.6562 44.3109 63.0192 40.3886C57.8043 32.6321 54.7119 25.1996 54.3205 14.905Z" fill="black" stroke="#FAEAD3" stroke-width="5"/>
<path d="M26.9343 216.892C38.7481 200.715 43.2625 191.561 45.1485 175H65.1841C64.247 183.912 69 190.3 64.5 195.8C63 196.5 52.5513 209.601 45.1485 216.892C25.3234 227.284 19.9053 228.489 26.9343 216.892Z" fill="black"/>
<path d="M29.6912 136.168V102.744H38.9934V136.168H29.6912ZM17.6191 124.119V114.793H51.0424V124.119H17.6191ZM82.0017 95.7273V143H70.599V106.391H70.322L59.7503 112.854V102.975L71.4069 95.7273H82.0017Z" fill="#F7F3F4"/>
</svg>
