<svg width="115" height="149" viewBox="0 0 115 149" fill="none" xmlns="http://www.w3.org/2000/svg">
<path d="M57.5151 145C72.0973 145 85.5969 140.209 95.4295 129.671C105.245 119.151 111.015 103.326 111.015 82C111.015 60.6947 105.264 41.2481 95.7827 27.0255C86.3173 12.8275 72.8566 3.5 57.5151 3.5C42.1737 3.5 28.713 12.8275 19.2476 27.0255C9.76593 41.2481 4.01514 60.6947 4.01514 82C4.01514 103.326 9.78523 119.151 19.6008 129.671C29.4333 140.209 42.933 145 57.5151 145Z" fill="black" stroke="#FAEAD3" stroke-width="7"/>
<path d="M38.0501 90.7443V65.0341H45.2056V90.7443H38.0501ZM28.7638 81.4759V74.3026H54.4741V81.4759H28.7638ZM60.693 96V89.679L73.9565 78.0668C74.9508 77.1671 75.7972 76.3445 76.4955 75.5987C77.1939 74.8411 77.7266 74.0836 78.0936 73.326C78.4605 72.5566 78.644 71.7221 78.644 70.8224C78.644 69.8163 78.425 68.9581 77.987 68.2479C77.5491 67.5258 76.9454 66.9695 76.1759 66.5788C75.4065 66.1882 74.5247 65.9929 73.5303 65.9929C72.5242 65.9929 71.6423 66.2 70.8848 66.6143C70.1272 67.0168 69.5353 67.6027 69.1092 68.3722C68.6949 69.1416 68.4877 70.0767 68.4877 71.1776H60.1603C60.1603 68.7036 60.7167 66.567 61.8294 64.7678C62.942 62.9685 64.5045 61.5836 66.5169 60.6129C68.541 59.6304 70.8907 59.1392 73.5659 59.1392C76.3239 59.1392 78.7209 59.6009 80.7569 60.5241C82.7929 61.4474 84.3672 62.7377 85.4799 64.3949C86.6045 66.0402 87.1667 67.9519 87.1667 70.13C87.1667 71.5149 86.8885 72.888 86.3322 74.2493C85.7759 75.6106 84.7756 77.1139 83.3315 78.7592C81.8992 80.4046 79.8632 82.3755 77.2235 84.6719L72.8734 88.6847V88.9155H87.6106V96H60.693Z" fill="#F7F3F4"/>
</svg>
