<svg width="146" height="147" viewBox="0 0 146 147" fill="none" xmlns="http://www.w3.org/2000/svg">
<g filter="url(#filter0_i_21_4153)">
<path d="M36.8887 147L73.2617 126L109.635 147L146.008 126L146.008 84L109.635 63L109.635 21L73.2617 0L36.8887 21L36.8887 63L0.515625 84L0.515625 126L36.8887 147Z" fill="#5E5538"/>
</g>
<g filter="url(#filter1_i_21_4153)">
<mask id="path-2-inside-1_21_4153" fill="white">
<path d="M36.4033 21L36.4033 63L72.7764 84L109.149 63L109.149 21L72.7764 0L36.4033 21Z"/>
</mask>
<path d="M36.4033 21L36.4033 63L72.7764 84L109.149 63L109.149 21L72.7764 0L36.4033 21Z" stroke="black" stroke-opacity="0.5" stroke-width="14" mask="url(#path-2-inside-1_21_4153)"/>
</g>
<mask id="path-3-outside-2_21_4153" maskUnits="userSpaceOnUse" x="61.5156" y="31.48" width="22" height="45" fill="black">
<rect fill="white" x="61.5156" y="31.48" width="22" height="45"/>
<path fill-rule="evenodd" clip-rule="evenodd" d="M75.0878 40.4899C85.6095 49.2526 84.8564 57.6949 73.4431 73.48C73.3159 70.1409 71.7758 68.2597 69.4164 65.3778C68.8094 64.6363 68.1481 63.8285 67.4427 62.9127C61.1574 53.3059 60.99 47.7007 70.9493 38.562C70.9614 38.5463 70.9738 38.5306 70.9867 38.5149C70.9998 38.5088 71.0164 38.4979 71.0362 38.4824C71.0829 38.4397 71.1298 38.397 71.1769 38.3541C71.4214 38.1117 71.8442 37.6273 72.344 37.0548C73.0828 36.2086 73.9895 35.1699 74.7363 34.4358C78.5777 32.4263 79.6275 32.1931 78.2656 34.4358C76.5118 36.8328 75.5882 38.4325 75.0878 40.4899Z"/>
</mask>
<path fill-rule="evenodd" clip-rule="evenodd" d="M75.0878 40.4899C85.6095 49.2526 84.8564 57.6949 73.4431 73.48C73.3159 70.1409 71.7758 68.2597 69.4164 65.3778C68.8094 64.6363 68.1481 63.8285 67.4427 62.9127C61.1574 53.3059 60.99 47.7007 70.9493 38.562C70.9614 38.5463 70.9738 38.5306 70.9867 38.5149C70.9998 38.5088 71.0164 38.4979 71.0362 38.4824C71.0829 38.4397 71.1298 38.397 71.1769 38.3541C71.4214 38.1117 71.8442 37.6273 72.344 37.0548C73.0828 36.2086 73.9895 35.1699 74.7363 34.4358C78.5777 32.4263 79.6275 32.1931 78.2656 34.4358C76.5118 36.8328 75.5882 38.4325 75.0878 40.4899Z" fill="#3FA938"/>
<path d="M73.4431 73.48L72.4838 73.5166L72.5898 76.2986L74.2211 74.0425L73.4431 73.48ZM75.0878 40.4899L74.155 40.263L74.0135 40.8446L74.4734 41.2276L75.0878 40.4899ZM69.4164 65.3778L68.6736 65.9859L68.6736 65.9859L69.4164 65.3778ZM67.4427 62.9127L66.6393 63.4383L66.6596 63.4692L66.6821 63.4985L67.4427 62.9127ZM70.9493 38.562L71.5984 39.2693L71.6601 39.2127L71.7111 39.1462L70.9493 38.562ZM70.9867 38.5149L70.5814 37.6447L70.383 37.7371L70.2442 37.9063L70.9867 38.5149ZM71.0362 38.4824L71.626 39.2399L71.656 39.2165L71.684 39.1909L71.0362 38.4824ZM71.1769 38.3541L71.8227 39.0645L71.8381 39.0505L71.853 39.0358L71.1769 38.3541ZM72.344 37.0548L73.0672 37.6862L73.0672 37.6862L72.344 37.0548ZM74.7363 34.4358L74.2913 33.5852L74.165 33.6513L74.0633 33.7512L74.7363 34.4358ZM78.2656 34.4358L79.0403 35.0027L79.0647 34.9694L79.0861 34.9341L78.2656 34.4358ZM74.2211 74.0425C79.9377 66.1362 83.1325 59.8838 83.4495 54.407C83.7734 48.8098 81.0924 44.2413 75.7021 39.7522L74.4734 41.2276C79.6049 45.5011 81.8082 49.5352 81.5327 54.2961C81.2502 59.1775 78.3619 65.0388 72.6652 72.9175L74.2211 74.0425ZM68.6736 65.9859C71.0528 68.892 72.3705 70.5405 72.4838 73.5166L74.4025 73.4435C74.2614 69.7413 72.4989 67.6274 70.1592 64.7696L68.6736 65.9859ZM66.6821 63.4985C67.3974 64.4271 68.0672 65.2452 68.6736 65.9859L70.1592 64.7696C69.5516 64.0274 68.8988 63.23 68.2032 62.3269L66.6821 63.4985ZM70.3003 37.8547C65.2778 42.4633 62.6076 46.3521 62.1502 50.4555C61.6932 54.5555 63.4774 58.6054 66.6393 63.4383L68.246 62.3871C65.1227 57.6132 63.6806 54.0572 64.0584 50.6682C64.4358 47.2825 66.6615 43.7994 71.5984 39.2693L70.3003 37.8547ZM71.7111 39.1462C71.7167 39.1389 71.7227 39.1313 71.7291 39.1235L70.2442 37.9063C70.2249 37.9299 70.2061 37.9537 70.1876 37.9777L71.7111 39.1462ZM71.392 39.3852C71.5033 39.3333 71.5872 39.2701 71.626 39.2399L70.4465 37.7249C70.4512 37.7213 70.4633 37.712 70.4816 37.7C70.4982 37.689 70.5327 37.6673 70.5814 37.6447L71.392 39.3852ZM70.5312 37.6438C70.4834 37.6872 70.4358 37.7306 70.3885 37.7739L71.684 39.1909C71.73 39.1489 71.7762 39.1067 71.8227 39.0645L70.5312 37.6438ZM71.853 39.0358C72.1287 38.7623 72.5815 38.2425 73.0672 37.6862L71.6208 36.4235C71.107 37.0121 70.7141 37.4611 70.5009 37.6725L71.853 39.0358ZM73.0672 37.6862C73.8137 36.8311 74.6942 35.8234 75.4093 35.1204L74.0633 33.7512C73.2848 34.5165 72.3518 35.5861 71.6208 36.4235L73.0672 37.6862ZM75.1813 35.2865C76.1372 34.7864 76.8987 34.4079 77.4838 34.1525C78.111 33.8788 78.4113 33.8045 78.501 33.8C78.548 33.7976 78.3163 33.8267 78.0926 33.6102C77.8428 33.3684 77.8756 33.0937 77.8764 33.0869C77.878 33.0742 77.8693 33.1369 77.7906 33.3078C77.7174 33.4667 77.605 33.6741 77.445 33.9375L79.0861 34.9341C79.2666 34.6369 79.4193 34.361 79.5344 34.1112C79.644 33.8734 79.7466 33.6021 79.7813 33.3273C79.8153 33.0583 79.8028 32.5934 79.4279 32.2305C79.0791 31.893 78.6425 31.8703 78.4034 31.8825C77.9207 31.907 77.3234 32.1277 76.7159 32.3928C76.0664 32.6763 75.2561 33.0805 74.2913 33.5852L75.1813 35.2865ZM77.4908 33.869C75.7125 36.2995 74.7002 38.0212 74.155 40.263L76.0206 40.7168C76.4762 38.8437 77.311 37.3662 79.0403 35.0027L77.4908 33.869Z" fill="black" mask="url(#path-3-outside-2_21_4153)"/>
<g filter="url(#filter2_d_21_4153)">
<path d="M77.0211 47.9959L77.0211 50.0186L72.7768 53.7345C72.4586 54.0224 72.1878 54.2856 71.9643 54.5243C71.7408 54.7667 71.5704 55.0091 71.4529 55.2515C71.3355 55.4978 71.2768 55.7648 71.2768 56.0527C71.2768 56.3747 71.3469 56.6493 71.487 56.8765C71.6272 57.1076 71.8204 57.2856 72.0666 57.4106C72.3128 57.5356 72.595 57.5981 72.9132 57.5981C73.2351 57.5981 73.5173 57.5318 73.7597 57.3993C74.0022 57.2705 74.1916 57.083 74.3279 56.8368C74.4605 56.5906 74.5268 56.2913 74.5268 55.939L77.1916 55.939C77.1916 56.7307 77.0135 57.4144 76.6575 57.9902C76.3014 58.5659 75.8014 59.0091 75.1575 59.3197C74.5097 59.6341 73.7579 59.7913 72.9018 59.7913C72.0192 59.7913 71.2522 59.6436 70.6007 59.3481C69.9491 59.0527 69.4454 58.6398 69.0893 58.1095C68.7294 57.583 68.5495 56.9712 68.5495 56.2743C68.5495 55.8311 68.6385 55.3917 68.8166 54.9561C68.9946 54.5205 69.3147 54.0394 69.7768 53.5129C70.2351 52.9864 70.8866 52.3557 71.7313 51.6209L73.1234 50.3368L73.1234 50.2629L68.4075 50.2629L68.4075 47.9959L77.0211 47.9959Z" fill="#F7F3F4"/>
</g>
<mask id="path-6-outside-3_21_4153" maskUnits="userSpaceOnUse" x="36.5156" y="84.44" width="73" height="31" fill="black">
<rect fill="white" x="36.5156" y="84.44" width="73" height="31"/>
<path d="M48.1214 114.44L37.7156 108.108L52.3252 102.327L63.0756 109.76L48.1214 114.44Z"/>
<path d="M52.3252 102.327L37.7156 108.108L37.7156 92.6918L52.3252 86.36L63.0756 94.8941L63.0756 109.76L52.3252 102.327Z"/>
<path d="M93.5614 114.44L83.1556 108.108L97.7652 102.327L108.516 109.76L93.5614 114.44Z"/>
<path d="M97.7652 102.327L83.1556 108.108L83.1556 92.6918L97.7652 86.36L108.516 94.8941L108.516 109.76L97.7652 102.327Z"/>
</mask>
<path d="M48.1214 114.44L37.7156 108.108L52.3252 102.327L63.0756 109.76L48.1214 114.44Z" fill="#A8A7A5"/>
<path d="M52.3252 102.327L37.7156 108.108L37.7156 92.6918L52.3252 86.36L63.0756 94.8941L63.0756 109.76L52.3252 102.327Z" fill="#828181"/>
<path d="M93.5614 114.44L83.1556 108.108L97.7652 102.327L108.516 109.76L93.5614 114.44Z" fill="#B9511E"/>
<path d="M97.7652 102.327L83.1556 108.108L83.1556 92.6918L97.7652 86.36L108.516 94.8941L108.516 109.76L97.7652 102.327Z" fill="#8B3100"/>
<path d="M52.3252 102.327L52.5754 101.965L52.382 101.831L52.1633 101.918L52.3252 102.327ZM97.7652 102.327L98.0154 101.965L97.822 101.831L97.6033 101.918L97.7652 102.327ZM37.8775 108.517L52.4871 102.736L52.1633 101.918L37.5537 107.699L37.8775 108.517ZM52.075 102.689L62.8254 110.122L63.3258 109.398L52.5754 101.965L52.075 102.689ZM83.3175 108.517L97.9271 102.736L97.6033 101.918L82.9937 107.699L83.3175 108.517ZM97.5149 102.689L108.265 110.122L108.766 109.398L98.0154 101.965L97.5149 102.689ZM48.1214 114.44L47.664 115.192L48.0042 115.399L48.3843 115.28L48.1214 114.44ZM37.7156 108.108L36.8356 108.108L36.8356 108.603L37.2582 108.86L37.7156 108.108ZM63.0756 109.76L63.3384 110.6L63.9556 110.407L63.9556 109.76L63.0756 109.76ZM37.7156 92.6918L37.3657 91.8843L36.8356 92.114L36.8356 92.6918L37.7156 92.6918ZM52.3252 86.36L52.8723 85.6708L52.4592 85.3428L51.9753 85.5526L52.3252 86.36ZM63.0756 94.8941L63.9556 94.8941L63.9556 94.4691L63.6228 94.2049L63.0756 94.8941ZM93.5614 114.44L93.104 115.192L93.4442 115.399L93.8243 115.28L93.5614 114.44ZM83.1556 108.108L82.2756 108.108L82.2756 108.603L82.6982 108.86L83.1556 108.108ZM108.516 109.76L108.778 110.6L109.396 110.407L109.396 109.76L108.516 109.76ZM83.1556 92.6918L82.8057 91.8843L82.2756 92.1141L82.2756 92.6918L83.1556 92.6918ZM97.7652 86.36L98.3123 85.6708L97.8992 85.3428L97.4153 85.5526L97.7652 86.36ZM108.516 94.8941L109.396 94.8941L109.396 94.4691L109.063 94.2049L108.516 94.8941ZM48.5789 113.688L38.1731 107.356L37.2582 108.86L47.664 115.192L48.5789 113.688ZM62.8128 108.92L47.8586 113.6L48.3843 115.28L63.3384 110.6L62.8128 108.92ZM38.5956 108.108L38.5956 92.6918L36.8356 92.6918L36.8356 108.108L38.5956 108.108ZM38.0656 93.4992L52.6751 87.1674L51.9753 85.5526L37.3657 91.8843L38.0656 93.4992ZM51.7781 87.0492L62.5285 95.5833L63.6228 94.2049L52.8723 85.6708L51.7781 87.0492ZM62.1956 94.8941L62.1956 109.76L63.9556 109.76L63.9556 94.8941L62.1956 94.8941ZM94.0189 113.688L83.6131 107.356L82.6982 108.86L93.104 115.192L94.0189 113.688ZM108.253 108.92L93.2986 113.6L93.8243 115.28L108.778 110.6L108.253 108.92ZM84.0356 108.108L84.0356 92.6918L82.2756 92.6918L82.2756 108.108L84.0356 108.108ZM83.5056 93.4992L98.1151 87.1674L97.4153 85.5526L82.8057 91.8843L83.5056 93.4992ZM97.2181 87.0492L107.968 95.5833L109.063 94.2049L98.3123 85.6708L97.2181 87.0492ZM107.636 94.8941L107.636 109.76L109.396 109.76L109.396 94.8941L107.636 94.8941Z" fill="black" mask="url(#path-6-outside-3_21_4153)"/>
<path d="M75.3958 95.56L71.8758 105.16" stroke="black" stroke-width="2" stroke-linecap="square"/>
<defs>
<filter id="filter0_i_21_4153" x="0.515625" y="-6" width="145.492" height="153" filterUnits="userSpaceOnUse" color-interpolation-filters="sRGB">
<feFlood flood-opacity="0" result="BackgroundImageFix"/>
<feBlend mode="normal" in="SourceGraphic" in2="BackgroundImageFix" result="shape"/>
<feColorMatrix in="SourceAlpha" type="matrix" values="0 0 0 0 0 0 0 0 0 0 0 0 0 0 0 0 0 0 127 0" result="hardAlpha"/>
<feOffset dy="-6"/>
<feGaussianBlur stdDeviation="4.9"/>
<feComposite in2="hardAlpha" operator="arithmetic" k2="-1" k3="1"/>
<feColorMatrix type="matrix" values="0 0 0 0 0 0 0 0 0 0 0 0 0 0 0 0 0 0 0.5 0"/>
<feBlend mode="normal" in2="shape" result="effect1_innerShadow_21_4153"/>
</filter>
<filter id="filter1_i_21_4153" x="36.4033" y="-1" width="72.7461" height="85" filterUnits="userSpaceOnUse" color-interpolation-filters="sRGB">
<feFlood flood-opacity="0" result="BackgroundImageFix"/>
<feBlend mode="normal" in="SourceGraphic" in2="BackgroundImageFix" result="shape"/>
<feColorMatrix in="SourceAlpha" type="matrix" values="0 0 0 0 0 0 0 0 0 0 0 0 0 0 0 0 0 0 127 0" result="hardAlpha"/>
<feOffset dy="-1"/>
<feGaussianBlur stdDeviation="1.5"/>
<feComposite in2="hardAlpha" operator="arithmetic" k2="-1" k3="1"/>
<feColorMatrix type="matrix" values="0 0 0 0 0 0 0 0 0 0 0 0 0 0 0 0 0 0 0.25 0"/>
<feBlend mode="normal" in2="shape" result="effect1_innerShadow_21_4153"/>
</filter>
<filter id="filter2_d_21_4153" x="68.0875" y="47.9959" width="9.42418" height="12.9955" filterUnits="userSpaceOnUse" color-interpolation-filters="sRGB">
<feFlood flood-opacity="0" result="BackgroundImageFix"/>
<feColorMatrix in="SourceAlpha" type="matrix" values="0 0 0 0 0 0 0 0 0 0 0 0 0 0 0 0 0 0 127 0" result="hardAlpha"/>
<feOffset dy="0.88"/>
<feGaussianBlur stdDeviation="0.16"/>
<feComposite in2="hardAlpha" operator="out"/>
<feColorMatrix type="matrix" values="0 0 0 0 0 0 0 0 0 0 0 0 0 0 0 0 0 0 0.25 0"/>
<feBlend mode="normal" in2="BackgroundImageFix" result="effect1_dropShadow_21_4153"/>
<feBlend mode="normal" in="SourceGraphic" in2="effect1_dropShadow_21_4153" result="shape"/>
</filter>
</defs>
</svg>
