<svg width="146" height="210" viewBox="0 0 146 210" fill="none" xmlns="http://www.w3.org/2000/svg">
<g filter="url(#filter0_i_18_3455)">
<path d="M109.604 189V147L145.977 126L145.977 84L109.604 63L109.604 21L73.2307 -1.52588e-05L36.8577 21L36.8576 62.9999L0.484497 83.9999V126L36.8575 147V189L73.2305 210L109.604 189Z" fill="#C76E26"/>
</g>
<g filter="url(#filter1_i_18_3455)">
<mask id="path-2-inside-1_18_3455" fill="white">
<path d="M110.484 21L74.1114 4.33745e-07L37.7384 21L37.7384 63L74.1114 84L110.484 63L110.484 21Z"/>
</mask>
<path d="M110.484 21L74.1114 4.33745e-07L37.7384 21L37.7384 63L74.1114 84L110.484 63L110.484 21Z" stroke="black" stroke-opacity="0.5" stroke-width="14" mask="url(#path-2-inside-1_18_3455)"/>
</g>
<mask id="path-3-outside-2_18_3455" maskUnits="userSpaceOnUse" x="63.2845" y="149.8" width="22" height="45" fill="black">
<rect fill="white" x="63.2845" y="149.8" width="22" height="45"/>
<path fill-rule="evenodd" clip-rule="evenodd" d="M71.7124 185.79C61.1907 177.027 61.9437 168.585 73.357 152.8C73.4842 156.139 75.0243 158.02 77.3838 160.902C77.9908 161.644 78.6521 162.451 79.3575 163.367C85.6427 172.974 85.8102 178.579 75.851 187.718C75.8389 187.734 75.8264 187.749 75.8135 187.765C75.8004 187.771 75.7836 187.782 75.7635 187.798C75.7173 187.84 75.6708 187.883 75.6241 187.925C75.3797 188.167 74.9565 188.652 74.4562 189.225C73.7175 190.071 72.8107 191.11 72.0639 191.844C68.2225 193.854 67.1727 194.087 68.5347 191.844C70.2885 189.447 71.212 187.848 71.7124 185.79Z"/>
</mask>
<path fill-rule="evenodd" clip-rule="evenodd" d="M71.7124 185.79C61.1907 177.027 61.9437 168.585 73.357 152.8C73.4842 156.139 75.0243 158.02 77.3838 160.902C77.9908 161.644 78.6521 162.451 79.3575 163.367C85.6427 172.974 85.8102 178.579 75.851 187.718C75.8389 187.734 75.8264 187.749 75.8135 187.765C75.8004 187.771 75.7836 187.782 75.7635 187.798C75.7173 187.84 75.6708 187.883 75.6241 187.925C75.3797 188.167 74.9565 188.652 74.4562 189.225C73.7175 190.071 72.8107 191.11 72.0639 191.844C68.2225 193.854 67.1727 194.087 68.5347 191.844C70.2885 189.447 71.212 187.848 71.7124 185.79Z" fill="#3FA938"/>
<path d="M73.357 152.8L74.3163 152.763L74.2103 149.981L72.5791 152.238L73.357 152.8ZM71.7124 185.79L72.6452 186.017L72.7867 185.435L72.3268 185.052L71.7124 185.79ZM77.3838 160.902L78.1266 160.294L78.1266 160.294L77.3838 160.902ZM79.3575 163.367L80.1609 162.842L80.1406 162.811L80.1181 162.782L79.3575 163.367ZM75.851 187.718L75.202 187.011L75.1402 187.067L75.0892 187.134L75.851 187.718ZM75.8135 187.765L76.2189 188.635L76.4173 188.543L76.556 188.374L75.8135 187.765ZM75.7635 187.798L75.1731 187.041L75.1435 187.064L75.1158 187.089L75.7635 187.798ZM75.6241 187.925L74.9783 187.215L74.9629 187.229L74.9482 187.243L75.6241 187.925ZM74.4562 189.225L73.733 188.594H73.733L74.4562 189.225ZM72.0639 191.844L72.5089 192.695L72.6352 192.629L72.7369 192.529L72.0639 191.844ZM68.5347 191.844L67.7599 191.277L67.7355 191.311L67.7141 191.346L68.5347 191.844ZM72.5791 152.238C66.8625 160.144 63.6676 166.396 63.3507 171.873C63.0268 177.47 65.7078 182.039 71.0981 186.528L72.3268 185.052C67.1953 180.779 64.992 176.745 65.2675 171.984C65.55 167.103 68.4383 161.241 74.135 153.362L72.5791 152.238ZM78.1266 160.294C75.7474 157.388 74.4297 155.74 74.3163 152.763L72.3977 152.837C72.5387 156.539 74.3013 158.653 76.6409 161.51L78.1266 160.294ZM80.1181 162.782C79.4028 161.853 78.733 161.035 78.1266 160.294L76.6409 161.51C77.2486 162.253 77.9014 163.05 78.597 163.953L80.1181 162.782ZM76.5001 188.425C81.5225 183.817 84.1926 179.928 84.65 175.824C85.107 171.724 83.3227 167.675 80.1609 162.842L78.5542 163.893C81.6775 168.667 83.1196 172.223 82.7418 175.612C82.3644 178.997 80.1387 182.48 75.202 187.011L76.5001 188.425ZM75.0892 187.134C75.0836 187.141 75.0776 187.149 75.0711 187.157L76.556 188.374C76.5753 188.35 76.5943 188.326 76.6129 188.302L75.0892 187.134ZM75.4082 186.895C75.2963 186.947 75.2119 187.011 75.1731 187.041L76.3539 188.555C76.3494 188.559 76.3374 188.568 76.319 188.58C76.3024 188.591 76.2678 188.613 76.2189 188.635L75.4082 186.895ZM76.2698 188.635C76.3172 188.592 76.3643 188.549 76.4113 188.507L75.1158 187.089C75.0702 187.131 75.0244 187.173 74.9783 187.215L76.2698 188.635ZM74.9482 187.243C74.6725 187.517 74.2191 188.037 73.733 188.594L75.1794 189.857C75.6938 189.267 76.087 188.818 76.2999 188.607L74.9482 187.243ZM73.733 188.594C72.9865 189.449 72.106 190.457 71.3909 191.16L72.7369 192.529C73.5154 191.764 74.4484 190.694 75.1794 189.857L73.733 188.594ZM71.6189 190.994C70.663 191.494 69.9015 191.872 69.3164 192.128C68.6892 192.401 68.389 192.475 68.2992 192.48C68.2522 192.482 68.4839 192.453 68.7076 192.67C68.9574 192.912 68.9246 193.186 68.9238 193.193C68.9222 193.206 68.9309 193.143 69.0097 192.972C69.0828 192.813 69.1952 192.606 69.3552 192.342L67.7141 191.346C67.5336 191.643 67.3809 191.919 67.2658 192.169C67.1563 192.407 67.0536 192.678 67.0189 192.953C66.985 193.222 66.9974 193.687 67.3723 194.049C67.7211 194.387 68.1577 194.41 68.3969 194.398C68.8795 194.373 69.4768 194.152 70.0844 193.887C70.7339 193.604 71.5442 193.2 72.5089 192.695L71.6189 190.994ZM69.3094 192.411C71.0877 189.981 72.1 188.259 72.6452 186.017L70.7796 185.563C70.3241 187.436 69.4892 188.914 67.7599 191.277L69.3094 192.411Z" fill="black" mask="url(#path-3-outside-2_18_3455)"/>
<g filter="url(#filter2_d_18_3455)">
<path d="M69.223 176.352V174.159L73.99 166.648H75.9389V169.625H74.8082L72.0184 174.046V174.136H78.9218V176.352H69.223ZM74.8423 178.284V175.682L74.8991 174.722V166.648H77.5298V178.284H74.8423Z" fill="#F7F3F4"/>
</g>
<path d="M94.0445 41.92C94.0445 52.7277 85.0484 61.504 73.9325 61.504C62.8166 61.504 53.8205 52.7277 53.8205 41.92C53.8205 31.1123 62.8166 22.336 73.9325 22.336C85.0484 22.336 94.0445 31.1123 94.0445 41.92Z" fill="#C67B24" stroke="#84531A" stroke-width="0.672"/>
<path d="M63.8524 26.6H73.4524V36.2H63.8524V26.6Z" fill="white" fill-opacity="0.6"/>
<path d="M74.4124 26.6H84.0124V36.2H74.4124V26.6Z" fill="white" fill-opacity="0.6"/>
<path d="M63.8524 37.8H73.4524V47.4H63.8524V37.8Z" fill="white" fill-opacity="0.6"/>
<path d="M74.4124 37.8H84.0124V47.4H74.4124V37.8Z" fill="white" fill-opacity="0.6"/>
<path d="M63.8524 49H73.4524V58.6H63.8524V49Z" fill="white" fill-opacity="0.6"/>
<path d="M74.4124 49H84.0124V58.6H74.4124V49Z" fill="white" fill-opacity="0.6"/>
<mask id="path-8-outside-3_18_3455" maskUnits="userSpaceOnUse" x="68.0845" y="29.76" width="12" height="23" fill="black">
<rect fill="white" x="68.0845" y="29.76" width="12" height="23"/>
<path fill-rule="evenodd" clip-rule="evenodd" d="M72.7984 48.2551C67.5376 43.8737 67.9141 39.6525 73.6207 31.76C73.6843 33.4295 74.4544 34.3701 75.6341 35.8111C75.9376 36.1819 76.2682 36.5857 76.621 37.0437C79.7636 41.847 79.8473 44.6496 74.8676 49.219C74.8616 49.2269 74.8554 49.2347 74.849 49.2425C74.8424 49.2455 74.8342 49.251 74.8242 49.2587C74.8009 49.2801 74.7774 49.3015 74.7537 49.323C74.6315 49.4443 74.4201 49.6864 74.1703 49.9726C73.8009 50.3957 73.3476 50.915 72.9742 51.2821C71.0535 52.2868 70.5285 52.4034 71.2095 51.2821C72.0864 50.0836 72.5482 49.2838 72.7984 48.2551Z"/>
</mask>
<path fill-rule="evenodd" clip-rule="evenodd" d="M72.7984 48.2551C67.5376 43.8737 67.9141 39.6525 73.6207 31.76C73.6843 33.4295 74.4544 34.3701 75.6341 35.8111C75.9376 36.1819 76.2682 36.5857 76.621 37.0437C79.7636 41.847 79.8473 44.6496 74.8676 49.219C74.8616 49.2269 74.8554 49.2347 74.849 49.2425C74.8424 49.2455 74.8342 49.251 74.8242 49.2587C74.8009 49.2801 74.7774 49.3015 74.7537 49.323C74.6315 49.4443 74.4201 49.6864 74.1703 49.9726C73.8009 50.3957 73.3476 50.915 72.9742 51.2821C71.0535 52.2868 70.5285 52.4034 71.2095 51.2821C72.0864 50.0836 72.5482 49.2838 72.7984 48.2551Z" fill="#3FA938"/>
<path d="M73.6207 31.76L74.1004 31.7417L74.0474 30.3507L73.2317 31.4787L73.6207 31.76ZM72.7984 48.2551L73.2648 48.3685L73.3355 48.0777L73.1056 47.8862L72.7984 48.2551ZM75.6341 35.8111L76.0055 35.507L76.0055 35.507L75.6341 35.8111ZM76.621 37.0437L77.0226 36.7809L77.0125 36.7654L77.0012 36.7508L76.621 37.0437ZM74.8676 49.219L74.5431 48.8653L74.5122 48.8936L74.4868 48.9269L74.8676 49.219ZM74.849 49.2425L75.0516 49.6776L75.1508 49.6314L75.2202 49.5468L74.849 49.2425ZM74.8242 49.2587L74.5295 48.8799L74.5144 48.8916L74.5004 48.9045L74.8242 49.2587ZM74.7537 49.323L74.4309 48.9678L74.4231 48.9749L74.4157 48.9822L74.7537 49.323ZM74.1703 49.9726L73.8087 49.6569L73.8087 49.6569L74.1703 49.9726ZM72.9742 51.2821L73.1967 51.7074L73.2598 51.6743L73.3107 51.6244L72.9742 51.2821ZM71.2095 51.2821L70.8222 50.9986L70.81 51.0153L70.7993 51.0329L71.2095 51.2821ZM73.2317 31.4787C70.3734 35.4319 68.776 38.5581 68.6176 41.2965C68.4556 44.0951 69.7961 46.3793 72.4912 48.6239L73.1056 47.8862C70.5399 45.7494 69.4382 43.7324 69.5759 41.352C69.7172 38.9113 71.1614 35.9806 74.0097 32.0412L73.2317 31.4787ZM76.0055 35.507C74.8159 34.054 74.157 33.2298 74.1004 31.7417L73.1411 31.7783C73.2116 33.6293 74.0928 34.6863 75.2627 36.1152L76.0055 35.507ZM77.0012 36.7508C76.6436 36.2864 76.3087 35.8774 76.0055 35.507L75.2627 36.1152C75.5665 36.4863 75.8929 36.885 76.2407 37.3366L77.0012 36.7508ZM75.1921 49.5727C77.7034 47.2684 79.0385 45.3239 79.2672 43.2723C79.4957 41.2223 78.6036 39.1973 77.0226 36.7809L76.2193 37.3065C77.781 39.6934 78.502 41.4714 78.3131 43.1659C78.1244 44.8587 77.0115 46.6003 74.5431 48.8653L75.1921 49.5727ZM74.4868 48.9269C74.4839 48.9306 74.4809 48.9343 74.4778 48.9382L75.2202 49.5468C75.2298 49.535 75.2393 49.5231 75.2485 49.5111L74.4868 48.9269ZM74.6463 48.8074C74.5907 48.8333 74.5489 48.8648 74.5295 48.8799L75.119 49.6376C75.1167 49.6394 75.1106 49.644 75.1014 49.65C75.0931 49.6555 75.0759 49.6663 75.0516 49.6776L74.6463 48.8074ZM75.0766 49.6782C75.1006 49.6564 75.1244 49.6347 75.1481 49.613L74.5004 48.9045C74.4773 48.9255 74.4542 48.9467 74.4309 48.9678L75.0766 49.6782ZM74.4157 48.9822C74.2778 49.119 74.0515 49.3788 73.8087 49.6569L74.5319 50.2882C74.7887 49.994 74.9852 49.7695 75.0918 49.6638L74.4157 48.9822ZM73.8087 49.6569C73.4355 50.0844 72.9952 50.5883 72.6377 50.9397L73.3107 51.6244C73.6999 51.2417 74.1664 50.7069 74.5319 50.2882L73.8087 49.6569ZM72.7517 50.8567C72.2737 51.1068 71.893 51.296 71.6004 51.4237C71.2868 51.5606 71.1367 51.5977 71.0918 51.6C71.0683 51.6012 71.1842 51.5866 71.296 51.6949C71.4209 51.8158 71.4045 51.9531 71.4041 51.9565C71.4033 51.9629 71.4077 51.9315 71.447 51.8461C71.4836 51.7666 71.5398 51.6629 71.6198 51.5312L70.7993 51.0329C70.709 51.1815 70.6326 51.3195 70.5751 51.4444C70.5203 51.5633 70.469 51.6989 70.4516 51.8363C70.4347 51.9708 70.4409 52.2033 70.6284 52.3847C70.8027 52.5535 71.021 52.5648 71.1406 52.5587C71.382 52.5465 71.6806 52.4361 71.9844 52.3036C72.3091 52.1618 72.7143 51.9597 73.1967 51.7074L72.7517 50.8567ZM71.5969 51.5655C72.4861 50.3502 72.9922 49.4894 73.2648 48.3685L72.332 48.1416C72.1042 49.0782 71.6868 49.8169 70.8222 50.9986L71.5969 51.5655Z" fill="black" mask="url(#path-8-outside-3_18_3455)"/>
<g filter="url(#filter3_d_18_3455)">
<path d="M71.8317 45.0021V43.9907L73.9539 42.1328C74.113 41.9888 74.2484 41.8572 74.3601 41.7379C74.4719 41.6167 74.5571 41.4955 74.6158 41.3743C74.6745 41.2512 74.7039 41.1176 74.7039 40.9737C74.7039 40.8127 74.6689 40.6754 74.5988 40.5618C74.5287 40.4462 74.4321 40.3572 74.309 40.2947C74.1859 40.2322 74.0448 40.201 73.8857 40.201C73.7247 40.201 73.5836 40.2341 73.4624 40.3004C73.3412 40.3648 73.2465 40.4585 73.1783 40.5817C73.112 40.7048 73.0789 40.8544 73.0789 41.0305H71.7465C71.7465 40.6347 71.8355 40.2928 72.0135 40.0049C72.1916 39.7171 72.4416 39.4955 72.7635 39.3402C73.0874 39.183 73.4634 39.1044 73.8914 39.1044C74.3327 39.1044 74.7162 39.1782 75.042 39.326C75.3677 39.4737 75.6196 39.6801 75.7976 39.9453C75.9776 40.2085 76.0675 40.5144 76.0675 40.8629C76.0675 41.0845 76.023 41.3042 75.934 41.522C75.845 41.7398 75.685 41.9803 75.4539 42.2436C75.2247 42.5068 74.899 42.8222 74.4766 43.1896L73.7806 43.8317V43.8686H76.1385V45.0021H71.8317Z" fill="#F7F3F4"/>
</g>
<defs>
<filter id="filter0_i_18_3455" x="0.484497" y="-6.00002" width="145.492" height="216" filterUnits="userSpaceOnUse" color-interpolation-filters="sRGB">
<feFlood flood-opacity="0" result="BackgroundImageFix"/>
<feBlend mode="normal" in="SourceGraphic" in2="BackgroundImageFix" result="shape"/>
<feColorMatrix in="SourceAlpha" type="matrix" values="0 0 0 0 0 0 0 0 0 0 0 0 0 0 0 0 0 0 127 0" result="hardAlpha"/>
<feOffset dy="-6"/>
<feGaussianBlur stdDeviation="4.9"/>
<feComposite in2="hardAlpha" operator="arithmetic" k2="-1" k3="1"/>
<feColorMatrix type="matrix" values="0 0 0 0 0 0 0 0 0 0 0 0 0 0 0 0 0 0 0.5 0"/>
<feBlend mode="normal" in2="shape" result="effect1_innerShadow_18_3455"/>
</filter>
<filter id="filter1_i_18_3455" x="37.7384" y="-1" width="72.7461" height="85" filterUnits="userSpaceOnUse" color-interpolation-filters="sRGB">
<feFlood flood-opacity="0" result="BackgroundImageFix"/>
<feBlend mode="normal" in="SourceGraphic" in2="BackgroundImageFix" result="shape"/>
<feColorMatrix in="SourceAlpha" type="matrix" values="0 0 0 0 0 0 0 0 0 0 0 0 0 0 0 0 0 0 127 0" result="hardAlpha"/>
<feOffset dy="-1"/>
<feGaussianBlur stdDeviation="1.5"/>
<feComposite in2="hardAlpha" operator="arithmetic" k2="-1" k3="1"/>
<feColorMatrix type="matrix" values="0 0 0 0 0 0 0 0 0 0 0 0 0 0 0 0 0 0 0.25 0"/>
<feBlend mode="normal" in2="shape" result="effect1_innerShadow_18_3455"/>
</filter>
<filter id="filter2_d_18_3455" x="68.9029" y="166.648" width="10.339" height="12.8364" filterUnits="userSpaceOnUse" color-interpolation-filters="sRGB">
<feFlood flood-opacity="0" result="BackgroundImageFix"/>
<feColorMatrix in="SourceAlpha" type="matrix" values="0 0 0 0 0 0 0 0 0 0 0 0 0 0 0 0 0 0 127 0" result="hardAlpha"/>
<feOffset dy="0.88"/>
<feGaussianBlur stdDeviation="0.16"/>
<feComposite in2="hardAlpha" operator="out"/>
<feColorMatrix type="matrix" values="0 0 0 0 0 0 0 0 0 0 0 0 0 0 0 0 0 0 0.25 0"/>
<feBlend mode="normal" in2="BackgroundImageFix" result="effect1_dropShadow_18_3455"/>
<feBlend mode="normal" in="SourceGraphic" in2="effect1_dropShadow_18_3455" result="shape"/>
</filter>
<filter id="filter3_d_18_3455" x="71.5865" y="39.1044" width="4.71209" height="6.49772" filterUnits="userSpaceOnUse" color-interpolation-filters="sRGB">
<feFlood flood-opacity="0" result="BackgroundImageFix"/>
<feColorMatrix in="SourceAlpha" type="matrix" values="0 0 0 0 0 0 0 0 0 0 0 0 0 0 0 0 0 0 127 0" result="hardAlpha"/>
<feOffset dy="0.44"/>
<feGaussianBlur stdDeviation="0.08"/>
<feComposite in2="hardAlpha" operator="out"/>
<feColorMatrix type="matrix" values="0 0 0 0 0 0 0 0 0 0 0 0 0 0 0 0 0 0 0.25 0"/>
<feBlend mode="normal" in2="BackgroundImageFix" result="effect1_dropShadow_18_3455"/>
<feBlend mode="normal" in="SourceGraphic" in2="effect1_dropShadow_18_3455" result="shape"/>
</filter>
</defs>
</svg>
