<?xml version="1.0" encoding="UTF-8" standalone="no"?>
<!-- Created with Inkscape (http://www.inkscape.org/) -->

<svg
   xmlns:dc="http://purl.org/dc/elements/1.1/"
   xmlns:cc="http://creativecommons.org/ns#"
   xmlns:rdf="http://www.w3.org/1999/02/22-rdf-syntax-ns#"
   xmlns:svg="http://www.w3.org/2000/svg"
   xmlns="http://www.w3.org/2000/svg"
   xmlns:sodipodi="http://sodipodi.sourceforge.net/DTD/sodipodi-0.dtd"
   xmlns:inkscape="http://www.inkscape.org/namespaces/inkscape"
   width="200.00002"
   height="208.42964"
   id="svg3988"
   version="1.1"
   inkscape:version="0.48.4 r9939"
   sodipodi:docname="Nouveau document 11">
  <defs
     id="defs3990" />
  <sodipodi:namedview
     id="base"
     pagecolor="#ffffff"
     bordercolor="#666666"
     borderopacity="1.0"
     inkscape:pageopacity="0.0"
     inkscape:pageshadow="2"
     inkscape:zoom="0.35"
     inkscape:cx="-144.99999"
     inkscape:cy="218.50053"
     inkscape:document-units="px"
     inkscape:current-layer="layer1"
     showgrid="false"
     fit-margin-top="0"
     fit-margin-left="0"
     fit-margin-right="0"
     fit-margin-bottom="0"
     inkscape:window-width="486"
     inkscape:window-height="383"
     inkscape:window-x="57"
     inkscape:window-y="24"
     inkscape:window-maximized="0" />
  <metadata
     id="metadata3993">
    <rdf:RDF>
      <cc:Work
         rdf:about="">
        <dc:format>image/svg+xml</dc:format>
        <dc:type
           rdf:resource="http://purl.org/dc/dcmitype/StillImage" />
        <dc:title></dc:title>
      </cc:Work>
    </rdf:RDF>
  </metadata>
  <g
     inkscape:label="Calque 1"
     inkscape:groupmode="layer"
     id="layer1"
     transform="translate(-519.99999,-542.43308)">
    <path
       style="fill:#ff0000;fill-opacity:1;stroke:none"
       d="m 564.117,542.43806 c -1.58661,0.15604 -7.93605,7.51089 -10.66833,10.26574 -8.94079,10.89262 -19.76739,20.80471 -25.26184,34.01785 -2.77132,10.76109 -11.15814,22.47694 -7.09546,33.61527 13.70608,3.81063 27.79088,6.22662 41.96887,7.34706 l -6.18965,16.20377 12.73156,14.49281 c 5.52008,4.5085 6.92797,11.19238 6.9948,18.11602 2.65346,5.61508 -4.69192,6.7629 -7.79996,9.81285 -7.12456,3.74461 -14.39146,9.42275 -9.10835,18.46817 3.74016,9.6044 7.92008,24.93296 20.07863,25.61412 13.36169,-4.55831 8.95922,11.27752 14.74445,17.51216 7.97574,3.39937 16.92693,3.28005 25.51345,2.51612 8.57132,0.75991 17.50288,0.87649 25.46312,-2.51612 5.78522,-6.23464 1.38276,-22.07029 14.74445,-17.51216 12.15855,-0.68116 16.33847,-16.00972 20.07863,-25.61412 5.2831,-9.04542 -1.9838,-14.72356 -9.10835,-18.46817 -3.10804,-3.04995 -10.45343,-4.19777 -7.79997,-9.81285 0.0668,-6.92364 1.47473,-13.60752 6.99481,-18.11602 l 12.73156,-14.49281 -6.18965,-16.20377 c 14.17798,-1.12044 28.26278,-3.53643 41.96886,-7.34706 4.06268,-11.13833 -4.32413,-22.85418 -7.09545,-33.61527 -5.49446,-13.21314 -16.32105,-23.12523 -25.26184,-34.01785 -3.97424,-4.00705 -15.58533,-17.77246 -9.10835,-4.88126 5.97419,15.59186 12.49715,31.22055 14.64382,47.9068 -9.16195,5.76683 -24.31398,5.98768 -32.60891,1.86192 5.42121,-6.93236 10.40564,-16.75032 10.66835,-26.06694 -0.0681,-6.0074 -0.2013,-15.34829 -0.2013,-15.34829 0,0 -30.1471,12.37668 -33.06178,21.08504 l -4.42838,12.98315 -12.3793,-8.40383 c 0,-10e-5 0,-0.10066 0,-0.10066 l -0.0504,0.0504 -0.10068,-0.0504 c 0,0 0,0.10053 0,0.10066 l -12.37931,8.40383 -4.42837,-12.98315 c -2.91468,-8.70836 -33.0618,-21.08504 -33.0618,-21.08504 0,0 -0.1332,9.34089 -0.20128,15.34829 0.26271,9.31662 5.24714,19.13458 10.66834,26.06694 -8.29494,4.12576 -23.44695,3.90491 -32.6089,-1.86192 2.14667,-16.68625 8.66962,-32.31494 14.64382,-47.9068 2.02405,-4.02851 2.28117,-5.45542 1.55998,-5.38448 z"
       id="path3044-4-5-3"
       inkscape:connector-curvature="0" />
  </g>
</svg>
