<svg width="101" height="100" viewBox="0 0 101 100" fill="none" xmlns="http://www.w3.org/2000/svg">
<rect x="1.4502" y="0.75" width="98.5" height="98.5" rx="9.25" fill="#D9D9D9" fill-opacity="0.75" stroke="black" stroke-width="1.5"/>
<path d="M65.6233 12H36.7771L13.7002 35.0769V63.9231L36.7771 87H65.6233L88.7002 63.9231V35.0769L65.6233 12Z" fill="black"/>
<path d="M37.9389 68V61.679L51.2024 50.0668C52.1967 49.1671 53.0431 48.3445 53.7415 47.5987C54.4399 46.8411 54.9725 46.0836 55.3395 45.326C55.7064 44.5566 55.8899 43.7221 55.8899 42.8224C55.8899 41.8163 55.6709 40.9581 55.233 40.2479C54.795 39.5258 54.1913 38.9695 53.4219 38.5788C52.6525 38.1882 51.7706 37.9929 50.7763 37.9929C49.7701 37.9929 48.8883 38.2 48.1307 38.6143C47.3731 39.0168 46.7813 39.6027 46.3551 40.3722C45.9408 41.1416 45.7337 42.0767 45.7337 43.1776H37.4062C37.4062 40.7036 37.9626 38.567 39.0753 36.7678C40.188 34.9685 41.7505 33.5836 43.7628 32.6129C45.7869 31.6304 48.1366 31.1392 50.8118 31.1392C53.5698 31.1392 55.9669 31.6009 58.0028 32.5241C60.0388 33.4474 61.6132 34.7377 62.7259 36.3949C63.8504 38.0402 64.4126 39.9519 64.4126 42.13C64.4126 43.5149 64.1345 44.888 63.5781 46.2493C63.0218 47.6106 62.0215 49.1139 60.5774 50.7592C59.1451 52.4046 57.1091 54.3755 54.4695 56.6719L50.1193 60.6847V60.9155H64.8565V68H37.9389Z" fill="#E5C4AA"/>
</svg>
