<svg id="gameBoardSvg" viewBox="0 0 1856 1300" height="960">
  <path onclick="playOnCell('31a')" d="m680.55967,248.05415l107.37779,-1.36163l-0.3891,-36.57586l-107.78206,0.3891l0.79338,37.54839z" vector-effect="non-scaling-stroke"/>
  <path onclick="playOnCell('0a')" d="m791.84368,210.31097l0.37394,35.99244l114.78595,0.3891l0.3891,-36.57586l-115.54899,0.19431z" vector-effect="non-scaling-stroke"/>
  <path onclick="playOnCell('1a')" d="m911.75172,209.92717l0.16416,36.58364l96.76358,-0.24875l0.24875,-37.80993l-97.17648,1.47505z" vector-effect="non-scaling-stroke"/>
  <path onclick="playOnCell('0b')" d="m680.91213,257.43834l-0.08459,77.87606l330.58816,-1.74125l-1.99,-78.60486l-328.51357,2.47004z" vector-effect="non-scaling-stroke"/>
  <path onclick="playOnCell('0c')" d="m680.91213,339.27694l-0.08459,39.56863l332.32941,-4.22874l-0.995,-37.06368l-331.24982,1.72379z" vector-effect="non-scaling-stroke"/>
  <path onclick="playOnCell('0d')" d="m680.91213,382.55937l0.16416,30.61365l333.07566,1.4925l-0.995,-36.56619l-332.24482,4.46004z" vector-effect="non-scaling-stroke"/>
  <path onclick="playOnCell('0e')" d="m681.24849,418.20796l0.54337,58.95964l2.31214,2.02312l58.67052,1.15607l68.78612,2.31214l88.72832,1.7341l46.24277,-0.57803l47.39884,-2.89017l21.09826,-7.80347l-1.15607,-54.33526l-332.62427,-0.57814z" vector-effect="non-scaling-stroke"/>
  <path onclick="playOnCell('2a')" d="m1013.3294,208.6704l2.56649,121.38738c0.03467,0.28891 35.5838,-0.86716 35.5838,-1.44519c0,-0.57804 46.82081,-17.05202 46.78613,-17.34093c0.03468,0.28891 36.16184,-8.95965 36.12717,-9.24856c0.03467,0.28891 30.38149,-5.49144 30.34682,-5.78035c0.03467,0.28891 24.02311,-2.89028 23.98843,-3.17919c0.03468,0.28891 -0.54335,-36.41629 -0.57803,-36.7052c0.03468,0.28891 -91.2948,-47.39895 -91.32947,-47.68785l-83.49134,-0.00011z" vector-effect="non-scaling-stroke"/>
  <path onclick="playOnCell('2b')" d="m1016.21958,344l1.41041,66.51443l23.98844,-0.28902l49.42196,-20.23121l35.83815,-8.3815l36.7052,-6.06937l26.58959,-0.86705l-1.15607,-71.67629l-52.31213,8.67052l-34.39307,9.53757l-36.99421,14.45086l-13.58382,3.46821l-35.51445,4.87285z" vector-effect="non-scaling-stroke"/>
  <path onclick="playOnCell('2c')" d="m1018.2427,420.5201l0.25434,50.86715l30.34682,-13.00578l40.17341,-19.07514l42.77456,-15.31792l33.81503,-9.53757l25.43352,-3.17919l0,-28.03468l-43.64162,4.33526l-30.0578,5.78035l-25.14451,7.22543l-23.98844,11.27168l-12.13873,4.04624l-12.71676,3.75723l-25.10983,0.86695z" vector-effect="non-scaling-stroke"/>
  <path onclick="playOnCell('3a')" d="m1191.94211,257.51433l0.54336,36.99433l70.52023,0.28902l89.88439,3.46821l36.99422,9.53757l15.60694,-35.83815l-55.49133,-13.00578l-138.72831,-0.57803l-19.32948,-0.86716z" vector-effect="non-scaling-stroke"/>
  <path onclick="playOnCell('3b')" d="m1192.80916,298.55479l0.54336,33.2371l71.09826,0.86705l46.53179,3.17919l59.82659,15.31792l17.34104,-39.59537l-35.26011,-9.24855l-160.08092,-3.75733z" vector-effect="non-scaling-stroke"/>
  <path onclick="playOnCell('3c')" d="m1193.96523,336.70507l0.25434,37.57236l85.83814,1.15607l39.30636,6.35838l33.52601,8.67052l16.18497,-34.9711l-51.7341,-14.16185l-26.87861,-3.46821l-44.50867,-1.44509l-51.98844,0.28891z" vector-effect="non-scaling-stroke"/>
  <path onclick="playOnCell('3d')" d="m1194.54327,378.9016l-0.03468,31.21398l24.27746,-2.60116l33.23699,6.06936l23.98844,2.60116l28.3237,4.62428l23.69942,5.49133l8.67052,3.46821l15.31792,-34.10404l-57.22543,-13.2948l-42.77456,-4.04624l-57.47977,0.57793z" vector-effect="non-scaling-stroke"/>
  <path onclick="playOnCell('4a')" d="m1394.54326,309.82646l15.57225,-35.83804l47.68786,16.18497c0.03469,0.28891 30.38151,19.94209 30.67052,19.94209c0.28902,0 42.19653,26.01156 42.16185,25.72265c0.03468,0.28891 25.75723,27.45654 25.72254,27.16763c0.03469,0.28891 23.73411,23.41029 23.69942,23.12138c0.03469,0.28891 -35.22543,30.92475 -35.26012,30.63584c0.03469,0.28891 -2.85548,-6.6475 -2.89017,-6.93642c0.03469,0.28892 -14.70519,-16.76311 -14.73988,-17.05202c0.03469,0.28891 -29.7341,-24.56658 -29.76879,-24.85549c0.03469,0.28891 -37.24855,-23.98854 -37.28323,-24.27745c0.03468,0.28891 -35.22543,-19.07525 -35.26011,-19.36417l-30.31214,-14.45097z" vector-effect="non-scaling-stroke"/>
  <path onclick="playOnCell('4b')" d="m1376.33517,349.71085l16.4393,-35.54902l65.31791,33.23699l37.57225,26.01156l41.90751,37.86127l2.60116,7.80347l-27.74566,24.27746l-69.65317,-55.49133l-66.4393,-38.15039z" vector-effect="non-scaling-stroke"/>
  <path onclick="playOnCell('4c')" d="m1371.99991,359.82646l-14.19653,32.94808l23.98843,9.82659l28.3237,14.73988l30.63584,24.56647l23.69942,13.58382l14.73988,16.47399l26.30058,-20.80925l-49.71098,-41.04046c0.03468,0.28891 -33.78034,-23.69953 -33.49133,-23.69953c0.28902,0 -27.16762,-15.31791 -27.20231,-15.60683l-23.0867,-10.98276z" vector-effect="non-scaling-stroke"/>
  <path onclick="playOnCell('4d')" d="m1355.81494,396.53166l34.6474,16.18507l19.36416,10.40462l27.45665,21.96532l24.27746,13.87283l13.87283,15.60694l-20.23121,18.20809l-25.72254,-22.54335l-24.56647,-13.87283l-63.87283,-24.85549l14.77457,-34.9712z" vector-effect="non-scaling-stroke"/>
  <path onclick="playOnCell('5a')" d="m1516.21956,449.13281l14.41618,12.42785l31.21387,39.01734l21.38728,39.01734l23.12139,49.42196l70.80924,-23.12139l4.33526,0.28902l1.15607,-8.95954l-4.91329,-21.6763l-12.13873,-29.76878l-19.9422,-34.39306l-13.58381,-22.54335l-47.39884,-58.09248l-68.46242,58.3814z" vector-effect="non-scaling-stroke"/>
  <path onclick="playOnCell('5b')" d="m1507.54904,456.06923l44.763,49.13305l22.25433,37.86127l22.54335,50.57803l-41.04046,14.45087l-2.89017,-5.78035l-21.38728,-21.6763l-8.95954,-4.33526l-21.09826,-24.56647l-24.85549,-32.94797l-18.49711,-21.09826l49.16763,-41.6186z" vector-effect="non-scaling-stroke"/>
  <path onclick="playOnCell('6a')" d="m1557.54903,611.84957l119.04045,-41.32938l4.91329,-1.15607l-15.0289,43.06358l-0.28902,7.80347l-6.93642,14.73988l-4.62428,46.24277l0,36.12717l1.15607,8.95954l6.35838,11.56069l0.28902,8.3815l19.65318,46.24277l2.89017,7.22543l-38.72832,-5.78035l-59.53757,-9.24855l-30.0578,-5.49133l8.95954,-20.80925l9.24855,-28.3237l2.60116,-28.3237l-0.28902,-24.27746l-4.33526,-23.12139l-6.06936,-23.69942l-9.21387,-18.78622z" vector-effect="non-scaling-stroke"/>
  <path onclick="playOnCell('7a')" d="m1607.26002,792.4854l77.13294,10.98275l2.02312,27.16763l-8.95954,18.49711l-0.28902,9.53757l-22.83237,44.21965l-17.63006,32.08092l-20.80925,32.65896l-21.6763,24.85549l-9.53757,12.71676l-25.14451,21.96532l-31.21387,-29.19075l-27.74566,-27.45665l36.99422,-44.21965l5.49133,-8.95954l17.05202,-23.98844l12.42774,-22.83237l9.24855,-18.20809l8.95954,-17.91907l9.53757,-21.38728l6.97111,-20.52032z" vector-effect="non-scaling-stroke"/>
  <path onclick="playOnCell('7b')" d="m1553.50279,783.52587l49.67629,8.09258l-9.24855,26.30058l-11.56069,22.83237l-11.27168,23.4104l-14.45087,25.43352l-19.36416,27.16763l-15.60694,21.38728l-23.98844,28.03468l-57.51445,-55.20231l33.52601,-35.26011l25.43352,-28.61271l3.17919,-8.95954l10.40462,-4.91329l16.18497,-15.31792l14.45087,-16.18497l10.15029,-18.20819z" vector-effect="non-scaling-stroke"/>
  <path onclick="playOnCell('8a')" d="m1419.39875,1020.52008l39.84971,-17.05193l25.14451,-16.763l14.45087,-10.98266l56.06936,54.33526l-21.96532,17.34104l-20.23121,13.00578l-18.49711,12.13873l-43.3526,17.91907l-31.4682,-69.94228z" vector-effect="non-scaling-stroke"/>
  <path onclick="playOnCell('9b')" d="m1291.94211,963.58366l48.80925,-5.49124l38.15028,-11.56069l28.3237,-13.87283l27.74566,-18.20809l56.35838,54.04623l-32.65896,23.69943l-23.12138,12.13872c0.03468,0.28893 -36.3815,11.27159 -36.67052,11.27159c-0.28902,0 -38.15029,7.80347 -38.18497,7.51454c0.03468,0.28893 -33.78034,3.1791 -33.81503,2.89017c0.03469,0.28893 -10.36994,-0.2891 -10.40462,-0.57803c0.03468,0.28893 -12.10405,3.1791 -12.13873,2.89017l-12.39306,-64.73997z" vector-effect="non-scaling-stroke"/>
  <path onclick="playOnCell('9a')" d="m1306.10396,1037.86112l41.00578,-3.1791l41.04046,-6.6474l26.30058,-7.22543l30.92485,71.09826l-40.75144,13.00578l-40.75144,7.80347l-25.72254,3.75723l-18.78613,2.31214l-13.26012,-80.92494z" vector-effect="non-scaling-stroke"/>
  <path onclick="playOnCell('10b')" d="m1049.74559,980.9247l11.237,9.24864l13.87283,4.91329l15.60694,0.57803l15.60694,-4.62428l12.71676,-9.24855l6.93642,-9.24855l2.60116,-6.6474l23.69942,-2.02312l45.95375,2.02312l34.10404,-0.57803l54.91329,-2.02312l13.00578,70.80924c0.03468,0.28893 -84.6474,3.46812 -84.6474,3.1791c0,-0.28902 -108.09248,0.57803 -108.12716,0.2891c0.03468,0.28893 -34.93642,-0.2891 -34.9711,-0.57803c0.03467,0.28893 -45.05203,-15.31801 -45.0867,-15.60694c0.03467,0.28893 2.05779,-0.86714 22.57803,-40.46251z" vector-effect="non-scaling-stroke"/>
  <path onclick="playOnCell('10a')" d="m1004.9479,1059.82643l19.90752,-35.26003l46.53179,16.763l116.763,-0.28902l75.72254,-2.60116l35.54913,-0.57803l15.31792,82.08092l-239.01733,2.31214l-6.06936,-13.87283l-14.73988,-15.89595l-11.27168,-11.56069l-19.07514,-12.13873l-19.6185,-8.95962z" vector-effect="non-scaling-stroke"/>
  <path onclick="playOnCell('11a')" d="m873.73403,956.64725l89.5607,104.62436l19.07514,-2.60116l17.91907,0.86705l47.10982,-81.7919l-4.91329,-15.0289l1.44509,-20.52023l-169.94219,12.42774l-0.25435,2.02303z" vector-effect="non-scaling-stroke"/>

  <path onclick="playOnCell('13b')" d="m978.93634,942.77441l66.15029,-4.62419l7.22543,-15.31792l21.38728,-13.58381l10.69364,-3.75723l-13.00578,-82.08092l-33.81503,13.2948l-25.14451,17.34104l-15.60694,17.34104l-10.11561,23.98844l-5.49133,23.69942l-2.27747,23.69933z" vector-effect="non-scaling-stroke"/>
  <path onclick="playOnCell('12c')" d="m876.91322,951.15592l93.02891,-8.38141l2.60116,-37.57225l13.87283,-34.10404l-66.763,-46.24277l-22.25433,34.9711l-18.49711,41.32948l7.22543,10.69364l1.44509,13.87283l-1.44509,12.42774l-5.20231,7.22543l-4.01157,5.78026z" vector-effect="non-scaling-stroke"/>
  <path onclick="playOnCell('13c')" d="m922.86698,820.52008l65.28324,46.24286l24.27746,-23.98844l23.12139,-14.73988l34.10404,-14.45087l-11.27168,-72.25433l-22.25433,3.46821l-27.16763,8.95954l-15.60694,6.35838l-17.63006,10.98266l-7.22543,3.46821l-13.58381,12.42774l-21.96532,18.78613l-10.08094,14.73979z" vector-effect="non-scaling-stroke"/>
  <path onclick="playOnCell('14b')" d="m1063.04038,741.90737l25.68787,161.27176l18.49711,-1.7341l14.45087,0.57803l11.27167,-19.07514l13.00578,-9.53757l17.05202,-5.49133l13.87283,-1.15607c0.03468,0.28892 14.77457,0.86696 14.77457,1.15598c0,0.28901 14.16184,3.75722 14.12717,3.46829c0.03467,0.28893 11.01733,6.35829 10.98265,6.06937c0.03468,0.28892 10.15029,6.93632 10.11561,6.6474c0.03468,0.28892 8.7052,10.11551 8.67052,9.82659c0.03468,0.28892 3.50289,8.09239 3.46821,7.80346c0.03468,0.28893 38.18496,-0.86714 38.15028,-1.15607c0.03468,0.28893 -23.66474,-74.56656 -23.69942,-74.85548c0.03468,0.28892 -20.77456,-63.00587 -20.80924,-63.2948c0.03468,0.28893 -15.57226,-1.15616 -15.60694,-1.44508c0.03468,0.28892 -6.90174,7.51435 -6.93641,7.22543c0.03467,0.28892 -13.26012,7.80337 -13.2948,7.51445c0.03468,0.28892 -17.59538,4.9132 -17.63006,4.62428c0.03468,0.28892 -18.46243,2.02303 -18.49711,1.7341c0.03468,0.28893 -21.64162,-1.15616 -21.6763,-1.44508c0.03468,0.28892 -13.83815,-5.78044 -13.87283,-6.06937c0.03468,0.28893 -12.39307,-8.09258 -12.42774,-8.3815c0.03467,0.28892 -9.21388,-7.22553 -9.24856,-7.51445c0.03468,0.28892 -10.36994,-13.29489 -10.40462,-13.58381c0.03468,0.28892 -7.19076,-3.17929 -7.22543,-3.46821l-22.7977,0.28892z" vector-effect="non-scaling-stroke"/>
  <path onclick="playOnCell('15b')" d="m1258.99413,829.47962l23.08671,69.65327l23.98844,-1.7341l26.87861,-7.51445l16.47399,-9.82659l22.54335,-15.89595l22.83237,-19.36416l17.91907,-16.18497l15.0289,-20.23121l-76.01156,-39.88439l-9.24855,14.45087l-13.00578,11.27168l-13.87283,9.82659l-13.58381,8.09249l-13.00578,5.20231l-12.13873,4.62428l-17.88439,7.51436z" vector-effect="non-scaling-stroke"/>
  <path onclick="playOnCell('15c')" d="m1237.02882,762.13858l17.88439,57.22553l22.83237,-7.80347l18.49711,-6.93642l16.763,-8.95953l16.18497,-13.2948c0.03468,0.28892 14.19653,-18.20819 14.48555,-18.20819c0.28902,0 10.40462,-24.85549 10.36994,-25.14441c0.03468,0.28892 7.83815,-22.54345 7.80347,-22.83237c0.03468,0.28892 1.19075,-20.52032 1.15607,-20.80924c0.03468,0.28892 -77.42196,2.89007 -77.45664,2.60115c0.03468,0.28892 -0.54336,13.2947 -0.57804,13.00578c0.03468,0.28892 -4.01156,13.58372 -4.04624,13.2948c0.03468,0.28892 -5.74567,12.13863 -5.78035,11.84971c0.03468,0.28892 -8.92485,10.40453 -8.95953,10.1156c0.03468,0.28893 -6.61272,4.33517 -6.6474,4.04625c0.03468,0.28892 -7.76879,4.62418 -7.80347,4.33526l-14.7052,7.51435z" vector-effect="non-scaling-stroke"/>
  <path onclick="playOnCell('16b')" d="m1353.21378,764.1617l75.68786,39.01744l14.45086,-33.81503l10.98266,-35.83815l2.60116,-45.95375l-3.17919,-36.41618l-5.49133,-22.83237l-12.13873,-26.30058l-5.78034,-10.98266l-73.4104,36.99422l8.95953,22.83237c0.03469,0.28892 3.50289,22.54325 3.79191,22.54325c0.28902,0 2.02312,27.45665 1.98844,27.16773c0.03468,0.28892 -1.69942,20.23111 -1.73411,19.94219c0.03469,0.28892 -7.19075,21.67621 -7.22543,21.38728l-9.50289,22.25424z" vector-effect="non-scaling-stroke"/>
  <path onclick="playOnCell('17c')" d="m1262.46234,563.58368l31.46821,12.42784l35.26011,23.69942l15.60694,25.72254l12.42774,31.50289l4.04624,21.09826l0.86705,12.42774l-76.30057,3.46821l0,-12.42774l-4.04624,-11.84971l-8.67052,-12.13873l-10.69364,-9.82659l-12.13873,-7.80347l-12.71676,-4.62428l24.89017,-71.6764z" vector-effect="non-scaling-stroke"/>
  <path onclick="playOnCell('17b')" d="m1265.0635,552.89004l31.46821,13.58391l26.01156,17.34104l17.05202,14.16185l12.13873,19.65318l2.31214,6.06936l73.69942,-36.12717l-17.34104,-27.45665l-20.52023,-24.27746l-31.79191,-23.98844l-25.14451,-16.763l-21.96532,-11.84971l-19.07514,-5.20231l-26.84393,74.85539z" vector-effect="non-scaling-stroke"/>
  <path onclick="playOnCell('18b')" d="m1110.72824,577.45651l23.08671,-11.84961l37.28323,-10.69364l16.763,-2.60116l41.32948,0l29.19075,3.17919l28.03468,-78.61271l-11.27168,-3.46821l-29.19075,-3.75723l-51.15607,-0.28902l-30.63584,6.06936l-26.58959,6.93642l-24.27746,9.82659l-13.87283,6.93642l11.30635,78.32359z" vector-effect="non-scaling-stroke"/>
  <path onclick="playOnCell('18c')" d="m1111.88431,581.50275l9.5029,70.52033l14.45087,-4.62428l18.49711,-8.3815l21.09826,-4.04624l21.6763,-2.89017l20.23121,-0.57803l15.60694,3.17919l26.30058,-74.85549l-10.69364,-2.31214l-15.89595,-1.44509l-21.09826,-0.28902l-21.09826,0.28902l-20.23121,3.17919l-21.96532,6.06936l-13.2948,3.75723l-23.08671,12.42765z" vector-effect="non-scaling-stroke"/>
  <path onclick="playOnCell('19b')" d="m969.68779,536.99408l15.57226,-0.57793l2.89017,7.22543l11.84971,9.24855l23.69942,6.35838l33.23699,1.15607l17.05202,-7.51445l13.58381,-14.73988l7.80347,-13.58381l2.02312,-9.24855l19.9422,137.86126l-6.6474,6.06936l-10.40462,-5.49133l-12.13873,-3.46821l-18.20809,0.28902l-11.84971,1.7341l-13.58381,4.62428l-13.00578,9.24855l-9.53757,9.53757l-6.93642,14.16185l-9.24855,0.86705l-36.09249,-153.75732z" vector-effect="non-scaling-stroke"/>
  <path onclick="playOnCell('20b')" d="m853.79184,539.88426l21.0636,75.43362l109.24855,0.57803l-18.78613,-79.19075l-28.90173,-0.28902l-39.30636,1.15607l-43.31793,2.31204z" vector-effect="non-scaling-stroke"/>
  <path onclick="playOnCell('20c')" d="m876.33519,619.36402l108.05781,-0.28892l16.763,70.52023c0.03468,0.28892 -56.61272,1.15597 -57.19076,1.15597c-0.57803,0 -46.53179,2.02312 -46.56646,1.7342l-21.06359,-73.12148z" vector-effect="non-scaling-stroke"/>
  <path onclick="playOnCell('21c')" d="m732.11554,617.91894l139.5607,1.15617l21.38728,73.98843l-65.0289,1.7341l-14.73988,-15.89595l-13.58381,-8.09249l-20.23121,-3.46821l-12.71676,0l-15.31792,4.62428l-19.3295,-54.04634z" vector-effect="non-scaling-stroke"/>
  <path onclick="playOnCell('21b')" d="m716.79762,573.41027l14.12718,39.30646l139.59537,2.31214l-21.96532,-75.1445l-60.69364,1.15607l-35.83815,0.28902l-5.49133,8.09249l-5.20231,7.22543l-6.93642,5.49133l-7.51445,5.78035l-10.08094,5.49123z" vector-effect="non-scaling-stroke"/>

  <path onclick="playOnCell('12a')" d="m715.23293,942.48109l96.04523,-0.75181l9.77443,10.52631c0.19537,0.37588 9.9698,7.51873 10.34574,7.51873c0.37594,0 16.9173,3.00752 16.72193,2.63165c0.19537,0.37587 15.98484,-1.50383 15.78947,-1.8797c0.19537,0.37587 5.08259,-2.25571 4.88722,-2.63158c0.19537,0.37587 48.31566,56.01497 48.1203,55.63909c0.19536,0.37588 -40.78208,21.05257 -40.40614,21.05257c0.37594,0 -68.42104,0.75188 -68.42104,1.12782c0,0.37594 -69.54887,0.37594 -69.74424,0.00006l-23.1129,-93.23314z" vector-effect="non-scaling-stroke"/>
  <path onclick="playOnCell('12d')" d="m739.23645,1039.74359l18.59827,75.92588l142.73504,-0.2849l7.12251,-12.25071l3.4188,-9.11681l13.39031,-13.67521l11.11111,-6.26781l8.54701,-5.69801l13.67521,-5.1282l-37.89174,-46.15384l-42.45014,21.93732l-138.25639,0.7123z" vector-effect="non-scaling-stroke"/>
  <path onclick="playOnCell('13a')" d="m556.90027,1036.89459l-1.91454,-95.01429l155.84045,-0.2849l23.36182,94.58689l-177.28773,0.7123z" vector-effect="non-scaling-stroke"/>
  <path onclick="playOnCell('13d')" d="m556.33047,1040.59829l178.14244,-0.7123l19.08832,76.35327l-196.29629,0l-0.93447,-75.64098z" vector-effect="non-scaling-stroke"/>
  <path onclick="playOnCell('14a')" d="m359.17947,1033.19088l193.81196,3.56121l-1.4245,-95.15669l-106.8376,0.2849l-4.2735,7.69231l-8.83191,7.69231l-9.11681,3.9886l-13.67521,3.1339l-13.10541,0.5698l-15.09971,-3.1339l-21.44729,71.36756z" vector-effect="non-scaling-stroke"/>
  <path onclick="playOnCell('14d')" d="m336.10255,1112.39316l20.59259,4.41591l196.01139,0.5698l-0.2849,-76.63817l-90.59829,-1.7094l-103.4188,-1.1396l-22.302,74.50147z" vector-effect="non-scaling-stroke"/>
  <path onclick="playOnCell('15d')" d="m331.82904,1110.68376l-38.95156,-12.96301l-16.80912,-12.25071l-17.09402,-14.81481l-31.05413,-27.06553l56.41025,-47.29345l13.96011,14.24501l15.95442,11.39601l18.80342,11.11111l19.37322,7.12251l-20.59259,70.51287z" vector-effect="non-scaling-stroke"/>
  <path onclick="playOnCell('16a')" d="m356.04557,1028.91738l20.02279,-66.52426l-13.96011,-10.54131l-8.54701,-12.25071l-4.2735,-13.96011l-1.1396,-8.54701l-84.04558,-1.4245l3.9886,22.50712l9.40171,29.62963l14.24501,21.93732l19.08832,18.23362l17.37892,11.68091l14.52991,7.12251l13.31054,2.1368z" vector-effect="non-scaling-stroke"/>
  <path onclick="playOnCell('16d')" d="m223.85184,1039.74359l-7.04273,-6.1254l-16.52422,-30.19943l-6.55271,-13.96011l-5.41311,-8.54701l-4.2735,-23.07692l-3.1339,-10.54131l-0.5698,-33.33333l73.50427,0.5698l3.9886,25.64102l6.83761,23.64672l10.54131,19.94302l6.55271,7.97721l-57.91453,48.00574z" vector-effect="non-scaling-stroke"/>
  <path onclick="playOnCell('17d')" d="m180.54699,909.82906l2.35898,-35.75502l9.97151,-28.49003l19.37322,-31.90883l16.23932,-20.51282l51.85185,43.01994l-11.39601,20.51282l-7.97721,16.80912l-4.8433,16.52422l-2.2792,17.09402l0,4.8433l-73.29915,-2.13671z" vector-effect="non-scaling-stroke"/>
  <path onclick="playOnCell('18a')" d="m263.45297,911.53846l84.41026,1.85181l2.2792,-16.23932l6.55271,-12.25071l9.40171,-8.26211l7.12251,-3.7037l-18.80342,-79.20228l-16.80912,5.98291l-20.22792,14.24501l-16.23932,13.39031l-10.54131,13.67521l-11.39601,17.09402l-9.97151,22.79202l-5.1282,16.80912l-0.64958,13.8177z" vector-effect="non-scaling-stroke"/>
  <path onclick="playOnCell('18d')" d="m233.82335,789.31624l49.08263,42.87746l17.66382,-17.09402l19.37322,-15.66951l19.08832,-9.40171l12.53561,-3.7037l-13.96011,-58.68946l-25.92592,9.11681l-21.93732,6.55271l-31.90883,20.22792l-24.0114,25.78351z" vector-effect="non-scaling-stroke"/>
  <path onclick="playOnCell('19a')" d="m358.03987,792.73504l19.16809,77.63529l17.66382,-3.7037l19.65812,1.9943l15.09971,5.98291l9.97151,11.39601l24.21652,5.69801l-10.82621,-84.61538l-21.08262,-4.8433l-15.95442,-2.2792l-21.08262,-4.8433l-20.22792,-2.5641l-16.60399,0.14248z" vector-effect="non-scaling-stroke"/>
  <path onclick="playOnCell('19d')" d="m342.37035,726.92308l10.62108,-4.13109l27.92023,-0.5698l17.66382,-1.7094l42.73504,2.2792l11.11111,80.34188l-21.08262,-4.8433l-51.28205,-9.11681l-23.36182,0l-14.32479,-62.25068z" vector-effect="non-scaling-stroke"/>
  <path onclick="playOnCell('20a')" d="m456.90027,808.97436l34.5527,4.98572l21.08262,1.4245l37.60684,0.8547l8.26211,81.76638l-26.49573,2.2792l-28.77493,-1.4245l-21.93732,-1.9943l-13.10541,-3.7037l-11.19088,-84.188z" vector-effect="non-scaling-stroke"/>
  <path onclick="playOnCell('20d')" d="m445.78916,723.21937l31.7037,1.56692l12.82051,13.39031l16.23932,11.39601l17.37892,5.98291l20.51282,-1.4245l5.69801,58.68946l-43.58974,-2.2792l-49.85755,-6.26781l-10.90598,-81.0541z" vector-effect="non-scaling-stroke"/>
  <path onclick="playOnCell('22d')" d="m553.76637,808.11966l24.29629,-0.14248l33.61823,-9.68661l18.23362,-11.96581l17.66382,-25.64102l11.68091,-24.21652l3.7037,-19.37322l0.5698,-31.90883l-75.78347,-6.26781l1.9943,19.94302l-4.8433,19.94302l-8.83191,15.66951l-11.39601,10.82621l-10.54131,5.69801l-5.98291,1.9943l5.61824,55.12824z" vector-effect="non-scaling-stroke"/>
  <path onclick="playOnCell('21a')" d="m554.33617,816.95157l8.05697,79.34469l31.05413,-4.5584l37.32194,-9.68661l27.92023,-13.10541l40.45584,-30.48433l-58.68946,-51.28205l-12.82051,12.25071l-15.09971,8.54701l-20.22792,6.83761l-18.51852,2.5641l-19.45298,-0.42732z" vector-effect="non-scaling-stroke"/>
  <path onclick="playOnCell('22a')" d="m644.64956,783.90313l57.34472,50.85467l24.78632,-24.21652l15.66951,-20.22792l13.67521,-25.35612l-18.23362,-6.26781l-11.68091,-10.54131l-7.12251,-16.52422l-1.7094,-15.95442l2.2792,-15.66951l4.5584,-8.54701l-50.99715,-4.8433l-1.4245,24.50142l-3.1339,26.78063l-7.12251,15.09971l-9.68661,17.37892l-7.20227,13.5328z" vector-effect="non-scaling-stroke"/>

  <path onclick="playOnCell('23a')" d="m586.245,673.93162l140.2507,13.24784l6.5527,-6.55271l13.39031,-6.5527l-33.90313,-99.4302l-18.80342,1.9943l-23.64672,-3.1339l-12.53561,-4.55841c0.20514,0.14248 -10.05127,-5.84043 -9.76637,-5.84043c0.2849,0 -71.22507,96.8661 -71.43021,96.72362c0.20514,0.14248 4.76354,6.12539 4.55841,5.98291l5.33334,8.11968z" vector-effect="non-scaling-stroke"/>
  <path onclick="playOnCell('24a')" d="m610.74642,604.98575c0.2849,0 -37.89174,51.85185 -38.09687,51.70937c0.20514,0.14248 -12.04558,-5.27063 -12.25071,-5.41311c0.20514,0.14248 -14.89458,-3.56123 -15.09971,-3.7037c0.20513,0.14248 -13.18518,-0.14242 -13.39031,-0.2849c0.20513,0.14248 -16.60398,1.85188 -16.80912,1.7094c0.20513,0.14248 -10.05128,4.13108 -10.25641,3.9886c0.20513,0.14248 -8.05698,7.26499 -8.26211,7.12251c0.20513,0.14248 -4.63817,5.84048 -4.8433,5.69801c0.20513,0.14248 -16.88888,-1.85182 -17.09402,-1.9943c0.20513,0.14248 -16.31908,-2.42162 -16.52422,-2.5641c0.20513,0.14248 1.05983,-6.41023 0.8547,-6.55271c0.20513,0.14248 55.76069,-72.22219 55.55555,-72.36467c0.20513,0.14248 95.93163,22.6496 96.21653,22.6496z" vector-effect="non-scaling-stroke"/>
  <path onclick="playOnCell('24b')" d="m518.15383,579.05983l95.23646,22.64955l30.76923,-41.31054l-7.69231,-9.68661l-6.83761,-9.68661l0,-4.5584l-64.95726,-17.66382l-3.1339,5.69801l-6.55271,6.26781l-6.26781,7.97721l-30.5641,40.31341z" vector-effect="non-scaling-stroke"/>
  <path onclick="playOnCell('25a')" d="m463.45297,487.89174l2.35898,0.14243l0.5698,11.68091l3.1339,8.26211l2.5641,9.40171l6.26781,8.547l7.1225,5.41311l8.83191,5.1282l13.39032,3.70371c0.20513,0.14247 13.31054,1.56697 13.59544,1.85187c0.2849,0.2849 13.96012,0 13.75498,-0.14247c0.20514,0.14247 10.17665,-5.27063 9.97151,-5.41311c0.20514,0.14248 -86.68945,113.24789 -86.89458,113.10541c0.20513,0.14248 1.91453,-14.38743 1.7094,-14.52991c0.20513,0.14248 -0.64957,-9.25923 -0.8547,-9.40171c0.20513,0.14248 -5.49288,-11.53844 -5.69801,-11.68091c0.20513,0.14247 -6.63247,-9.25924 -6.8376,-9.40171c0.20513,0.14247 -7.77208,-5.55553 -7.97721,-5.69801c0.20513,0.14248 -9.19658,-2.70652 -9.40171,-2.849c0.20513,0.14248 -11.47578,-0.14242 -11.68091,-0.2849c0.20513,0.14248 -10.90598,2.99148 -11.11111,2.849c0.20513,0.14248 -11.47578,5.27068 -11.68091,5.12821c0.20513,0.14247 -9.48148,8.68948 -9.68661,8.54701c0.20513,0.14247 -8.91168,9.25928 -9.11681,9.1168l87.66951,-133.47575z" vector-effect="non-scaling-stroke"/>
  <path onclick="playOnCell('26a')" d="m262.88317,585.61254l24.2963,14.67233c0.20513,0.14248 10.17664,6.12539 10.46154,6.41029c0.2849,0.2849 23.64672,7.1225 23.4416,6.98003c0.20512,0.14247 26.41595,8.40458 26.21082,8.26211c0.20513,0.14247 18.72365,7.83478 18.51852,7.6923c0.20513,0.14248 50.34758,-75.9259 50.14245,-76.06837c0.20513,0.14247 -100.93447,-31.76636 -101.1396,-31.90883l-51.93163,63.96014z" vector-effect="non-scaling-stroke"/>
  <path onclick="playOnCell('26b')" d="m361.17377,465.95442l10.90598,18.66095l8.54701,7.97721l13.96011,2.849l22.79202,0.2849l16.23932,-3.4188l9.68661,-2.5641l5.41311,-5.1282l10.54131,1.7094l-41.31054,63.81766l-100.5698,-31.90883l43.79487,-52.27918z" vector-effect="non-scaling-stroke"/>
  <path onclick="playOnCell('28b')" d="m316.72933,512.39316l42.81482,-51.13962l0.2849,-18.51852l2.849,-19.37322l7.40741,-12.82051l-10.25641,-76.06837l-21.36752,6.26781l-18.23362,9.97151l-15.95442,9.40171l-13.67521,9.97151l-9.11681,13.67521l-7.40741,19.65812l-1.9943,19.94302l-1.1396,11.68091l1.9943,17.37892l3.4188,13.39031l7.12251,19.08832l7.97721,13.10541l10.25641,9.97151l15.01994,4.41598z" vector-effect="non-scaling-stroke"/>
  <path onclick="playOnCell('27a')" d="m309.03702,522.07977l-49.77777,60.82619l-18.80342,-9.97151l-41.02564,-45.29914l-15.95441,-54.41596l-3.98861,-29.34473l1.1396,-19.94301l5.12821,-27.63533l76.35327,15.09971l-0.5698,32.19373l4.5584,23.36183l9.11681,22.22222c0.20513,0.14247 12.74074,20.37039 13.02564,20.37039l20.79772,12.53561z" vector-effect="non-scaling-stroke"/>
  <path onclick="playOnCell('28a')" d="m187.6695,390.74074l75.00855,17.23645l8.26211,-26.21083l13.96011,-18.23362l19.08832,-13.67521l17.66382,-10.82621l22.50712,-8.83191l14.81481,-3.7037l-9.97151,-70.65527l-49.00285,11.11111l-26.49573,15.09971l-25.07122,17.37892l-8.26211,7.12251l-21.08262,24.21652l-6.55271,6.55271l-10.82621,17.66382l-3.9886,7.97721l-5.41311,16.23932l-4.63819,11.53848z" vector-effect="non-scaling-stroke"/>
  <path onclick="playOnCell('29a')" d="m362.88317,324.92877l48.51282,-6.12537l44.15954,0l21.08262,0.2849l37.60684,5.98291l2.849,0l-2.5641,-61.53846l-14.81481,-0.8547l-15.66951,-0.2849l-18.23362,-2.2792l-24.50142,-3.9886l-26.49573,-3.4188l-18.23362,-1.1396l-23.93162,0.2849l-7.40741,0.8547l-12.25071,2.5641l9.89174,69.65813z" vector-effect="non-scaling-stroke"/>
  <path onclick="playOnCell('29b')" d="m362.88317,329.77208l6.06268,42.02278l11.11111,-1.9943l27.35043,1.4245l50.14245,5.98291l32.47863,6.26781l13.96011,4.2735l15.66951,1.9943l-1.7094,-60.68376l-14.81481,-1.1396l-21.08262,-3.4188l-12.82051,-1.9943l-67.52136,0.5698l-19.65812,3.1339l-19.16809,3.56127z" vector-effect="non-scaling-stroke"/>
  <path onclick="playOnCell('29c')" d="m369.43588,375.35613l4.63818,31.76636l10.82621,-9.11681l18.80342,-5.98291l17.66382,-0.8547l18.51852,6.55271l12.25071,11.11111l9.40171,12.82051l3.7037,7.97721l23.36182,6.83761l13.39031,0.2849l20.22792,3.7037l-1.7094,-47.00854l-24.50142,-3.4188l-22.79202,-5.69801l-19.08832,-3.4188l-25.07122,-3.4188l-23.93162,-2.849l-19.37322,-1.1396l-16.31909,1.85187z" vector-effect="non-scaling-stroke"/>
  <path onclick="playOnCell('30c')" d="m524.42164,394.44444l1.50427,46.29628l16.52422,6.26781l15.09971,7.12251l20.22792,1.9943l21.93732,2.5641l12.53561,1.7094l39.31624,11.11111l24.50142,6.55271l0.2849,-56.98005l-25.35612,-0.5698l-33.33333,-3.4188l-29.05983,-5.69801l-28.49003,-7.97721l-20.22792,-5.69801l-15.46438,-3.27634z" vector-effect="non-scaling-stroke"/>
  <path onclick="playOnCell('30b')" d="m523.56693,384.18803l29.70939,7.54984l35.32763,9.97151l33.04843,6.26781l29.91453,3.1339l24.21652,0.5698l0,-67.80626l-37.03704,-1.4245l-33.61823,-3.9886l-27.63533,-4.2735l-35.04273,-3.1339l-21.08262,-1.7094l2.19944,54.84332z" vector-effect="non-scaling-stroke"/>
  <path onclick="playOnCell('30a')" d="m520.43303,319.80057l63.89743,4.98574l42.73504,6.55271l48.71795,2.5641l-1.4245,-122.79202l-61.82336,0.2849l-13.39031,0l-80.62678,39.60114l1.91454,68.80343z" vector-effect="non-scaling-stroke"/>
</svg>